<svg xmlns="http://www.w3.org/2000/svg" width="26" height="26" viewBox="0 0 26 26" fill="none"><path d="M2.58331 13.1822C2.58303 11.226 3.13364 9.30938 4.17209 7.65165C5.21054 5.99392 6.69484 4.66215 8.45504 3.80884C10.2152 2.95552 12.1802 2.61516 14.1248 2.82673C16.0695 3.0383 17.9152 3.79325 19.4507 5.00512H17.8662C17.729 5.00645 17.5978 5.06191 17.5012 5.15944C17.4046 5.25697 17.3504 5.38868 17.3504 5.52595C17.3504 5.66321 17.4046 5.79493 17.5012 5.89246C17.5978 5.98999 17.729 6.04544 17.8662 6.04677H20.8125C20.9506 6.04677 21.0831 5.9919 21.1808 5.89422C21.2784 5.79654 21.3333 5.66406 21.3333 5.52592V2.57959C21.334 2.51077 21.321 2.4425 21.2951 2.37872C21.2692 2.31495 21.231 2.25693 21.1826 2.20803C21.1341 2.15913 21.0765 2.12032 21.013 2.09382C20.9494 2.06733 20.8813 2.05369 20.8125 2.05369C20.7437 2.05369 20.6755 2.06733 20.612 2.09382C20.5485 2.12032 20.4908 2.15913 20.4424 2.20803C20.394 2.25693 20.3557 2.31495 20.3298 2.37872C20.304 2.4425 20.291 2.51077 20.2917 2.57959V4.34326C18.0206 2.46979 15.1155 1.54237 12.179 1.75336C9.24249 1.96435 6.49985 3.29756 4.51994 5.47646C2.54004 7.65537 1.47479 10.5128 1.54515 13.456C1.6155 16.3993 2.81606 19.2025 4.89781 21.2843C4.94597 21.3336 5.00342 21.3728 5.06684 21.3997C5.13026 21.4267 5.1984 21.4407 5.26729 21.4411C5.33619 21.4415 5.40448 21.4282 5.46821 21.4021C5.53194 21.3759 5.58984 21.3373 5.63856 21.2886C5.68727 21.2399 5.72584 21.182 5.75202 21.1182C5.77821 21.0545 5.79148 20.9862 5.79109 20.9173C5.79069 20.8484 5.77663 20.7803 5.74971 20.7169C5.7228 20.6535 5.68356 20.596 5.63429 20.5478C4.66398 19.5828 3.89472 18.4349 3.37102 17.1706C2.84732 15.9063 2.57958 14.5507 2.58331 13.1822Z" fill="white"></path><path d="M8.44782 22.5549C8.15231 22.4112 7.85983 22.2512 7.57868 22.0798C7.46078 22.0079 7.31912 21.9857 7.18486 22.0181C7.05061 22.0506 6.93475 22.1351 6.86278 22.253C6.79081 22.3709 6.76862 22.5125 6.8011 22.6468C6.83358 22.7811 6.91805 22.8969 7.03595 22.9689C7.34547 23.1579 7.6674 23.3336 7.99269 23.4917C8.0542 23.5216 8.12101 23.5391 8.18928 23.5432C8.25755 23.5473 8.32595 23.5378 8.39059 23.5155C8.45522 23.4931 8.51482 23.4582 8.56597 23.4129C8.61713 23.3675 8.65884 23.3124 8.68873 23.2509C8.71862 23.1894 8.73611 23.1226 8.74018 23.0543C8.74425 22.9861 8.73484 22.9177 8.71248 22.853C8.69012 22.7884 8.65524 22.7288 8.60985 22.6776C8.56445 22.6265 8.50943 22.5848 8.44791 22.5549H8.44782Z" fill="white"></path><path d="M22.3773 8.6396C22.4071 8.70116 22.4488 8.75624 22.4999 8.8017C22.551 8.84716 22.6105 8.88211 22.6752 8.90455C22.7398 8.927 22.8082 8.9365 22.8765 8.93251C22.9447 8.92851 23.0116 8.91111 23.0731 8.8813C23.1347 8.85148 23.1898 8.80983 23.2352 8.75873C23.2807 8.70762 23.3156 8.64807 23.3381 8.58346C23.3605 8.51884 23.37 8.45044 23.366 8.38216C23.362 8.31388 23.3446 8.24705 23.3148 8.1855C23.1579 7.86123 22.9824 7.53931 22.7935 7.22847C22.7579 7.17002 22.7112 7.11915 22.656 7.07876C22.6008 7.03837 22.5382 7.00925 22.4717 6.99307C22.3375 6.96038 22.1957 6.98235 22.0777 7.05415C21.9597 7.12595 21.875 7.2417 21.8423 7.37593C21.8096 7.51017 21.8316 7.65189 21.9034 7.76992C22.0752 8.05249 22.2346 8.34512 22.3773 8.6396Z" fill="white"></path><path d="M14.2357 23.5258C13.9069 23.5649 13.5743 23.5881 13.2467 23.596C13.1111 23.6012 12.9829 23.6591 12.8893 23.7575C12.7958 23.8558 12.7443 23.9868 12.7459 24.1225C12.7475 24.2582 12.802 24.388 12.8978 24.4841C12.9936 24.5802 13.1231 24.6352 13.2588 24.6372C13.2629 24.6372 13.2672 24.6372 13.2713 24.6369C13.6314 24.6285 13.9968 24.6028 14.358 24.5601C14.495 24.5438 14.62 24.4737 14.7054 24.3653C14.7909 24.2569 14.8298 24.119 14.8136 23.9819C14.7974 23.8448 14.7275 23.7198 14.6192 23.6342C14.5109 23.5487 14.373 23.5096 14.2359 23.5256L14.2357 23.5258Z" fill="white"></path><path d="M11.2715 23.4552C10.9475 23.401 10.6217 23.3306 10.3033 23.2452C10.1698 23.2095 10.0276 23.2283 9.90803 23.2975C9.78841 23.3667 9.70117 23.4805 9.6655 23.614C9.62982 23.7475 9.64863 23.8897 9.71779 24.0093C9.78695 24.1289 9.90079 24.2161 10.0343 24.2518C10.3847 24.3454 10.7433 24.4229 11.1001 24.4825C11.1676 24.4937 11.2366 24.4916 11.3032 24.4762C11.3698 24.4607 11.4328 24.4323 11.4884 24.3926C11.5441 24.3528 11.5914 24.3025 11.6276 24.2445C11.6638 24.1865 11.6883 24.1219 11.6995 24.0544C11.7108 23.987 11.7086 23.918 11.6932 23.8513C11.6778 23.7847 11.6494 23.7217 11.6096 23.6661C11.5699 23.6104 11.5196 23.5631 11.4615 23.5269C11.4035 23.4907 11.3389 23.4663 11.2715 23.455V23.4552Z" fill="white"></path><path d="M23.9469 12.9311C23.8089 12.9277 23.6751 12.9793 23.5751 13.0745C23.475 13.1698 23.4169 13.3008 23.4134 13.4389C23.405 13.7682 23.3811 14.1008 23.3419 14.4279C23.3256 14.5651 23.3644 14.7031 23.4498 14.8117C23.5352 14.9203 23.6602 14.9905 23.7974 15.0069C23.8181 15.0093 23.839 15.0105 23.8599 15.0105C23.9872 15.0103 24.1101 14.9635 24.2052 14.879C24.3004 14.7944 24.3613 14.6779 24.3764 14.5515C24.4192 14.1922 24.4456 13.8267 24.4546 13.4649C24.4563 13.3965 24.4445 13.3284 24.42 13.2646C24.3954 13.2007 24.3585 13.1424 24.3113 13.0928C24.2642 13.0432 24.2078 13.0034 24.1452 12.9757C24.0827 12.9479 24.0153 12.9328 23.9469 12.9311Z" fill="white"></path><path d="M22.3483 18.8884C22.234 18.8109 22.0936 18.7819 21.958 18.8078C21.8223 18.8337 21.7025 18.9124 21.6247 19.0265C21.4396 19.2988 21.2394 19.5656 21.0294 19.8192C20.9847 19.8717 20.9509 19.9326 20.93 19.9983C20.9091 20.064 20.9014 20.1332 20.9074 20.2018C20.9134 20.2705 20.933 20.3373 20.965 20.3984C20.9971 20.4595 21.0409 20.5135 21.094 20.5575C21.1471 20.6015 21.2085 20.6345 21.2744 20.6545C21.3404 20.6746 21.4097 20.6814 21.4783 20.6745C21.5469 20.6676 21.6134 20.6471 21.6741 20.6143C21.7347 20.5815 21.7882 20.5369 21.8315 20.4832C22.0624 20.2045 22.2829 19.9113 22.4863 19.6117C22.5247 19.5551 22.5517 19.4916 22.5655 19.4246C22.5794 19.3577 22.5799 19.2886 22.5671 19.2215C22.5543 19.1543 22.5284 19.0903 22.4908 19.0332C22.4533 18.976 22.4048 18.9268 22.3483 18.8884Z" fill="white"></path><path d="M23.066 10.4951C23.1505 10.8122 23.2207 11.138 23.2748 11.4635C23.295 11.5851 23.3576 11.6956 23.4516 11.7753C23.5456 11.8551 23.6648 11.899 23.788 11.8991C23.8167 11.8991 23.8454 11.8967 23.8737 11.892C23.9412 11.8808 24.0058 11.8564 24.0639 11.8203C24.1219 11.7841 24.1723 11.7368 24.2121 11.6812C24.2519 11.6256 24.2803 11.5626 24.2958 11.496C24.3112 11.4293 24.3134 11.3603 24.3022 11.2928C24.2429 10.9348 24.1655 10.576 24.0727 10.227C24.0372 10.0935 23.9501 9.97964 23.8305 9.91039C23.711 9.84114 23.5689 9.82221 23.4354 9.85775C23.3019 9.8933 23.188 9.98042 23.1188 10.0999C23.0495 10.2195 23.0306 10.3616 23.0661 10.4951H23.066Z" fill="white"></path><path d="M19.6282 21.2186C19.3736 21.4292 19.1068 21.6293 18.8355 21.8132C18.7789 21.8516 18.7304 21.9007 18.6928 21.9579C18.6552 22.015 18.6292 22.0789 18.6163 22.1461C18.6034 22.2133 18.6038 22.2823 18.6176 22.3493C18.6314 22.4163 18.6583 22.4799 18.6966 22.5365C18.735 22.5931 18.7842 22.6416 18.8413 22.6792C18.8984 22.7168 18.9624 22.7428 19.0295 22.7557C19.0967 22.7686 19.1657 22.7681 19.2327 22.7543C19.2997 22.7406 19.3633 22.7137 19.4199 22.6753C19.7185 22.4731 20.0117 22.2532 20.2919 22.0218C20.3984 21.9337 20.4656 21.807 20.4787 21.6695C20.4917 21.5319 20.4496 21.3948 20.3616 21.2883C20.2736 21.1818 20.1469 21.1146 20.0093 21.1016C19.8718 21.0885 19.7347 21.1306 19.6282 21.2186Z" fill="white"></path><path d="M23.5753 16.0246C23.4437 15.9828 23.3009 15.9949 23.1783 16.0583C23.0556 16.1216 22.9631 16.2311 22.921 16.3626C22.8213 16.6751 22.7048 16.9872 22.5749 17.2905C22.5465 17.3536 22.5309 17.4217 22.5291 17.4909C22.5273 17.56 22.5393 17.6288 22.5644 17.6933C22.5895 17.7578 22.6272 17.8166 22.6753 17.8663C22.7233 17.9161 22.7808 17.9557 22.8444 17.983C22.908 18.0103 22.9764 18.0246 23.0455 18.0251C23.1147 18.0257 23.1833 18.0125 23.2473 17.9862C23.3113 17.9599 23.3694 17.9212 23.4183 17.8722C23.4672 17.8233 23.5058 17.7651 23.5319 17.701C23.6754 17.3671 23.8035 17.023 23.9131 16.6789C23.9339 16.6138 23.9417 16.5452 23.936 16.477C23.9303 16.4089 23.9112 16.3425 23.8798 16.2817C23.8484 16.221 23.8054 16.167 23.7532 16.1229C23.7009 16.0787 23.6405 16.0453 23.5753 16.0246Z" fill="white"></path><path d="M17.0984 22.7613C16.7981 22.89 16.4858 23.0062 16.1702 23.1069C16.1051 23.1277 16.0446 23.1611 15.9924 23.2052C15.9401 23.2493 15.8971 23.3033 15.8657 23.3641C15.8343 23.4248 15.8152 23.4912 15.8095 23.5593C15.8037 23.6275 15.8114 23.6961 15.8322 23.7613C15.853 23.8264 15.8864 23.8868 15.9305 23.9391C15.9746 23.9913 16.0286 24.0344 16.0894 24.0658C16.1502 24.0972 16.2165 24.1163 16.2847 24.122C16.3528 24.1277 16.4214 24.12 16.4866 24.0992C16.8337 23.9886 17.1775 23.8607 17.5084 23.7191C17.6354 23.6647 17.7356 23.5621 17.7869 23.4338C17.8383 23.3055 17.8366 23.1621 17.7822 23.0351C17.7278 22.9081 17.6252 22.8079 17.4969 22.7566C17.3687 22.7052 17.2252 22.7069 17.0982 22.7613H17.0984Z" fill="white"></path><path d="M8.59529 12.1181C8.59529 11.2645 8.03401 10.5805 7.16531 10.3754C6.68808 10.2624 6.18662 10.3144 5.7428 10.5231C5.29897 10.7318 4.93899 11.0847 4.72161 11.5244C4.66074 11.6478 4.6512 11.7904 4.69509 11.9208C4.73898 12.0513 4.83273 12.1591 4.95584 12.2206C5.07895 12.2822 5.22143 12.2925 5.35213 12.2494C5.48284 12.2062 5.59115 12.1131 5.65339 11.9903C5.76459 11.7595 5.95165 11.5739 6.18328 11.4645C6.41491 11.3551 6.67708 11.3285 6.92595 11.3892C7.07322 11.4239 7.55359 11.5793 7.55359 12.1181C7.55359 12.6613 6.9262 13.0803 6.26194 13.5239C5.51399 14.0232 4.66663 14.589 4.66663 15.5259C4.66663 15.664 4.7215 15.7965 4.81918 15.8942C4.91686 15.9919 5.04934 16.0467 5.18748 16.0467H8.07444C8.14326 16.0474 8.21153 16.0344 8.2753 16.0086C8.33908 15.9827 8.39709 15.9444 8.44599 15.896C8.49489 15.8476 8.53371 15.7899 8.5602 15.7264C8.58669 15.6629 8.60033 15.5947 8.60033 15.5259C8.60033 15.4571 8.58669 15.3889 8.5602 15.3254C8.53371 15.2619 8.49489 15.2043 8.44599 15.1558C8.39709 15.1074 8.33908 15.0692 8.2753 15.0433C8.21153 15.0174 8.14326 15.0044 8.07444 15.0051H6.01096C6.22917 14.7984 6.53762 14.5923 6.84026 14.3901C7.66306 13.8408 8.59529 13.2183 8.59529 12.1181Z" fill="white"></path><path d="M13.5208 13.8332C13.5208 13.6951 13.4659 13.5626 13.3683 13.4649C13.2706 13.3673 13.1381 13.3124 13 13.3124H12.5768V10.5455C12.5768 10.4376 12.5433 10.3324 12.4809 10.2444C12.4185 10.1564 12.3304 10.0899 12.2286 10.0541C12.1269 10.0184 12.0165 10.0151 11.9128 10.0447C11.8091 10.0743 11.7171 10.1354 11.6496 10.2196L9.01288 13.5075C8.95154 13.5841 8.91308 13.6764 8.90193 13.7739C8.89078 13.8714 8.9074 13.9701 8.94987 14.0586C8.99234 14.147 9.05893 14.2217 9.14197 14.274C9.22502 14.3263 9.32114 14.354 9.41927 14.3541H11.5351V15.8189C11.5345 15.8877 11.5475 15.956 11.5733 16.0198C11.5992 16.0835 11.6375 16.1416 11.6859 16.1905C11.7343 16.2394 11.792 16.2782 11.8555 16.3047C11.919 16.3312 11.9871 16.3448 12.056 16.3448C12.1248 16.3448 12.1929 16.3312 12.2565 16.3047C12.32 16.2782 12.3776 16.2394 12.426 16.1905C12.4745 16.1416 12.5127 16.0835 12.5386 16.0198C12.5645 15.956 12.5775 15.8877 12.5768 15.8189V14.3541H13C13.1381 14.3541 13.2706 14.2992 13.3683 14.2015C13.466 14.1038 13.5208 13.9713 13.5208 13.8332ZM11.5351 13.3124H10.5049L11.5351 12.0274V13.3124Z" fill="white"></path><path d="M16.1865 9.74175C16.1194 9.72819 16.0503 9.72801 15.9832 9.74122C15.916 9.75444 15.8522 9.78078 15.7952 9.81873C15.7383 9.85669 15.6894 9.90552 15.6513 9.96242C15.6133 10.0193 15.5869 10.0832 15.5736 10.1503L14.4017 16.0097C14.3746 16.1451 14.4024 16.2858 14.479 16.4007C14.5556 16.5156 14.6747 16.5954 14.8102 16.6226C14.8439 16.6293 14.8783 16.6327 14.9127 16.6327C15.033 16.6326 15.1496 16.5908 15.2426 16.5145C15.3355 16.4382 15.3993 16.3321 15.4229 16.2141L16.5948 10.3547C16.6082 10.2877 16.6083 10.2186 16.5951 10.1515C16.5819 10.0844 16.5556 10.0206 16.5176 9.96365C16.4797 9.90672 16.431 9.85782 16.3741 9.81975C16.3173 9.78167 16.2536 9.75517 16.1865 9.74175Z" fill="white"></path><path d="M18.8592 16.0469C18.962 16.0469 19.0626 16.0164 19.1482 15.9593C19.2337 15.9023 19.3005 15.8212 19.3401 15.7262L21.2932 11.0387C21.3263 10.9596 21.3392 10.8735 21.331 10.7882C21.3227 10.7028 21.2935 10.6208 21.246 10.5494C21.1984 10.4781 21.134 10.4196 21.0584 10.3791C20.9828 10.3386 20.8983 10.3175 20.8126 10.3175H18.1758C18.0386 10.3188 17.9074 10.3743 17.8108 10.4718C17.7142 10.5694 17.66 10.7011 17.66 10.8383C17.66 10.9756 17.7142 11.1073 17.8108 11.2048C17.9074 11.3024 18.0386 11.3578 18.1758 11.3592H20.0313L18.3788 15.3257C18.3459 15.4048 18.333 15.4908 18.3413 15.5761C18.3496 15.6614 18.3788 15.7434 18.4263 15.8147C18.4738 15.886 18.5382 15.9445 18.6137 15.9851C18.6892 16.0256 18.7735 16.0469 18.8592 16.0471V16.0469Z" fill="white"></path></svg>
