<svg xmlns="http://www.w3.org/2000/svg" width="36" height="37" viewBox="0 0 36 37" fill="none"><path d="M11.8125 12.8391C12.925 12.8391 14.0126 12.5092 14.9376 11.8911C15.8626 11.273 16.5836 10.3945 17.0093 9.36671C17.4351 8.33887 17.5465 7.20787 17.3294 6.11673C17.1124 5.02559 16.5766 4.02331 15.79 3.23664C15.0033 2.44997 14.001 1.91424 12.9099 1.6972C11.8187 1.48015 10.6877 1.59155 9.65991 2.01729C8.63207 2.44303 7.75357 3.164 7.13548 4.08903C6.5174 5.01406 6.1875 6.10159 6.1875 7.21411C6.18914 8.70545 6.7823 10.1352 7.83683 11.1898C8.89137 12.2443 10.3212 12.8375 11.8125 12.8391ZM11.8125 2.71411C12.7025 2.71411 13.5725 2.97803 14.3126 3.4725C15.0526 3.96697 15.6294 4.66977 15.97 5.49204C16.3106 6.31431 16.3997 7.21911 16.226 8.09202C16.0524 8.96493 15.6238 9.76676 14.9945 10.3961C14.3651 11.0254 13.5633 11.454 12.6904 11.6276C11.8175 11.8013 10.9127 11.7122 10.0904 11.3716C9.26816 11.031 8.56535 10.4542 8.07089 9.71418C7.57642 8.97416 7.3125 8.10413 7.3125 7.21411C7.31384 6.02105 7.78838 4.87724 8.632 4.03361C9.47562 3.18999 10.6194 2.71545 11.8125 2.71411Z" fill="white"></path><path d="M12.375 16.7766H11.25V17.9016H12.375V16.7766Z" fill="white"></path><path d="M34.3738 16.7799C31.8863 16.5103 29.4732 15.7678 27.2644 14.5924C27.183 14.549 27.0922 14.5264 27 14.5264C26.9078 14.5264 26.817 14.549 26.7356 14.5924C24.5268 15.7678 22.1137 16.5103 19.6262 16.7799C19.4884 16.795 19.3611 16.8604 19.2686 16.9636C19.1762 17.0668 19.125 17.2005 19.125 17.3391V24.0019C19.1404 26.431 19.8763 28.8009 21.2397 30.8114C22.603 32.822 24.5324 34.3826 26.7834 35.2957C26.8521 35.3244 26.9257 35.3391 27 35.3391C27.0743 35.3391 27.1479 35.3244 27.2166 35.2957C29.4676 34.3826 31.397 32.822 32.7603 30.8114C34.1237 28.8009 34.8596 26.431 34.875 24.0019V17.3391C34.875 17.2005 34.8238 17.0668 34.7314 16.9636C34.6389 16.8604 34.5116 16.795 34.3738 16.7799ZM33.75 24.0019C33.7352 26.1688 33.0887 28.2843 31.8898 30.0893C30.6909 31.8944 28.9916 33.3106 27 34.1646C25.0084 33.3106 23.3091 31.8944 22.1102 30.0893C20.9113 28.2843 20.2648 26.1688 20.25 24.0019V17.8369C22.6043 17.5242 24.8875 16.8095 27 15.7241C29.1124 16.8096 31.3956 17.5243 33.75 17.8369V24.0019Z" fill="white"></path><path d="M22.2852 23.6392L21.4875 24.4362L24.8625 27.8112C24.968 27.9167 25.1111 27.9759 25.2602 27.9759C25.4094 27.9759 25.5524 27.9167 25.6579 27.8112L32.4079 21.0612L31.6125 20.2642L25.2625 26.6204L22.2852 23.6392Z" fill="white"></path><path d="M15.1875 22.4016H12.6264L8.42006 14.3129C9.59579 14.863 10.8877 15.1187 12.1844 15.0579C13.481 14.9972 14.7434 14.6218 15.8625 13.9641H16.875C17.5142 13.9654 18.1458 14.1035 18.7272 14.3693C19.3086 14.635 19.8263 15.0222 20.2455 15.5048C20.6668 15.4407 21.0836 15.3597 21.4971 15.2674C20.9808 14.5187 20.2905 13.9065 19.4854 13.4835C18.6803 13.0605 17.7845 12.8394 16.875 12.8391H15.705C15.5987 12.8393 15.4947 12.8693 15.4046 12.9257C14.325 13.5921 13.0812 13.945 11.8125 13.945C10.5438 13.945 9.30004 13.5921 8.22038 12.9257C8.13035 12.8693 8.02626 12.8393 7.92 12.8391H6.75C5.25866 12.8407 3.82887 13.4339 2.77433 14.4884C1.7198 15.543 1.12664 16.9728 1.125 18.4641V25.2141C1.12589 25.9598 1.4225 26.6746 1.94975 27.2019C2.477 27.7291 3.19185 28.0257 3.9375 28.0266H5.625V33.0891H6.75V28.0266H15.1875C15.9334 28.0266 16.6488 27.7303 17.1762 27.2028C17.7037 26.6754 18 25.96 18 25.2141C18 24.4682 17.7037 23.7528 17.1762 23.2254C16.6488 22.6979 15.9334 22.4016 15.1875 22.4016ZM3.9375 26.9016C3.48995 26.9016 3.06072 26.7238 2.74426 26.4074C2.42779 26.0909 2.25 25.6617 2.25 25.2141V18.4641C2.24945 17.4055 2.62413 16.3809 3.3075 15.5723L6.85856 22.4016H5.625V23.5266H7.44356L9.19856 26.9016H3.9375ZM10.4664 26.9016L4.16644 14.7859C4.92175 14.2511 5.82449 13.9639 6.75 13.9641H6.97106L13.6986 26.9016H10.4664ZM15.1875 26.9016H14.9664L13.2114 23.5266H15.1875C15.6351 23.5266 16.0643 23.7044 16.3807 24.0209C16.6972 24.3373 16.875 24.7666 16.875 25.2141C16.875 25.6617 16.6972 26.0909 16.3807 26.4074C16.0643 26.7238 15.6351 26.9016 15.1875 26.9016Z" fill="white"></path></svg>
