<svg xmlns="http://www.w3.org/2000/svg" width="26" height="26" viewBox="0 0 26 26" fill="none"><g clip-path="url(#clip0_202_190)"><path d="M18.0651 15.3025H11.2246C11.2458 14.7319 11.2358 14.402 11.1789 13.1352C11.1057 11.4758 9.92138 10.7482 9.07866 10.7482C9.06464 10.7482 9.05048 10.7484 9.03662 10.7488C8.40898 10.7672 7.97641 11.1796 7.98471 11.7516C7.99892 12.7586 8.00302 12.9969 8.00473 13.0991C8.00561 13.1497 8.0067 13.2379 8.008 13.3638L8.01787 14.2872C8.01928 14.4324 8.0059 14.6214 7.93393 14.6977C7.8791 14.7558 7.75796 14.7953 7.60454 14.8452C7.15156 14.9926 6.46704 15.2153 5.89965 16.4163L5.89101 16.4347C5.85639 16.5086 5.82656 16.5722 5.76591 16.6172V16.3614C5.76591 15.8043 5.34306 15.351 4.82329 15.351H1.91123C1.64165 15.351 1.37109 15.4782 1.1875 15.6913C1.0101 15.8972 0.933736 16.1531 0.972506 16.4125L1.96777 22.9974C2.05576 23.5716 2.43354 23.9574 2.90781 23.9574H4.82339C5.34316 23.9574 5.76601 23.5035 5.76601 22.9456V22.5975C6.06713 22.6036 6.23198 22.752 6.51484 23.0316C6.88999 23.4025 7.40371 23.9104 8.54526 23.9104H13.7246C14.4587 23.9104 15.0561 23.3124 15.0561 22.5774C15.0561 22.3074 14.9752 22.0561 14.8368 21.8458C15.3449 21.6578 15.7081 21.1689 15.7081 20.5968C15.7081 20.2389 15.566 19.9137 15.3356 19.674C15.6542 19.4304 15.8603 19.0469 15.8603 18.6161C15.8603 18.3805 15.7986 18.1592 15.691 17.9669H18.0652C18.8349 17.9669 19.2375 17.2967 19.2375 16.6347C19.2375 15.9727 18.8349 15.3025 18.0652 15.3025H18.0651ZM5.08222 22.9456C5.08222 23.1234 4.96367 23.2736 4.82339 23.2736H2.90781C2.7663 23.2736 2.67168 23.0767 2.64375 22.8945L1.64868 16.3108C1.6374 16.2353 1.67338 16.1749 1.70551 16.1376C1.75937 16.0751 1.84013 16.0348 1.91128 16.0348H4.82343C4.96372 16.0348 5.08227 16.1843 5.08227 16.3614L5.08222 22.9456ZM13.7246 23.2265H11.6401C11.2822 23.2265 10.991 22.9353 10.991 22.5774C10.991 22.2195 11.2822 21.9283 11.6401 21.9283C11.6648 21.9283 11.6889 21.9255 11.7121 21.9206C11.7589 21.9256 11.8065 21.9283 11.8547 21.9283H13.7246C14.0817 21.9283 14.3724 22.2195 14.3724 22.5774C14.3724 22.9353 14.0817 23.2265 13.7246 23.2265ZM14.3751 21.2445H11.8546C11.4967 21.2445 11.2055 20.9539 11.2055 20.5967C11.2055 20.2395 11.4967 19.9476 11.8546 19.9476C11.872 19.9476 11.889 19.9459 11.9057 19.9434C11.9392 19.9459 11.9728 19.9476 12.0069 19.9476H14.3751C14.733 19.9476 15.0242 20.2388 15.0242 20.5967C15.0242 20.9546 14.733 21.2445 14.3751 21.2445ZM15.1765 18.6161C15.1765 18.9732 14.8852 19.2639 14.5273 19.2639H12.0069C11.649 19.2639 11.3578 18.9733 11.3578 18.6161C11.3578 18.2588 11.649 17.9669 12.0069 17.9669H14.5273C14.8852 17.9669 15.1765 18.2582 15.1765 18.6161ZM18.0651 17.2832H12.0069C11.2719 17.2832 10.674 17.8811 10.674 18.6161C10.674 18.9736 10.816 19.2984 11.0464 19.5378C10.7278 19.7816 10.5217 20.1655 10.5217 20.5967C10.5217 20.9409 10.6531 21.255 10.8685 21.4916C10.5291 21.7334 10.3072 22.1299 10.3072 22.5774C10.3072 22.8129 10.3689 23.0343 10.4766 23.2265H8.54526C7.68462 23.2265 7.34995 22.8957 6.99555 22.5453C6.69902 22.2522 6.36294 21.9209 5.76601 21.9137V17.3427C6.26904 17.2397 6.43354 16.8887 6.5104 16.7244L6.51801 16.7082C6.95922 15.7742 7.41445 15.6261 7.81611 15.4954C8.21464 15.3657 8.71064 15.2043 8.70161 14.2801L8.69174 13.3567C8.69041 13.2286 8.6893 13.1388 8.68842 13.0873C8.68672 12.9853 8.68261 12.7474 8.66845 11.7418C8.66489 11.4954 8.87758 11.4375 9.05669 11.4322C9.6206 11.4159 10.4418 11.9423 10.4958 13.1656C10.5628 14.6533 10.5624 14.8347 10.5291 15.5702C10.4391 17.4908 9.6166 18.2741 7.68994 18.2741C7.50112 18.2741 7.34804 18.4272 7.34804 18.616C7.34804 18.8048 7.50112 18.9579 7.68994 18.9579C10.4442 18.9579 11.0489 17.3609 11.1846 15.9863H18.0652C18.4509 15.9863 18.5538 16.3939 18.5538 16.6347C18.5538 16.8754 18.4509 17.2831 18.0652 17.2831L18.0651 17.2832ZM3.70644 16.9801V18.1607C3.70644 18.3496 3.55337 18.5026 3.36455 18.5026C3.17573 18.5026 3.02265 18.3496 3.02265 18.1607V16.9801C3.02265 16.7913 3.17573 16.6382 3.36455 16.6382C3.55337 16.6382 3.70644 16.7913 3.70644 16.9801ZM15.3315 7.24009C15.3315 7.81558 15.6919 7.94058 16.5768 8.10693C17.3374 8.24995 18.3793 8.4458 18.3793 9.6457C18.3793 10.4007 17.7214 11.0305 16.8554 11.1639V11.7744C16.8554 11.9632 16.7023 12.1163 16.5135 12.1163C16.3247 12.1163 16.1716 11.9632 16.1716 11.7744V11.1639C15.3057 11.0305 14.6477 10.4007 14.6477 9.64565C14.6477 9.45684 14.8008 9.30376 14.9896 9.30376C15.1785 9.30376 15.3315 9.45684 15.3315 9.64565C15.3315 10.1204 15.8618 10.5065 16.5135 10.5065C17.1542 10.5065 17.6956 10.1123 17.6956 9.64565C17.6956 9.07021 17.3352 8.94522 16.4504 8.77886C15.6896 8.63579 14.6477 8.43994 14.6477 7.24004C14.6477 6.48501 15.3057 5.85522 16.1716 5.72183V5.10991C16.1716 4.92109 16.3247 4.76802 16.5135 4.76802C16.7023 4.76802 16.8554 4.92109 16.8554 5.10991V5.72183C17.7214 5.85522 18.3793 6.48501 18.3793 7.24004C18.3793 7.42886 18.2263 7.58193 18.0374 7.58193C17.8486 7.58193 17.6956 7.42886 17.6956 7.24004C17.6956 6.77339 17.1542 6.37915 16.5135 6.37915C15.8618 6.37915 15.3315 6.76538 15.3315 7.24009ZM22.3613 8.91421C22.4864 7.34443 21.9774 5.78584 20.9379 4.59087C19.824 3.31016 18.2113 2.57568 16.5135 2.57568C13.2776 2.57568 10.6449 5.20771 10.6449 8.44292C10.6449 11.6781 13.2776 14.3102 16.5135 14.3102C17.374 14.3102 18.2274 14.1198 19.0026 13.7574C19.567 14.7313 20.6201 15.3883 21.8244 15.3883C23.6217 15.3883 25.0839 13.9261 25.0839 12.1288C25.0839 10.5144 23.9039 9.17109 22.3613 8.91421ZM16.5135 13.6264C13.6546 13.6264 11.3287 11.3011 11.3287 8.44292C11.3287 5.58477 13.6546 3.25947 16.5135 3.25947C18.0134 3.25947 19.438 3.9083 20.4221 5.03965C21.3434 6.09878 21.7933 7.48135 21.6789 8.8729C19.9488 8.94932 18.5647 10.3802 18.5647 12.1288C18.5647 12.4791 18.6209 12.8164 18.7237 13.1329C18.036 13.4563 17.278 13.6263 16.5135 13.6263V13.6264ZM21.8244 14.7045C20.404 14.7045 19.2485 13.5491 19.2485 12.1288C19.2485 10.7084 20.404 9.55298 21.8244 9.55298C23.2447 9.55298 24.4001 10.7084 24.4001 12.1288C24.4001 13.5491 23.2447 14.7045 21.8244 14.7045ZM23.4755 11.0184C23.6057 11.1552 23.6002 11.3716 23.4634 11.5017L21.6239 13.2512C21.5578 13.3141 21.473 13.3454 21.3884 13.3454C21.3008 13.3454 21.2132 13.3119 21.1466 13.2453L20.1791 12.2778C20.0457 12.1443 20.0457 11.9278 20.1791 11.7943C20.3126 11.6608 20.5291 11.6608 20.6626 11.7943L21.3943 12.526L22.9922 11.0063C23.129 10.8762 23.3454 10.8815 23.4755 11.0184Z" fill="white"></path></g><defs><clipPath id="clip0_202_190"><rect width="25" height="25" fill="white" transform="translate(0.5 0.682129)"></rect></clipPath></defs></svg>
