<svg width="151" height="151" viewBox="0 0 151 151" fill="none" xmlns="http://www.w3.org/2000/svg">
<path d="M25.9862 86.5072C25.614 86.3135 25.4385 85.8675 25.5923 85.4657C25.758 85.0336 26.2421 84.8189 26.6731 84.9841C26.6845 84.9888 27.2188 85.1926 28.2107 85.5201C28.6441 85.6614 28.8889 86.1385 28.7426 86.5768C28.5972 87.0157 28.1247 87.2541 27.6853 87.1097C26.6338 86.7638 26.0724 86.547 26.0724 86.547C26.0441 86.5361 26.0149 86.5221 25.9862 86.5072Z" fill="white"/>
<path d="M27.1479 86.0513C27.2998 85.6145 27.7679 85.3675 28.2146 85.5245C28.6466 85.6613 28.8884 86.1393 28.7465 86.5812C28.5947 87.018 28.1217 87.2499 27.6897 87.1131C27.645 87.1024 27.5955 87.0767 27.5559 87.0561C27.1986 86.8701 27.0167 86.4484 27.1479 86.0513Z" fill="white"/>
<path d="M30.6938 88.0099C30.3473 87.8296 30.1702 87.4229 30.2813 87.0404C30.3395 86.8317 30.4822 86.6543 30.6776 86.5422C30.8741 86.4306 31.099 86.4093 31.3087 86.4681C32.3521 86.7595 33.4157 87.0363 34.4736 87.2975C34.9159 87.4145 35.1939 87.8736 35.076 88.3154C35.0649 88.3851 35.0438 88.4497 35.003 88.5039C34.8227 88.8504 34.4368 89.0143 34.0689 88.9235C32.9554 88.6459 31.8819 88.364 30.8635 88.073C30.8037 88.067 30.7542 88.0413 30.6938 88.0099ZM37.0926 89.5914C36.7561 89.4162 36.5824 89.0491 36.6633 88.6761C36.6734 88.6058 36.6954 88.5418 36.7263 88.4824C36.8967 88.1308 37.2789 87.9523 37.6519 88.0333C38.7522 88.2662 39.7859 88.4771 40.8309 88.6687C40.8418 88.6744 40.847 88.6645 40.8569 88.6696L40.8668 88.6748C41.3146 88.7569 41.6119 89.2009 41.5298 89.6488C41.5145 89.7289 41.4873 89.8028 41.4461 89.882C41.2761 90.2087 40.9189 90.3876 40.5506 90.3217C39.441 90.1091 38.3465 89.8917 37.3019 89.6751C37.2265 89.6485 37.1619 89.6274 37.0926 89.5914ZM43.5657 90.7838C43.2499 90.6195 43.0659 90.2721 43.1256 89.9132C43.1381 89.8191 43.1736 89.7244 43.2199 89.6353C43.3796 89.3284 43.7327 89.1599 44.0812 89.2155C45.1308 89.3718 46.2224 89.5247 47.3082 89.6621C47.7616 89.7094 48.0989 90.149 48.0417 90.5973C48.0302 90.6919 48.0036 90.7913 47.9572 90.8804C47.7975 91.1873 47.4553 91.3614 47.1116 91.3209C45.9868 91.1884 44.8764 91.0257 43.8248 90.8684C43.7292 90.8563 43.6449 90.825 43.5657 90.7838ZM50.0919 91.5888C49.795 91.4343 49.6105 91.1119 49.651 90.7681C49.6578 90.6584 49.6895 90.5491 49.741 90.4502C49.9055 90.1583 50.2227 89.9838 50.5566 90.0192C51.6131 90.1161 52.7148 90.1989 53.8066 90.2765C54.2703 90.3039 54.623 90.7139 54.5908 91.1626C54.584 91.2723 54.5612 91.3862 54.5097 91.4852C54.3551 91.7822 54.0426 91.9718 53.7036 91.9463C52.6316 91.879 51.5201 91.7911 50.3948 91.6836C50.2903 91.6669 50.1899 91.6398 50.0919 91.5888ZM56.6523 92.009C56.3762 91.8653 56.1955 91.5574 56.2055 91.2482C56.2127 91.1135 56.2396 90.9892 56.3072 90.886C56.4566 90.5989 56.7479 90.4234 57.0681 90.4391C58.1296 90.4758 59.2123 90.4983 60.2964 90.4964L60.3463 90.4972C60.7943 90.504 61.1673 90.8993 61.1661 91.339C61.1688 91.4788 61.1316 91.6229 61.0599 91.7366C60.9208 92.0038 60.6336 92.1689 60.3291 92.1739C59.2511 92.1664 58.1435 92.1435 57.016 92.1103C56.8913 92.1082 56.7721 92.0714 56.6523 92.009ZM63.2311 92.0363C62.9638 91.8972 62.7936 91.6199 62.7834 91.3253C62.7807 91.1855 62.8029 91.0461 62.8699 90.9174C63.0141 90.6403 63.2914 90.4701 63.5959 90.465C64.7355 90.4291 65.8043 90.3815 66.8524 90.3231C67.2971 90.2904 67.7105 90.6565 67.7432 91.1012C67.7507 91.256 67.7082 91.4101 67.6413 91.5388C67.5022 91.806 67.2499 91.9766 66.9562 91.9873C65.8511 92.0538 64.7324 92.1005 63.6447 92.1383C63.494 92.1354 63.3598 92.1032 63.2311 92.0363ZM69.7955 91.6535C69.5372 91.5191 69.3676 91.2673 69.3512 90.982C69.3339 90.822 69.3616 90.6478 69.4498 90.505C69.5786 90.2575 69.8257 90.0968 70.1057 90.0664C71.1843 89.9736 72.2803 89.8521 73.3456 89.7146C73.7856 89.6668 74.2243 90.0084 74.2772 90.4384C74.2993 90.6135 74.2767 90.7778 74.1994 90.9263C74.0707 91.1738 73.8334 91.3396 73.5483 91.3799C72.499 91.5132 71.418 91.6299 70.2533 91.7408C70.0985 91.7483 69.9341 91.7256 69.7955 91.6535ZM76.3174 90.8209C76.0798 90.6972 75.9187 90.475 75.877 90.2143C75.845 90.0341 75.8789 89.8505 75.9613 89.6921C76.085 89.4546 76.3062 89.2929 76.5674 89.2527C77.6632 89.0808 78.7444 88.8887 79.7709 88.6808C80.2075 88.5935 80.6767 88.9006 80.7645 89.3362C80.8003 89.531 80.7731 89.7307 80.6756 89.8938C80.5571 90.1214 80.349 90.2773 80.0997 90.3237C79.0222 90.5303 77.926 90.7272 76.8401 90.9042C76.6589 90.9357 76.4757 90.9033 76.3174 90.8209ZM82.7665 89.5478C82.5487 89.4345 82.3872 89.2372 82.3362 88.9968C82.2953 88.812 82.3125 88.6072 82.4001 88.4389C82.5186 88.2112 82.7159 88.0497 82.9614 87.9888C83.9894 87.7564 85.0359 87.4834 86.0736 87.2057L86.1187 87.1915L86.234 87.1634L86.2288 87.1733C86.6339 87.12 87.0328 87.3905 87.1464 87.7766C87.193 87.977 87.1696 88.1912 87.0816 88.3845C86.9734 88.5923 86.7813 88.7439 86.5556 88.8152C85.5179 89.0928 84.4304 89.3697 83.3432 89.6216C83.1428 89.6682 82.9437 89.64 82.7665 89.5478ZM89.0981 87.8237C88.9001 87.7207 88.7523 87.5431 88.692 87.323C88.6255 87.1123 88.639 86.8929 88.7472 86.685C88.8502 86.4871 89.0273 86.3402 89.238 86.2738C90.3616 85.9276 91.3704 85.5846 92.3241 85.2507C92.7407 85.1027 93.246 85.3405 93.3939 85.7571C93.4703 85.973 93.4512 86.2272 93.343 86.4351C93.2503 86.6133 93.0883 86.7554 92.8875 86.827C91.8534 87.1946 90.7896 87.5467 89.7361 87.879C89.5254 87.9454 89.2961 87.9267 89.0981 87.8237ZM95.2877 85.6231C95.1096 85.5304 94.9773 85.3735 94.9006 85.1826C94.8143 84.9616 94.8287 84.6923 94.942 84.4746C95.0395 84.3114 95.1864 84.1741 95.3722 84.1072C96.3558 83.7134 97.3559 83.2904 98.3663 82.8476C98.7734 82.6695 99.2894 82.8625 99.4674 83.2697C99.5745 83.5015 99.5643 83.7604 99.4609 83.9833C99.3681 84.1615 99.2212 84.2988 99.0453 84.3709C98.0801 84.7994 97.0509 85.2324 95.9859 85.6594L95.9647 85.6735C95.7399 85.7452 95.5055 85.7365 95.2877 85.6231ZM101.299 82.965C101.141 82.8825 101.018 82.7558 100.942 82.5903C100.826 82.3539 100.819 82.0738 100.943 81.8362C101.025 81.6778 101.153 81.5556 101.323 81.468C102.249 81.0189 103.225 80.5206 104.207 79.9875C104.605 79.7793 105.132 79.9276 105.34 80.3253C105.475 80.572 105.476 80.8615 105.347 81.109C105.27 81.2575 105.153 81.3853 105.002 81.4578C104.06 81.9616 103.074 82.4796 102.048 82.9771C101.811 83.093 101.538 83.0891 101.299 82.965ZM107.085 79.85C106.946 79.7773 106.832 79.6807 106.755 79.5397C106.6 79.2831 106.595 78.9786 106.734 78.7113C106.811 78.5878 106.923 78.4698 107.049 78.397C108.032 77.814 108.933 77.2641 109.822 76.695C110.199 76.4511 110.732 76.565 110.975 76.9433C111.136 77.1905 111.151 77.5002 111.027 77.7627C110.97 77.8716 110.894 77.9702 110.803 78.0485L110.722 78.1071C110.707 78.1119 110.686 78.126 110.672 78.1313C109.765 78.716 108.821 79.2941 107.899 79.8332C107.647 79.9789 107.343 79.9839 107.085 79.85ZM112.622 76.3157C112.503 76.2538 112.401 76.1628 112.316 76.0562C112.136 75.7987 112.116 75.474 112.261 75.1968C112.322 75.078 112.414 74.9747 112.525 74.8817C113.429 74.2575 114.312 73.6229 115.162 72.9834C115.526 72.7198 116.069 72.7884 116.332 73.1521C116.538 73.4099 116.562 73.7497 116.413 74.0368C116.351 74.1556 116.275 74.2542 116.174 74.3274C115.255 75.0068 114.401 75.6313 113.558 76.2115L113.482 76.2602C113.225 76.4407 112.9 76.4604 112.622 76.3157ZM117.867 72.3784C117.768 72.3269 117.68 72.2555 117.616 72.1597C117.402 71.8972 117.362 71.5367 117.516 71.2397C117.579 71.1464 117.649 71.0572 117.735 70.9887C118.595 70.2789 119.435 69.5838 120.225 68.8879C120.563 68.5984 121.112 68.6328 121.41 68.9765C121.631 69.2296 121.68 69.5947 121.525 69.8917C121.474 69.9907 121.412 70.0845 121.326 70.153C120.471 70.9028 119.611 71.6125 118.781 72.2879C118.524 72.4938 118.163 72.5324 117.867 72.3784ZM122.828 68.0666C122.749 68.0254 122.665 67.9692 122.601 67.8982C122.361 67.6348 122.307 67.2546 122.467 66.9478C122.513 66.8587 122.565 66.7846 122.641 66.711C123.456 65.9656 124.242 65.2047 124.988 64.4482C125.303 64.1338 125.848 64.1282 126.166 64.4573C126.426 64.706 126.49 65.1163 126.325 65.4331C126.284 65.5123 126.227 65.5708 126.167 65.6402C125.406 66.4014 124.6 67.177 123.789 67.9374C123.525 68.1777 123.145 68.2315 122.828 68.0666Z" fill="white"/>
<path d="M127.486 63.4186C127.421 63.3846 127.358 63.3407 127.301 63.2868C126.964 62.9719 126.946 62.4416 127.261 62.1038C127.638 61.7012 128.013 61.295 128.388 60.8823C128.698 60.5409 129.233 60.5172 129.569 60.8256C129.912 61.1361 129.939 61.6656 129.627 62.0079C129.247 62.4265 128.866 62.8395 128.484 63.2471C128.222 63.5284 127.811 63.5876 127.486 63.4186Z" fill="white"/>
<path d="M30.4633 95.489C30.3436 95.4267 30.2357 95.3341 30.1554 95.213L23.9864 86.0034C23.8495 85.8 23.8102 85.5444 23.8774 85.3089C23.9441 85.0719 24.1135 84.877 24.3372 84.7758L34.1984 80.3183C34.6202 80.129 35.1153 80.3137 35.3061 80.7376C35.4959 81.1584 35.3092 81.655 34.8884 81.8448L25.9277 85.8941L31.5474 94.2833C31.8043 94.6673 31.7015 95.1862 31.318 95.4445C31.0532 95.6174 30.7256 95.6255 30.4633 95.489Z" fill="white"/>
</svg>
