<svg xmlns="http://www.w3.org/2000/svg" width="36" height="36" viewBox="0 0 36 36" fill="none"><g clip-path="url(#clip0_313_48)"><path d="M29.1374 28.9125L28.6874 29.25C28.1933 29.6113 27.595 29.8018 26.983 29.7928L26.9268 29.556L29.2392 27.2435C29.5821 27.4503 29.9745 27.5605 30.3749 27.5625C30.9716 27.5625 31.5439 27.3254 31.9659 26.9035C32.3878 26.4815 32.6249 25.9092 32.6249 25.3125C32.6229 24.9121 32.5127 24.5197 32.3059 24.1768L34.1476 22.3352C34.253 22.2297 34.3123 22.0866 34.3123 21.9375C34.3123 21.7883 34.253 21.6453 34.1476 21.5398L31.8976 19.2898C31.7921 19.1843 31.649 19.1251 31.4999 19.1251C31.3507 19.1251 31.2077 19.1843 31.1022 19.2898L29.5795 20.8125H27.5624C27.4132 20.8125 27.2702 20.8718 27.1647 20.9773L25.3388 22.8032L24.634 19.8073L26.1792 20.4969C26.2514 20.5291 26.3296 20.5458 26.4087 20.5458C26.4877 20.5458 26.5659 20.5291 26.6381 20.4968C26.7103 20.4645 26.7749 20.4174 26.8276 20.3585C26.8803 20.2996 26.9201 20.2302 26.9442 20.1549L27.9432 17.0302C27.9855 16.8977 27.9772 16.7543 27.92 16.6276C27.8628 16.5008 27.7606 16.3998 27.6333 16.344L23.3813 14.4832L21.9284 8.30865C21.9112 8.23567 21.8797 8.16685 21.8355 8.10624C21.7914 8.04563 21.7356 7.99446 21.6714 7.95573C21.6072 7.91701 21.5359 7.8915 21.4617 7.88072C21.3875 7.86994 21.3119 7.8741 21.2393 7.89296L16.8844 9.02809C16.7419 9.06502 16.6194 9.15641 16.5435 9.28263C16.4676 9.40884 16.4442 9.55981 16.4783 9.70309L16.9401 11.6668L12.1741 9.58103C12.0625 9.53213 11.9381 9.52078 11.8195 9.54867C11.7009 9.57657 11.5946 9.6422 11.5165 9.73571L0.692885 22.6805C0.603606 22.7874 0.557121 22.9235 0.56242 23.0626C0.567719 23.2018 0.624426 23.334 0.721573 23.4337L3.0087 25.7855C3.06119 25.8391 3.12386 25.8816 3.19303 25.9106C3.26219 25.9396 3.33646 25.9544 3.41145 25.9543H3.43451C3.51369 25.9511 3.59131 25.9312 3.66226 25.8959C3.73322 25.8606 3.79592 25.8107 3.84626 25.7495L4.92232 24.4428L5.84876 28.3803C5.2332 28.1626 4.57412 28.0969 3.9277 28.1889C3.28127 28.2808 2.66667 28.5277 2.13626 28.9085L0.787385 29.925L1.46239 30.825L2.81239 29.8125C3.30385 29.4585 3.8942 29.268 4.49989 29.268C5.10557 29.268 5.69592 29.4585 6.18739 29.8125L6.63739 30.15C7.3256 30.6452 8.15202 30.9116 8.99989 30.9116C9.84774 30.9116 10.6742 30.6452 11.3624 30.15L11.8124 29.8125C12.3039 29.4585 12.8942 29.268 13.4999 29.268C14.1056 29.268 14.6959 29.4585 15.1874 29.8125L15.6374 30.15C16.3256 30.6452 17.152 30.9116 17.9999 30.9116C18.8477 30.9116 19.6742 30.6452 20.3624 30.15L20.8124 29.8125C21.3039 29.4585 21.8942 29.268 22.4999 29.268C23.1056 29.268 23.6959 29.4585 24.1874 29.8125L24.6374 30.15C25.319 30.6611 26.1479 30.9375 26.9999 30.9375C27.8518 30.9375 28.6808 30.6611 29.3624 30.15L29.8124 29.8125C30.304 29.4588 30.8943 29.2685 31.4999 29.2685C32.1055 29.2685 32.6958 29.4588 33.1874 29.8125L34.5374 30.825L35.2124 29.925L33.8624 28.9125C33.1742 28.4173 32.3477 28.1508 31.4999 28.1508C30.652 28.1508 29.8256 28.4173 29.1374 28.9125ZM30.3749 26.4375C30.1524 26.4375 29.9349 26.3715 29.7499 26.2479C29.5649 26.1243 29.4207 25.9485 29.3355 25.743C29.2504 25.5374 29.2281 25.3112 29.2715 25.093C29.3149 24.8748 29.4221 24.6743 29.5794 24.517C29.7367 24.3596 29.9372 24.2525 30.1554 24.2091C30.3736 24.1657 30.5998 24.188 30.8054 24.2731C31.011 24.3582 31.1867 24.5024 31.3103 24.6874C31.4339 24.8725 31.4999 25.09 31.4999 25.3125C31.4999 25.6108 31.3814 25.897 31.1704 26.108C30.9594 26.3189 30.6733 26.4375 30.3749 26.4375ZM27.7953 21.9375H29.8124C29.9616 21.9374 30.1046 21.8781 30.2101 21.7727L31.4999 20.4828L32.9545 21.9375L31.5106 23.3814C31.1677 23.1746 30.7753 23.0644 30.3749 23.0625C29.7781 23.0625 29.2059 23.2995 28.7839 23.7215C28.3619 24.1434 28.1249 24.7157 28.1249 25.3125C28.1268 25.7129 28.237 26.1053 28.4438 26.4482L26.6241 28.2678L25.6414 24.0913L27.7953 21.9375ZM17.6995 9.97815L20.9648 9.12709L22.0926 13.9196L18.2283 12.2282L17.6995 9.97815ZM3.37489 24.5508L1.88201 23.013L12.1088 10.7786L26.7186 17.1708L26.0661 19.2133L13.0791 13.4139C12.9666 13.3635 12.8407 13.3514 12.7207 13.3796C12.6006 13.4077 12.4932 13.4745 12.4148 13.5697L3.37489 24.5508ZM12.7433 28.2273L11.881 24.5559C11.6964 23.7803 11.794 22.9644 12.1563 22.2542C12.5186 21.544 13.1219 20.9861 13.8582 20.6803L15.7836 28.8647C15.3446 28.5625 14.8499 28.3506 14.3283 28.2411C13.8066 28.1317 13.2685 28.127 12.745 28.2273H12.7433ZM17.1269 29.6617L14.9539 20.4187C15.7487 20.3679 16.5358 20.5998 17.176 21.0733C17.8163 21.5468 18.2685 22.2315 18.4527 23.0062L19.846 29.1307L19.6874 29.25C19.3223 29.513 18.9009 29.6871 18.4567 29.7586C18.0125 29.8301 17.5577 29.7969 17.1286 29.6617H17.1269ZM24.8624 28.9125C24.288 28.5013 23.6163 28.2474 22.9136 28.1758C22.2109 28.1041 21.5017 28.2173 20.8563 28.5041L19.5484 22.7525C19.2751 21.5908 18.5515 20.5851 17.5368 19.9569C16.522 19.3287 15.2993 19.1293 14.1375 19.4026C12.9757 19.6759 11.9701 20.3995 11.3418 21.4142C10.7136 22.429 10.5142 23.6518 10.7875 24.8135L11.6723 28.5823C11.4849 28.6772 11.3061 28.7882 11.1379 28.9142L10.6874 29.25C10.1959 29.604 9.60557 29.7944 8.99989 29.7944C8.3942 29.7944 7.80385 29.604 7.31239 29.25L7.18582 29.1555L5.8212 23.3516L13.0116 14.6154L23.3425 19.2279L25.7613 29.5127C25.6033 29.4402 25.4529 29.3522 25.3124 29.25L24.8624 28.9125Z" fill="white"></path><path d="M29.1376 33.4125L28.6876 33.75C28.1961 34.104 27.6058 34.2944 27.0001 34.2944C26.3944 34.2944 25.8041 34.104 25.3126 33.75L24.8626 33.4125C24.1744 32.9173 23.348 32.6508 22.5001 32.6508C21.6522 32.6508 20.8258 32.9173 20.1376 33.4125L19.6876 33.75C19.1961 34.104 18.6058 34.2944 18.0001 34.2944C17.3944 34.2944 16.8041 34.104 16.3126 33.75L15.8626 33.4125C15.1744 32.9173 14.348 32.6508 13.5001 32.6508C12.6522 32.6508 11.8258 32.9173 11.1376 33.4125L10.6876 33.75C10.1961 34.104 9.60578 34.2944 9.0001 34.2944C8.39441 34.2944 7.80407 34.104 7.3126 33.75L6.8626 33.4125C6.17452 32.9169 5.34804 32.6503 4.5001 32.6503C3.65216 32.6503 2.82568 32.9169 2.1376 33.4125L0.787598 34.425L1.4626 35.325L2.8126 34.3125C3.30407 33.9585 3.89441 33.768 4.5001 33.768C5.10578 33.768 5.69613 33.9585 6.1876 34.3125L6.6376 34.65C7.32581 35.1452 8.15224 35.4116 9.0001 35.4116C9.84796 35.4116 10.6744 35.1452 11.3626 34.65L11.8126 34.3125C12.3041 33.9585 12.8944 33.768 13.5001 33.768C14.1058 33.768 14.6961 33.9585 15.1876 34.3125L15.6376 34.65C16.3258 35.1452 17.1522 35.4116 18.0001 35.4116C18.848 35.4116 19.6744 35.1452 20.3626 34.65L20.8126 34.3125C21.3041 33.9585 21.8944 33.768 22.5001 33.768C23.1058 33.768 23.6961 33.9585 24.1876 34.3125L24.6376 34.65C25.3192 35.1611 26.1481 35.4375 27.0001 35.4375C27.8521 35.4375 28.681 35.1611 29.3626 34.65L29.8126 34.3125C30.3042 33.9588 30.8945 33.7685 31.5001 33.7685C32.1057 33.7685 32.696 33.9588 33.1876 34.3125L34.5376 35.325L35.2126 34.425L33.8626 33.4125C33.1744 32.9173 32.348 32.6508 31.5001 32.6508C30.6522 32.6508 29.8258 32.9173 29.1376 33.4125Z" fill="white"></path><path d="M33.7371 4.17428C33.6581 3.20938 33.2264 2.3074 32.5244 1.64065C31.8225 0.973905 30.8995 0.58913 29.9319 0.559834C28.9642 0.530538 28.0196 0.858774 27.2786 1.48184C26.5376 2.1049 26.0522 2.97911 25.9149 3.93747H25.875C25.4541 3.93717 25.0386 4.03134 24.6589 4.21303C24.2793 4.39471 23.9453 4.65929 23.6815 4.98725C23.4177 5.3152 23.2309 5.69818 23.1348 6.10794C23.0387 6.51771 23.0358 6.94381 23.1264 7.35484C23.2169 7.76586 23.3985 8.15134 23.6578 8.48284C23.9171 8.81434 24.2475 9.08341 24.6247 9.27022C25.0018 9.45704 25.4161 9.55683 25.8369 9.56223C26.2578 9.56764 26.6744 9.47853 27.0563 9.30147C27.6636 9.83268 28.4431 10.1255 29.25 10.1255C30.0569 10.1255 30.8364 9.83268 31.4438 9.30147C31.781 9.4557 32.1453 9.54164 32.5159 9.55432C32.8865 9.56701 33.2559 9.50619 33.6029 9.37538C33.9498 9.24456 34.2674 9.04634 34.5374 8.79216C34.8073 8.53797 35.0243 8.23284 35.1757 7.89438C35.3271 7.55592 35.41 7.19083 35.4196 6.82016C35.4292 6.4495 35.3653 6.0806 35.2317 5.73475C35.098 5.3889 34.8971 5.07295 34.6407 4.80512C34.3843 4.53729 34.0768 4.32289 33.7371 4.17428ZM32.625 8.43747C32.2834 8.43745 31.9499 8.33346 31.6688 8.13934C31.5555 8.06134 31.4176 8.02754 31.2811 8.04433C31.1446 8.06112 31.0189 8.12734 30.928 8.23047C30.7198 8.47188 30.4621 8.66558 30.1724 8.79836C29.8826 8.93113 29.5676 8.99987 29.2489 8.99987C28.9302 8.99987 28.6152 8.93113 28.3254 8.79836C28.0357 8.66558 27.7779 8.47188 27.5698 8.23047C27.4789 8.12793 27.3538 8.0621 27.2178 8.04532C27.0818 8.02854 26.9443 8.06197 26.8313 8.13934C26.598 8.30628 26.3262 8.41136 26.0412 8.44476C25.7563 8.47815 25.4676 8.43878 25.202 8.33031C24.9364 8.22184 24.7027 8.04782 24.5226 7.82451C24.3425 7.60119 24.222 7.33587 24.1723 7.05334C24.1226 6.77081 24.1453 6.48029 24.2383 6.20891C24.3313 5.93754 24.4916 5.69418 24.7042 5.50157C24.9168 5.30896 25.1748 5.17339 25.454 5.10752C25.7332 5.04165 26.0246 5.04763 26.3008 5.1249C26.3849 5.14683 26.473 5.14896 26.5581 5.13113C26.6431 5.1133 26.7229 5.076 26.7912 5.02216C26.8594 4.96831 26.9142 4.89938 26.9513 4.82079C26.9884 4.74219 27.0068 4.65606 27.0051 4.56915L27 4.49997C27.0006 3.75405 27.2975 3.03891 27.8254 2.51189C28.3532 1.98486 29.0688 1.68912 29.8148 1.68972C30.5607 1.69031 31.2758 1.9872 31.8028 2.51507C32.3299 3.04294 32.6256 3.75855 32.625 4.50447L32.6216 4.5669C32.619 4.69367 32.6594 4.8176 32.736 4.91858C32.8127 5.01956 32.9213 5.09167 33.0441 5.12322C33.4421 5.22426 33.7894 5.46734 34.0207 5.80667C34.252 6.14601 34.3512 6.55819 34.2997 6.9656C34.2482 7.373 34.0495 7.74751 33.741 8.01861C33.4326 8.2897 33.0357 8.43867 32.625 8.43747Z" fill="white"></path><path d="M32.625 10.6875H33.75V12.9375H32.625V10.6875Z" fill="white"></path><path d="M30.375 12.9375H31.5V15.1875H30.375V12.9375Z" fill="white"></path><path d="M27.5625 11.8125H28.6875V14.0625H27.5625V11.8125Z" fill="white"></path><path d="M24.75 10.6875H25.875V12.9375H24.75V10.6875Z" fill="white"></path><path d="M14.625 3.37497H15.75V5.62497H14.625V3.37497Z" fill="white"></path><path d="M17.4375 1.68747H18.5625V3.93747H17.4375V1.68747Z" fill="white"></path><path d="M20.25 3.37497H21.375V5.62497H20.25V3.37497Z" fill="white"></path><path d="M8.94384 9.30147C9.32566 9.47853 9.74235 9.56765 10.1632 9.56224C10.584 9.55683 10.9983 9.45704 11.3754 9.27023C11.7526 9.08342 12.083 8.81434 12.3423 8.48284C12.6016 8.15134 12.7832 7.76587 12.8737 7.35484C12.9643 6.94382 12.9614 6.51771 12.8653 6.10795C12.7692 5.69819 12.5824 5.31521 12.3186 4.98725C12.0548 4.6593 11.7208 4.39472 11.3412 4.21303C10.9615 4.03135 10.546 3.93718 10.1251 3.93747H10.0852C9.94799 2.97912 9.46257 2.1049 8.72164 1.4818C7.9807 0.858695 7.03617 0.530401 6.0685 0.559627C5.10083 0.588853 4.17784 0.973552 3.47585 1.64023C2.77387 2.30691 2.3421 3.20884 2.26303 4.17372C1.58304 4.47784 1.05172 5.03961 0.78594 5.73547C0.52016 6.43133 0.541695 7.20427 0.845807 7.88425C1.14992 8.56424 1.7117 9.09556 2.40756 9.36134C3.10342 9.62712 3.87636 9.60558 4.55634 9.30147C5.16371 9.83268 5.94319 10.1255 6.75009 10.1255C7.55698 10.1255 8.33647 9.83268 8.94384 9.30147ZM4.64915 8.04035C4.53527 8.0403 4.42405 8.07482 4.33021 8.13935C4.12764 8.2794 3.89682 8.3733 3.65401 8.41444C3.4112 8.45557 3.16232 8.44294 2.92493 8.37743C2.68753 8.31191 2.4674 8.19512 2.28005 8.03527C2.09271 7.87543 1.94271 7.67643 1.84064 7.45231C1.73857 7.22819 1.68691 6.98441 1.68931 6.73815C1.6917 6.49189 1.7481 6.24916 1.85451 6.02707C1.96092 5.80497 2.11476 5.60893 2.30518 5.45276C2.4956 5.2966 2.71796 5.1841 2.95659 5.12322C3.0794 5.09168 3.18794 5.01957 3.26462 4.91859C3.3413 4.8176 3.38162 4.69368 3.37903 4.56691L3.37509 4.49997C3.37598 3.75405 3.67316 3.03904 4.20124 2.51222C4.72932 1.98541 5.44504 1.68995 6.19096 1.69085C6.93688 1.69174 7.6519 1.98892 8.17871 2.517C8.70553 3.04508 9.00098 3.7608 9.00009 4.50672L8.99671 4.56916C8.99495 4.65606 9.01334 4.74219 9.05046 4.82079C9.08758 4.89939 9.1424 4.96832 9.21064 5.02216C9.27887 5.07601 9.35866 5.11331 9.44373 5.13114C9.5288 5.14896 9.61685 5.14683 9.70096 5.12491C9.83908 5.08599 9.98162 5.06501 10.1251 5.06247C10.3897 5.06224 10.6506 5.12423 10.8869 5.24344C11.1231 5.36265 11.328 5.53574 11.485 5.74874C11.642 5.96173 11.7467 6.20866 11.7906 6.46958C11.8346 6.73051 11.8166 6.99811 11.7381 7.25079C11.6595 7.50347 11.5227 7.73415 11.3386 7.92419C11.1544 8.11422 10.9282 8.2583 10.6782 8.34479C10.4281 8.43127 10.1612 8.45774 9.899 8.42205C9.63681 8.38637 9.38669 8.28952 9.16884 8.13935C9.05557 8.06135 8.91764 8.02755 8.78114 8.04434C8.64464 8.06113 8.51902 8.12735 8.42803 8.23047C8.21992 8.47189 7.9622 8.66559 7.67244 8.79836C7.38268 8.93114 7.0677 8.99987 6.74896 8.99987C6.43023 8.99987 6.11525 8.93114 5.82549 8.79836C5.53573 8.66559 5.27801 8.47189 5.0699 8.23047C5.01721 8.17082 4.95246 8.12303 4.87993 8.09025C4.8074 8.05748 4.72874 8.04047 4.64915 8.04035Z" fill="white"></path><path d="M2.25 10.6875H3.375V12.9375H2.25V10.6875Z" fill="white"></path><path d="M5.0625 11.8125H6.1875V14.0625H5.0625V11.8125Z" fill="white"></path><path d="M33.75 14.625H34.875V16.875H33.75V14.625Z" fill="white"></path></g><defs><clipPath id="clip0_313_48"><rect width="36" height="36" fill="white"></rect></clipPath></defs></svg>
