<svg xmlns="http://www.w3.org/2000/svg" width="37" height="37" viewBox="0 0 37 37" fill="none">
  <g clip-path="url(#clip0_202_149)">
    <path d="M24.3525 14.4226H25.4775V13.216C26.1272 13.0102 26.6025 12.4089 26.6025 11.6922C26.6025 11.0802 26.2628 10.5301 25.7149 10.2562L24.6186 9.70773C24.4544 9.62617 24.3525 9.46136 24.3525 9.27798C24.3525 9.01305 24.5685 8.79761 24.8329 8.79761H24.9966C25.2615 8.79761 25.4775 9.01305 25.4775 9.27798V9.36011H26.6025V9.27798C26.6025 8.56136 26.1272 7.96005 25.4775 7.75417V6.54761H24.3525V7.75417C23.7029 7.96005 23.2275 8.56136 23.2275 9.27798C23.2275 9.88998 23.5673 10.4401 24.1152 10.714L25.2115 11.2625C25.3757 11.344 25.4775 11.5089 25.4775 11.6922C25.4775 11.9572 25.2615 12.1726 24.9972 12.1726H24.8335C24.5685 12.1726 24.3525 11.9572 24.3525 11.6922V11.0476H23.2275V11.6922C23.2275 12.4089 23.7029 13.0102 24.3525 13.216V14.4226Z" fill="white"></path>
    <path d="M24.915 17.2351C25.3735 17.2351 25.8195 17.1541 26.2414 16.9949C29.4674 15.7788 31.1025 14.5351 31.1025 13.2976C31.1025 11.5791 30.0147 5.57671 29.968 5.3219L29.8847 4.86009H28.6309C27.4154 4.86009 26.2386 4.50402 25.2272 3.82959L24.915 3.62146L24.6029 3.82959C23.5915 4.50402 22.4153 4.86009 21.1997 4.86009H19.9459L19.8627 5.3219C19.8154 5.57671 18.7275 11.5791 18.7275 13.2976C18.7275 14.5351 20.3627 15.7788 23.5881 16.9949C24.0105 17.1541 24.4566 17.2351 24.915 17.2351ZM19.8525 13.2976C19.8525 11.9425 20.6277 7.44533 20.8859 5.98509H21.1997C22.5143 5.98509 23.7912 5.63296 24.915 4.96246C26.0389 5.63296 27.3158 5.98509 28.6304 5.98509H28.9442C29.2024 7.44533 29.9775 11.9425 29.9775 13.2976C29.9775 13.8207 28.6844 14.8715 25.8443 15.9425C25.2554 16.1652 24.5747 16.1652 23.9847 15.9425C21.1457 14.8715 19.8525 13.8207 19.8525 13.2976Z" fill="white"></path>
    <path d="M33.915 18.3601H28.7991C31.8912 16.9161 33.3525 15.2855 33.3525 13.2976C33.3525 11.4498 32.3777 5.99464 32.182 4.91914L31.7618 2.61008H29.6805C28.1219 2.61008 26.5609 2.24164 25.167 1.54414L24.915 1.4187L24.6636 1.5447C23.2692 2.24164 21.7082 2.61008 20.1495 2.61008H18.0683L17.6481 4.9197C17.4524 5.99464 16.4775 11.4498 16.4775 13.2976C16.4775 15.2855 17.9389 16.9167 21.031 18.3601H15.915C14.9847 18.3601 14.2275 19.1172 14.2275 20.0476V20.6101H8.60254V14.9851C8.60254 14.3646 9.1071 13.8601 9.72754 13.8601C10.348 13.8601 10.8525 14.3646 10.8525 14.9851H11.9775C11.9775 14.3646 12.4821 13.8601 13.1025 13.8601C13.723 13.8601 14.2275 14.3646 14.2275 14.9851H15.3525V12.7351C15.3525 8.70308 12.072 5.42258 8.04004 5.42258C4.00804 5.42258 0.727539 8.70308 0.727539 12.7351V14.9851H1.85254C1.85254 14.3646 2.3571 13.8601 2.97754 13.8601C3.59798 13.8601 4.10254 14.3646 4.10254 14.9851H5.22754C5.22754 14.3646 5.7321 13.8601 6.35254 13.8601C6.97298 13.8601 7.47754 14.3646 7.47754 14.9851V20.6101H2.41504C1.48466 20.6101 0.727539 21.3672 0.727539 22.2976V23.4226C0.727539 24.155 1.19948 24.7737 1.85254 25.0066V36.3601H34.4775V22.7566C35.1306 22.5237 35.6025 21.905 35.6025 21.1726V20.0476C35.6025 19.1172 34.8454 18.3601 33.915 18.3601ZM17.6025 13.2976C17.6025 11.9397 18.2235 8.04439 18.7545 5.12108L19.0065 3.73508H20.1495C21.7887 3.73508 23.43 3.36833 24.915 2.67251C26.4 3.36833 28.0414 3.73508 29.6805 3.73508H30.8235L31.0755 5.12051C31.6065 8.04439 32.2275 11.9397 32.2275 13.2976C32.2275 15.1015 30.4517 16.6107 26.6374 18.0479C25.5411 18.4619 24.289 18.4619 23.1904 18.0473C19.3784 16.6107 17.6025 15.1015 17.6025 13.2976ZM14.2275 12.7351V13.0371C13.8962 12.8448 13.512 12.7351 13.1025 12.7351C12.6672 12.7351 12.2639 12.865 11.919 13.0799C11.6625 9.92595 10.5415 7.90939 9.6201 6.75964C12.2678 7.46108 14.2275 9.87026 14.2275 12.7351ZM2.97754 12.7351C2.56804 12.7351 2.18385 12.8448 1.85254 13.0371V12.7351C1.85254 9.87026 3.81229 7.46108 6.45998 6.75964C5.5386 7.90883 4.41754 9.92595 4.16104 13.0799C3.81623 12.865 3.41291 12.7351 2.97754 12.7351ZM6.35254 12.7351C5.96948 12.7351 5.61454 12.8403 5.29841 13.0096C5.64829 9.22901 7.32904 7.34014 8.04004 6.7062C8.75104 7.3407 10.4318 9.22901 10.7817 13.0096C10.4655 12.8403 10.1106 12.7351 9.72754 12.7351C9.05198 12.7351 8.45291 13.04 8.04004 13.5125C7.62716 13.04 7.0281 12.7351 6.35254 12.7351ZM11.9775 31.8601H15.3525V35.2351H11.9775V31.8601ZM10.8525 35.2351H7.47754V31.8601H10.8525V35.2351ZM15.3525 28.4851H5.79004V27.3601H15.3525V28.4851ZM1.85254 22.2976C1.85254 21.9876 2.10454 21.7351 2.41504 21.7351H14.331C14.5009 22.2115 14.8761 22.5867 15.3525 22.7566V23.9851H2.41504C2.10454 23.9851 1.85254 23.7325 1.85254 23.4226V22.2976ZM2.97754 25.1101H15.3525V26.2351H4.66504V29.6101H15.3525V30.7351H6.35254V35.2351H2.97754V25.1101ZM28.8525 35.2351H25.4775V29.6101H28.8525V35.2351ZM24.3525 35.2351H20.9775V29.6101H24.3525V35.2351ZM29.9775 35.2351V28.4851H19.8525V35.2351H16.4775V22.8601H33.3525V35.2351H29.9775ZM34.4775 21.1726C34.4775 21.4825 34.2255 21.7351 33.915 21.7351H15.915C15.6045 21.7351 15.3525 21.4825 15.3525 21.1726V20.0476C15.3525 19.7376 15.6045 19.4851 15.915 19.4851H33.915C34.2255 19.4851 34.4775 19.7376 34.4775 20.0476V21.1726Z" fill="white"></path>
    <path d="M18.165 27.3601H31.665V23.9851H18.165V27.3601ZM19.29 25.1101H30.54V26.2351H19.29V25.1101Z" fill="white"></path>
  </g>
  <defs>
    <clipPath id="clip0_202_149">
      <rect width="36" height="36" fill="white" transform="translate(0.165039 0.922607)"></rect>
    </clipPath>
  </defs>
</svg>
