<svg xmlns="http://www.w3.org/2000/svg" width="37" height="37" viewBox="0 0 37 37" fill="none">
  <g clip-path="url(#clip0_202_161)">
    <path d="M9.10875 18.0227L6.24 17.4039C5.4525 17.2352 4.72125 17.8539 4.72125 18.6414V19.8227C4.72125 20.7789 5.4525 21.0039 6.3525 21.0039H9.5025C10.1213 21.0039 10.74 20.8914 10.74 20.2164V20.0477C10.74 19.0352 10.065 18.1914 9.10875 18.0227ZM5.79 19.8227C5.79 19.7664 5.79 19.7664 5.79 18.5852C5.79 18.4727 5.9025 18.3602 6.015 18.4164L8.88375 19.0352C9.2775 19.1477 9.55875 19.4852 9.615 19.8789C7.64625 19.8789 5.95875 19.8789 5.79 19.8227Z" fill="white"></path>
    <path d="M34.6462 12.0039L30.5962 10.0914C29.2462 9.47266 27.7837 9.24766 26.3775 9.52891L25.7587 8.29141C25.3087 7.16641 24.24 6.37891 23.0025 6.37891H9.83998C8.60248 6.37891 7.53373 7.11016 7.08373 8.23516L4.88998 12.7914C4.38373 12.0602 3.53998 11.6102 2.63998 11.6102H1.68373C0.839978 11.6102 0.164978 12.2852 0.164978 13.1289V13.7477C0.164978 14.5914 0.839978 15.2664 1.68373 15.2664H3.14623C2.52748 16.0539 2.24623 17.0664 2.24623 18.0789V21.4539C2.24623 22.7477 2.69623 23.9852 3.59623 25.0539V27.5852C3.59623 28.7102 4.49623 29.6102 5.62123 29.6102H7.70248C8.82748 29.6102 9.72748 28.7102 9.72748 27.5852V26.5727H20.9775C23.4525 29.9477 27.3337 31.4102 27.39 31.4102C27.5025 31.4664 27.615 31.4664 27.7837 31.4102C27.84 31.3539 36.165 28.3164 36.165 20.7227V14.4227C36.165 13.4102 35.5462 12.4539 34.6462 12.0039ZM8.09623 8.68516C8.37748 7.95391 9.05248 7.50391 9.83998 7.50391H23.0025C23.79 7.50391 24.465 7.95391 24.8025 8.74141L25.3087 9.81016C25.0837 9.86641 24.8587 9.97891 24.6337 10.0914L20.5837 12.0039C19.6837 12.4539 19.065 13.3539 19.065 14.3664H5.28373C5.50873 14.0289 5.28373 14.5914 8.09623 8.68516ZM1.28998 13.7477V13.1289C1.28998 12.9039 1.45873 12.7352 1.68373 12.7352H2.63998C3.76498 12.7352 4.15873 13.7477 4.27123 13.9164C4.21498 14.0289 4.15873 14.0852 4.04623 14.1977H1.68373C1.45873 14.1414 1.28998 13.9727 1.28998 13.7477ZM8.60248 27.5289C8.60248 28.0352 8.20873 28.4289 7.70248 28.4289H5.56498C5.05873 28.4852 4.66498 28.0352 4.66498 27.5289V25.8977C5.33998 26.2914 6.12748 26.5164 6.91498 26.5164H8.60248V27.5289ZM6.85873 25.4477C4.83373 25.4477 3.25873 23.4789 3.25873 21.3977V18.0227C3.25873 17.0664 3.65248 16.1664 4.32748 15.4352H19.065V20.3852H12.8775C12.5962 20.3852 12.315 20.6102 12.315 20.9477C12.315 21.2852 12.54 21.5102 12.8775 21.5102H19.1212C19.1775 21.9039 19.1775 22.2414 19.29 22.5789H12.8775C12.5962 22.5789 12.315 22.8039 12.315 23.1414C12.315 23.4789 12.54 23.7039 12.8775 23.7039H19.515C19.74 24.3227 19.965 24.9414 20.3025 25.4477H6.85873ZM35.04 20.7227C35.04 26.9664 28.74 29.8352 27.615 30.2852C23.565 28.6539 20.19 25.1664 20.19 20.7227C20.19 18.6414 20.19 17.5164 20.19 14.4227C20.19 13.8039 20.5275 13.2977 21.09 13.0164L25.14 11.1039C26.7712 10.3164 28.5712 10.3164 30.2025 11.1039L34.2525 13.0164C34.7587 13.2977 35.1525 13.8039 35.1525 14.4227V20.7227H35.04Z" fill="white"></path>
    <path d="M33.1275 14.3102L29.415 12.5664C28.29 12.0039 26.8837 12.0039 25.7587 12.5664L22.1025 14.3102C21.9337 14.4227 21.765 14.5914 21.765 14.8164V20.7227C21.765 25.1664 25.6462 27.5852 27.3337 28.4289C27.5025 28.4852 27.6712 28.4852 27.84 28.4289C29.5275 27.5852 33.4087 25.1664 33.4087 20.7227V14.8164C33.4087 14.5914 33.2962 14.4227 33.1275 14.3102ZM32.34 20.7227C32.34 24.3227 29.19 26.4602 27.615 27.3039C25.7587 26.2914 22.89 24.2664 22.89 20.7227V15.1539L26.265 13.5227C27.1087 13.1289 28.1212 13.1289 28.965 13.5227L32.34 15.1539V20.7227Z" fill="white"></path>
    <path d="M25.4213 20.554C25.1963 20.3852 24.8588 20.4415 24.6338 20.6665C24.4088 20.8915 24.5213 21.229 24.7463 21.454L26.8838 23.0852C27.1088 23.254 27.4463 23.1977 27.6713 22.9727L30.8213 18.8665C30.99 18.6415 30.9338 18.304 30.7088 18.079C30.4838 17.9102 30.1463 17.9665 29.9213 18.1915L27.1088 21.8477L25.4213 20.554Z" fill="white"></path>
  </g>
  <defs>
    <clipPath id="clip0_202_161">
      <rect width="36" height="36" fill="white" transform="translate(0.164978 0.922607)"></rect>
    </clipPath>
  </defs>
</svg>
