<svg xmlns="http://www.w3.org/2000/svg"  viewBox="0 0 20 20" fill="none">
                  <path d="M10.0001 19.8079C9.55841 19.8079 8.79175 19.5829 7.35008 17.6496C7.23687 17.5007 7.08624 17.3845 6.9135 17.3127C6.74077 17.241 6.55212 17.2163 6.36675 17.2412C4.16675 17.5912 3.50008 17.1912 3.20008 16.8996C2.90008 16.6079 2.54175 15.9246 2.85008 13.7246C2.87676 13.5391 2.85291 13.3499 2.78105 13.1768C2.70918 13.0037 2.59196 12.8533 2.44175 12.7412C0.508415 11.2996 0.291748 10.5329 0.291748 10.0912C0.291748 9.64957 0.508415 8.88291 2.44175 7.44124C2.59196 7.32922 2.70918 7.17875 2.78105 7.00569C2.85291 6.83263 2.87676 6.64338 2.85008 6.45791C2.54175 4.24124 2.90008 3.58291 3.20008 3.28291C3.50008 2.98291 4.16675 2.59124 6.36675 2.94124C6.55212 2.96614 6.74077 2.94147 6.9135 2.86974C7.08624 2.79801 7.23687 2.68179 7.35008 2.53291C8.79175 0.599573 9.55841 0.374573 10.0001 0.374573C10.4417 0.374573 11.2084 0.599573 12.6501 2.53291C12.7639 2.68114 12.9146 2.79688 13.0872 2.86854C13.2597 2.9402 13.4481 2.96527 13.6334 2.94124C15.8501 2.62457 16.5001 2.99124 16.8001 3.28291C17.1001 3.57457 17.5001 4.25791 17.1501 6.45791C17.1234 6.64338 17.1473 6.83263 17.2191 7.00569C17.291 7.17875 17.4082 7.32922 17.5584 7.44124C19.4917 8.88291 19.7084 9.64957 19.7084 10.0912C19.7084 10.5329 19.4917 11.2996 17.5584 12.7412C17.4082 12.8533 17.291 13.0037 17.2191 13.1768C17.1473 13.3499 17.1234 13.5391 17.1501 13.7246C17.4584 15.9412 17.1001 16.5996 16.8001 16.8996C16.5001 17.1996 15.8501 17.5579 13.6334 17.2412C13.448 17.2163 13.2594 17.241 13.0867 17.3127C12.9139 17.3845 12.7633 17.5007 12.6501 17.6496C11.2084 19.5829 10.4417 19.8079 10.0001 19.8079ZM6.51675 15.9829C6.87263 15.9823 7.22374 16.0648 7.54205 16.224C7.86037 16.3831 8.13707 16.6145 8.35008 16.8996C9.51675 18.4579 10.0167 18.5662 10.0167 18.5662C10.0167 18.5662 10.4917 18.4662 11.6834 16.8996C11.9302 16.5711 12.2608 16.3151 12.6405 16.1582C13.0202 16.0013 13.4351 15.9494 13.8417 16.0079C15.5501 16.2496 15.9417 16.0079 15.9584 16.0079C15.9751 16.0079 16.1834 15.6162 15.9584 13.8996C15.8984 13.4993 15.9454 13.0903 16.0947 12.7141C16.244 12.338 16.4902 12.008 16.8084 11.7579C18.3667 10.5912 18.4751 10.0912 18.4751 10.0912C18.4751 10.0912 18.3751 9.61624 16.8084 8.42457C16.4827 8.17922 16.2283 7.85138 16.0716 7.4749C15.9148 7.09842 15.8614 6.68694 15.9167 6.28291C16.1501 4.56624 15.9167 4.18291 15.9167 4.15791C15.2271 3.98741 14.5064 3.98741 13.8167 4.15791C13.4129 4.21669 13.0007 4.16658 12.6228 4.01276C12.2448 3.85893 11.9148 3.60697 11.6667 3.28291C10.5001 1.72457 10.0001 1.61624 10.0001 1.61624C10.0001 1.61624 9.52508 1.71624 8.33341 3.28291C8.08806 3.60865 7.76022 3.86301 7.38374 4.01976C7.00726 4.1765 6.59578 4.22995 6.19175 4.17457C4.52508 3.93291 4.09175 4.17457 4.07508 4.17457C4.05841 4.17457 3.85008 4.56624 4.07508 6.28291C4.13138 6.68617 4.07922 7.09716 3.92397 7.47358C3.76872 7.85 3.51597 8.17825 3.19175 8.42457C1.63341 9.59124 1.52508 10.0912 1.52508 10.0912C1.52508 10.0912 1.62508 10.5662 3.19175 11.7579C3.51749 12.0033 3.77186 12.3311 3.9286 12.7076C4.08535 13.0841 4.13879 13.4955 4.08341 13.8996C3.85008 15.6162 4.08341 15.9996 4.08341 16.0246C4.77303 16.1951 5.4938 16.1951 6.18341 16.0246C6.29326 16.0019 6.40471 15.988 6.51675 15.9829Z" fill="#009A5E"/>
                  <path d="M9.1667 12.3829C9.001 12.3828 8.84213 12.3168 8.72504 12.1996L7.05837 10.5329C6.94797 10.4144 6.88787 10.2577 6.89072 10.0958C6.89358 9.93391 6.95917 9.77942 7.07368 9.66491C7.18819 9.5504 7.34268 9.48481 7.5046 9.48195C7.66652 9.47909 7.82322 9.5392 7.9417 9.6496L9.1667 10.8746L12.0584 7.98293C12.1768 7.87253 12.3336 7.81243 12.4955 7.81528C12.6574 7.81814 12.8119 7.88373 12.9264 7.99824C13.0409 8.11276 13.1065 8.26724 13.1093 8.42916C13.1122 8.59108 13.0521 8.74778 12.9417 8.86626L9.60837 12.1996C9.49127 12.3168 9.33241 12.3828 9.1667 12.3829Z" fill="#009A5E"/>
                </svg>
