<svg xmlns="http://www.w3.org/2000/svg" width="40" height="40" viewBox="0 0 40 40" fill="none"><path d="M20.2706 30.2444C20.1606 29.9772 19.903 29.8047 19.6142 29.8047H19.6133C19.3242 29.805 19.0666 29.9781 18.9572 30.2458C18.9554 30.2502 18.9536 30.2546 18.9519 30.2591L16.8984 35.6508C16.7832 35.9532 16.9351 36.2917 17.2374 36.4069C17.5397 36.5221 17.8783 36.3703 17.9936 36.0679L18.3612 35.1025H20.8518L21.2155 36.0663C21.304 36.3009 21.527 36.4455 21.7638 36.4455C21.8326 36.4455 21.9025 36.4333 21.9706 36.4076C22.2733 36.2934 22.4261 35.9552 22.3118 35.6525L20.277 30.2605C20.275 30.2552 20.2728 30.2498 20.2706 30.2444ZM18.8075 33.9306L19.6121 31.818L20.4094 33.9306H18.8075Z" fill="#009A5E"></path><path d="M26.2464 35.9208L26.8608 32.5167L27.8711 35.941C27.8732 35.948 27.8753 35.9549 27.8777 35.9618C27.975 36.2514 28.2449 36.4453 28.5501 36.4453H28.5538C28.8605 36.4438 29.1303 36.2467 29.225 35.9549C29.2271 35.9482 29.2293 35.9414 29.2312 35.9346L30.2066 32.5127L30.8591 35.9267C30.9198 36.2446 31.2272 36.4529 31.5446 36.3922C31.8624 36.3315 32.0708 36.0245 32.01 35.7067L30.9907 30.3726C30.9264 30.0571 30.657 29.8241 30.3355 29.8059C30.0122 29.7873 29.72 29.9889 29.6206 30.2951C29.6185 30.3018 29.6164 30.3086 29.6144 30.3154L28.5425 34.0756L27.4314 30.3094C27.4293 30.3024 27.4271 30.2955 27.4248 30.2886C27.3223 29.9831 27.026 29.7855 26.7046 29.8066C26.3832 29.8282 26.1163 30.0642 26.0543 30.387L25.0931 35.7126C25.0357 36.031 25.2472 36.3358 25.5657 36.3933C25.8838 36.4507 26.189 36.2392 26.2464 35.9208Z" fill="#009A5E"></path><path d="M13.5778 29.8047C13.2541 29.8047 12.9918 30.067 12.9918 30.3906V35.8548C12.9918 36.1401 13.1974 36.384 13.4785 36.4323C13.5204 36.4395 13.5564 36.4456 14.1586 36.4456C14.45 36.4456 14.8742 36.4441 15.496 36.4407C15.8196 36.4389 16.0804 36.1751 16.0786 35.8515C16.0768 35.529 15.8149 35.2688 15.4928 35.2688H15.4894C15.0275 35.2714 14.5307 35.2733 14.1636 35.2734V30.3906C14.1637 30.067 13.9014 29.8047 13.5778 29.8047Z" fill="#009A5E"></path><path d="M24.3026 35.8594V30.3906C24.3026 30.067 24.0403 29.8047 23.7167 29.8047C23.393 29.8047 23.1307 30.067 23.1307 30.3906V35.8594C23.1307 36.183 23.393 36.4453 23.7167 36.4453C24.0403 36.4453 24.3026 36.183 24.3026 35.8594Z" fill="#009A5E"></path><path d="M9.90199 36.4452C10.6309 36.4452 11.2846 36.2062 11.7924 35.7539C11.8921 35.6651 11.9867 35.5675 12.0736 35.4638C12.2815 35.2158 12.249 34.8462 12.0011 34.6384C11.7529 34.4305 11.3836 34.463 11.1757 34.7109C11.1252 34.7712 11.0704 34.8276 11.013 34.8787C10.719 35.1405 10.3453 35.2733 9.90199 35.2733C8.71739 35.2733 7.75356 34.3095 7.75356 33.1248C7.75356 31.9401 8.71739 30.9764 9.90199 30.9764C10.3326 30.9764 10.7478 31.1032 11.1029 31.343C11.371 31.5241 11.7353 31.4536 11.9164 31.1854C12.0975 30.9172 12.027 30.553 11.7588 30.3719C11.2093 30.0007 10.5672 29.8044 9.90192 29.8044C8.07106 29.8044 6.5816 31.2939 6.5816 33.1248C6.5816 34.9556 8.07121 36.4452 9.90199 36.4452Z" fill="#009A5E"></path><path d="M8.05115 14.4141H20.0043C20.3279 14.4141 20.5902 14.1517 20.5902 13.8281C20.5902 13.5045 20.3279 13.2422 20.0043 13.2422H8.05115C7.72748 13.2422 7.46521 13.5045 7.46521 13.8281C7.46521 14.1517 7.72748 14.4141 8.05115 14.4141Z" fill="#009A5E"></path><path d="M8.05115 18.1685H20.0043C20.3279 18.1685 20.5902 17.9061 20.5902 17.5825C20.5902 17.2589 20.3279 16.9966 20.0043 16.9966H8.05115C7.72748 16.9966 7.46521 17.2589 7.46521 17.5825C7.46521 17.9061 7.72748 18.1685 8.05115 18.1685Z" fill="#009A5E"></path><path d="M8.05115 21.9226H20.0043C20.3279 21.9226 20.5902 21.6603 20.5902 21.3367C20.5902 21.0131 20.3279 20.7507 20.0043 20.7507H8.05115C7.72748 20.7507 7.46521 21.0131 7.46521 21.3367C7.46521 21.6603 7.72748 21.9226 8.05115 21.9226Z" fill="#009A5E"></path><path d="M8.05115 25.677H20.0043C20.3279 25.677 20.5902 25.4147 20.5902 25.0911C20.5902 24.7675 20.3279 24.5051 20.0043 24.5051H8.05115C7.72748 24.5051 7.46521 24.7675 7.46521 25.0911C7.46521 25.4147 7.72748 25.677 8.05115 25.677Z" fill="#009A5E"></path><path d="M29.4655 20.4997C29.4688 20.4997 29.4722 20.4997 29.4756 20.4996C29.6394 20.4968 29.7945 20.4255 29.9034 20.3031L32.0909 17.8421C32.3059 17.6003 32.2841 17.23 32.0423 17.015C31.8004 16.8 31.43 16.8218 31.2151 17.0636L29.4506 19.0486L28.3273 17.8691C28.1041 17.6347 27.7332 17.6258 27.4988 17.8489C27.2645 18.0721 27.2555 18.4429 27.4787 18.6773L29.0412 20.3179C29.1519 20.4341 29.3052 20.4997 29.4655 20.4997Z" fill="#009A5E"></path><path d="M36.1893 14.0263L35.475 13.614V1.75781C35.475 0.788516 34.6864 0 33.7172 0H4.88495C3.91573 0 3.12714 0.788516 3.12714 1.75781V26.4062C3.12714 26.7298 3.3894 26.9921 3.71307 26.9921C4.03675 26.9921 4.29901 26.7298 4.29901 26.4062V1.75781C4.29901 1.43477 4.56182 1.17188 4.88495 1.17188H33.7172C34.0403 1.17188 34.3032 1.43477 34.3032 1.75781V12.9373L30.3917 10.6791C29.97 10.4356 29.4461 10.4355 29.0246 10.6791L23.2269 14.0262C22.8053 14.2697 22.5433 14.7234 22.5433 15.2102V17.6556C22.5433 18.4913 22.6638 19.323 22.9014 20.1274C22.9931 20.4377 23.3188 20.6151 23.6293 20.5234C23.9396 20.4317 24.1169 20.1058 24.0252 19.7955C23.8194 19.0988 23.7151 18.3789 23.7151 17.6556V15.2102C23.7151 15.1407 23.7525 15.0759 23.8128 15.0411L29.6105 11.6938C29.6705 11.6591 29.7453 11.6591 29.8057 11.6938L35.6033 15.041C35.6635 15.0758 35.701 15.1406 35.701 15.2102V17.6555C35.701 20.3461 34.2535 22.8532 31.9234 24.1984L29.8058 25.421C29.7456 25.4558 29.6706 25.4558 29.6104 25.421L27.4928 24.1984C26.5642 23.6623 25.7749 22.9495 25.1466 22.0795C24.9571 21.8172 24.591 21.758 24.3285 21.9476C24.0662 22.137 24.0071 22.5034 24.1966 22.7656C24.9224 23.7705 25.8342 24.594 26.9068 25.2132L29.0245 26.4359C29.2353 26.5576 29.4717 26.6184 29.708 26.6184C29.9443 26.6184 30.1808 26.5576 30.3917 26.4359L32.5093 25.2132C33.1725 24.8303 33.7735 24.3656 34.3031 23.8367V38.2422C34.3031 38.5653 34.0403 38.8281 33.7171 38.8281H4.88495C4.56182 38.8281 4.29901 38.5653 4.29901 38.2422V29.1405C4.29901 28.817 4.03675 28.5546 3.71307 28.5546C3.3894 28.5546 3.12714 28.817 3.12714 29.1405V38.2422C3.12714 39.2115 3.91573 40 4.88495 40H33.7172C34.6864 40 35.475 39.2115 35.475 38.2422V22.3844C36.3706 20.9952 36.8729 19.3575 36.8729 17.6557V15.2103C36.8729 14.7234 36.611 14.2697 36.1893 14.0263Z" fill="#009A5E"></path><path d="M28.0786 23.1836L29.2197 23.8424C29.3703 23.9294 29.5391 23.9728 29.708 23.9728C29.8768 23.9728 30.0456 23.9293 30.1963 23.8424L31.3374 23.1836C33.306 22.0471 34.5291 19.9288 34.5291 17.6556V16.3378C34.5291 15.99 34.342 15.666 34.0408 15.4921L30.1963 13.2725C29.8951 13.0986 29.5209 13.0986 29.2197 13.2725L25.3752 15.4921C25.0741 15.666 24.887 15.9901 24.887 16.3378V17.6555C24.887 19.9288 26.1099 22.0471 28.0786 23.1836ZM26.0589 16.4506L29.7081 14.3438L33.3573 16.4506V17.6556C33.3573 19.5115 32.3588 21.2409 30.7515 22.1688L29.7081 22.7712L28.6646 22.1688C27.0574 21.2409 26.0589 19.5115 26.0589 17.6556V16.4506Z" fill="#009A5E"></path><path d="M22.9858 4.96094C23.3094 4.96094 23.5717 4.69859 23.5717 4.375C23.5717 4.05141 23.3094 3.78906 22.9858 3.78906H8.44177C7.90326 3.78906 7.46521 4.22711 7.46521 4.76562V7.96875C7.46521 8.50727 7.90326 8.94531 8.44177 8.94531H30.1605C30.699 8.94531 31.1371 8.50727 31.1371 7.96875V4.76562C31.1371 4.22711 30.699 3.78906 30.1605 3.78906H25.7201C25.3965 3.78906 25.1342 4.05141 25.1342 4.375C25.1342 4.69859 25.3965 4.96094 25.7201 4.96094H29.9652V7.77344H8.63708V4.96094H22.9858Z" fill="#009A5E"></path></svg>
