    			<svg xmlns="http://www.w3.org/2000/svg" width="26" height="26" viewBox="0 0 26 26" fill="none"><path d="M17.1667 24.1196H4.66667C3.97625 24.1188 3.31435 23.8442 2.82616 23.356C2.33796 22.8678 2.06333 22.2059 2.0625 21.5155V4.8488C2.06333 4.15838 2.33796 3.49648 2.82616 3.00829C3.31435 2.52009 3.97625 2.24546 4.66667 2.24463H12.7188C13.0656 2.24486 13.4089 2.31405 13.7287 2.44817C14.0485 2.58229 14.3385 2.77867 14.5818 3.02588L19.0286 7.57744C19.5056 8.06438 19.7722 8.71925 19.7708 9.40088V13.2811C19.7708 13.4192 19.716 13.5517 19.6183 13.6494C19.5206 13.747 19.3881 13.8019 19.25 13.8019C19.1119 13.8019 18.9794 13.747 18.8817 13.6494C18.784 13.5517 18.7292 13.4192 18.7292 13.2811V9.40088C18.7294 8.99201 18.5693 8.59934 18.2833 8.30713L13.8359 3.75505C13.6902 3.60661 13.5163 3.48871 13.3245 3.40823C13.1327 3.32774 12.9268 3.28629 12.7188 3.2863H4.66667C4.25227 3.2863 3.85484 3.45092 3.56181 3.74394C3.26879 4.03697 3.10417 4.4344 3.10417 4.8488V21.5155C3.10417 21.9299 3.26879 22.3273 3.56181 22.6203C3.85484 22.9133 4.25227 23.078 4.66667 23.078H17.1667C17.3632 23.0787 17.5579 23.0407 17.7396 22.966C17.8674 22.9134 18.0108 22.9138 18.1383 22.967C18.2658 23.0201 18.367 23.1218 18.4195 23.2496C18.4721 23.3774 18.4717 23.5208 18.4186 23.6483C18.3654 23.7758 18.2637 23.877 18.1359 23.9295C17.8284 24.0558 17.4991 24.1204 17.1667 24.1196Z" fill="white"></path><path d="M19.0365 9.0155H15.6042C14.9138 9.01468 14.2519 8.74004 13.7637 8.25185C13.2755 7.76365 13.0008 7.10175 13 6.41134V2.92696C13 2.78883 13.0549 2.65635 13.1525 2.55868C13.2502 2.461 13.3827 2.40613 13.5208 2.40613C13.659 2.40613 13.7914 2.461 13.8891 2.55868C13.9868 2.65635 14.0417 2.78883 14.0417 2.92696V6.41134C14.0417 6.82574 14.2063 7.22317 14.4993 7.51619C14.7923 7.80922 15.1898 7.97384 15.6042 7.97384H19.0365C19.1746 7.97384 19.3071 8.02871 19.4047 8.12639C19.5024 8.22406 19.5573 8.35654 19.5573 8.49467C19.5573 8.6328 19.5024 8.76528 19.4047 8.86295C19.3071 8.96063 19.1746 9.0155 19.0365 9.0155Z" fill="white"></path><path d="M18.2083 24.0436C18.0029 24.0438 17.8021 23.9831 17.6312 23.8691L15.9583 22.7535C14.8873 22.0414 14.0091 21.0753 13.4021 19.9415C12.795 18.8076 12.478 17.5412 12.4791 16.255V15.3634C12.4801 15.129 12.5598 14.9018 12.7053 14.7181C12.8509 14.5345 13.0538 14.4049 13.2817 14.3504C14.8286 13.9228 16.3001 13.2589 17.6442 12.3821C17.8124 12.2738 18.0082 12.2162 18.2083 12.2162C18.4084 12.2162 18.6042 12.2738 18.7724 12.3821C20.1165 13.259 21.588 13.9229 23.1349 14.3504C23.3628 14.4049 23.5657 14.5345 23.7113 14.7181C23.8568 14.9018 23.9364 15.129 23.9375 15.3634V16.255C23.939 17.5415 23.6221 18.8084 23.015 19.9426C22.4079 21.0769 21.5296 22.0433 20.4583 22.7556L18.7859 23.8707C18.6147 23.9842 18.4137 24.0444 18.2083 24.0436ZM18.2083 13.2571C16.7683 14.1965 15.1912 14.9067 13.5333 15.3623L13.5208 16.255C13.5195 17.37 13.7942 18.4679 14.3203 19.4509C14.8464 20.4339 15.6075 21.2715 16.5359 21.8889L18.2083 23.0019L19.8807 21.8868C20.8088 21.2696 21.5698 20.4324 22.0958 19.4497C22.6219 18.4671 22.8967 17.3696 22.8958 16.255V15.3634C21.2338 14.908 19.6525 14.1977 18.2083 13.2576V13.2571Z" fill="white"></path><path d="M17.6874 19.4321C17.5493 19.432 17.4169 19.3772 17.3192 19.2795L16.2776 18.2378C16.1827 18.1396 16.1302 18.008 16.1314 17.8715C16.1326 17.7349 16.1873 17.6043 16.2839 17.5077C16.3805 17.4111 16.5111 17.3563 16.6477 17.3552C16.7842 17.354 16.9158 17.4065 17.014 17.5013L17.6874 18.1748L19.4026 16.4597C19.5008 16.3648 19.6323 16.3123 19.7689 16.3135C19.9055 16.3147 20.0361 16.3695 20.1327 16.466C20.2292 16.5626 20.284 16.6932 20.2852 16.8298C20.2864 16.9663 20.2339 17.0979 20.139 17.1961L18.0557 19.2795C17.958 19.3772 17.8256 19.432 17.6874 19.4321Z" fill="white"></path><path d="M9.875 7.45292H5.70833C5.5702 7.45292 5.43772 7.39805 5.34005 7.30037C5.24237 7.2027 5.1875 7.07022 5.1875 6.93209C5.1875 6.79395 5.24237 6.66148 5.34005 6.5638C5.43772 6.46613 5.5702 6.41125 5.70833 6.41125H9.875C10.0131 6.41125 10.1456 6.46613 10.2433 6.5638C10.341 6.66148 10.3958 6.79395 10.3958 6.93209C10.3958 7.07022 10.341 7.2027 10.2433 7.30037C10.1456 7.39805 10.0131 7.45292 9.875 7.45292Z" fill="white"></path><path d="M13 10.5779H5.70833C5.5702 10.5779 5.43772 10.523 5.34005 10.4254C5.24237 10.3277 5.1875 10.1952 5.1875 10.0571C5.1875 9.91895 5.24237 9.78648 5.34005 9.6888C5.43772 9.59113 5.5702 9.53625 5.70833 9.53625H13C13.1381 9.53625 13.2706 9.59113 13.3683 9.6888C13.466 9.78648 13.5208 9.91895 13.5208 10.0571C13.5208 10.1952 13.466 10.3277 13.3683 10.4254C13.2706 10.523 13.1381 10.5779 13 10.5779Z" fill="white"></path><path d="M14.0417 13.7029H5.70833C5.5702 13.7029 5.43772 13.648 5.34005 13.5504C5.24237 13.4527 5.1875 13.3202 5.1875 13.1821C5.1875 13.044 5.24237 12.9115 5.34005 12.8138C5.43772 12.7161 5.5702 12.6613 5.70833 12.6613H14.0417C14.1798 12.6613 14.3123 12.7161 14.41 12.8138C14.5076 12.9115 14.5625 13.044 14.5625 13.1821C14.5625 13.3202 14.5076 13.4527 14.41 13.5504C14.3123 13.648 14.1798 13.7029 14.0417 13.7029Z" fill="white"></path><path d="M10.9167 16.8279H5.70833C5.5702 16.8279 5.43772 16.773 5.34005 16.6754C5.24237 16.5777 5.1875 16.4452 5.1875 16.3071C5.1875 16.169 5.24237 16.0365 5.34005 15.9388C5.43772 15.8411 5.5702 15.7863 5.70833 15.7863H10.9167C11.0548 15.7863 11.1873 15.8411 11.285 15.9388C11.3826 16.0365 11.4375 16.169 11.4375 16.3071C11.4375 16.4452 11.3826 16.5777 11.285 16.6754C11.1873 16.773 11.0548 16.8279 10.9167 16.8279Z" fill="white"></path><path d="M10.9167 19.9529H5.70833C5.5702 19.9529 5.43772 19.898 5.34005 19.8004C5.24237 19.7027 5.1875 19.5702 5.1875 19.4321C5.1875 19.294 5.24237 19.1615 5.34005 19.0638C5.43772 18.9661 5.5702 18.9113 5.70833 18.9113H10.9167C11.0548 18.9113 11.1873 18.9661 11.285 19.0638C11.3826 19.1615 11.4375 19.294 11.4375 19.4321C11.4375 19.5702 11.3826 19.7027 11.285 19.8004C11.1873 19.898 11.0548 19.9529 10.9167 19.9529Z" fill="white"></path></svg>
