<svg xmlns="http://www.w3.org/2000/svg" width="133" height="133" viewBox="0 0 133 133" fill="none"><circle cx="66.9577" cy="66.8942" r="44.653" fill="#055552"></circle><circle cx="66.8335" cy="66.7652" r="30.6929" fill="white"></circle><g clip-path="url(#clip0_1140_163)"><path d="M68.8972 60.122C69.4315 60.122 69.8647 59.6888 69.8647 59.1545C69.8647 58.6202 69.4315 58.187 68.8972 58.187C68.3628 58.187 67.9297 58.6202 67.9297 59.1545C67.9297 59.6888 68.3628 60.122 68.8972 60.122Z" fill="#286C5E"></path><path d="M72.7722 60.122C73.3065 60.122 73.7397 59.6888 73.7397 59.1545C73.7397 58.6202 73.3065 58.187 72.7722 58.187C72.2378 58.187 71.8047 58.6202 71.8047 59.1545C71.8047 59.6888 72.2378 60.122 72.7722 60.122Z" fill="#286C5E"></path><path d="M76.6394 60.122C77.1737 60.122 77.6069 59.6888 77.6069 59.1545C77.6069 58.6202 77.1737 58.187 76.6394 58.187C76.105 58.187 75.6719 58.6202 75.6719 59.1545C75.6719 59.6888 76.105 60.122 76.6394 60.122Z" fill="#286C5E"></path><path d="M72.2032 81.4068C73.796 81.4068 75.0919 80.1048 75.0919 78.5043V74.6344C75.0919 74.2182 74.8257 73.8486 74.4311 73.7167L68.6398 71.7818C68.3563 71.6871 68.0452 71.7287 67.7966 71.8944L65.3338 73.5362C62.6907 72.2821 59.5668 69.1858 58.3243 66.5897L59.9656 64.1279C60.1313 63.8793 60.1729 63.568 60.0782 63.2846L58.1432 57.4934C58.0113 57.0986 57.6418 56.8325 57.2256 56.8325H53.3556C51.7552 56.8325 50.4531 58.1284 50.4531 59.7213C50.4531 65.0668 52.8837 70.553 57.1217 74.7733C61.3551 78.989 66.8521 81.4068 72.2032 81.4068ZM53.3556 58.7675H56.5288L58.0929 63.4486L56.4206 65.957C56.2439 66.2221 56.209 66.5572 56.3274 66.853C56.9707 68.4614 58.2583 70.2704 59.9527 71.9468C61.636 73.6121 63.4539 74.8856 65.0715 75.5326C65.3672 75.6509 65.7024 75.616 65.9674 75.4393L68.4759 73.7671L73.1569 75.3312V78.5043C73.1569 79.0469 72.738 79.4718 72.2032 79.4718C62.0179 79.4718 52.3881 69.8734 52.3881 59.7213C52.3881 59.1864 52.8131 58.7675 53.3556 58.7675Z" fill="#286C5E"></path><path d="M68.5272 69.723C68.8887 69.8728 69.3049 69.79 69.5816 69.5133L73.1682 65.9267H76.6374C80.4072 65.9267 83.4743 62.8886 83.4743 59.1543C83.4743 55.42 80.4072 52.3818 76.6374 52.3818H68.8974C65.1631 52.3818 62.125 55.42 62.125 59.1543C62.125 62.5602 64.6523 65.3869 67.93 65.8578V68.8292C67.93 69.2205 68.1657 69.5733 68.5272 69.723ZM64.06 59.1543C64.06 56.4869 66.2301 54.3168 68.8974 54.3168H76.6374C79.3403 54.3168 81.5393 56.4869 81.5393 59.1543C81.5393 61.8217 79.3403 63.9917 76.6374 63.9917H72.7674C72.5108 63.9917 72.2647 64.0937 72.0833 64.2751L69.8649 66.4935V64.9592C69.8649 64.4249 69.4318 63.9917 68.8974 63.9917C66.2301 63.9917 64.06 61.8217 64.06 59.1543Z" fill="#286C5E"></path></g><path d="M133.009 66.8941C133.009 103.371 103.439 132.942 66.9615 132.942C30.4845 132.942 0.914062 103.371 0.914062 66.8941C0.914062 30.4171 30.4845 0.84668 66.9615 0.84668C103.439 0.84668 133.009 30.4171 133.009 66.8941ZM22.7914 66.8941C22.7914 91.2886 42.5671 111.064 66.9615 111.064C91.356 111.064 111.132 91.2886 111.132 66.8941C111.132 42.4997 91.356 22.7241 66.9615 22.7241C42.5671 22.7241 22.7914 42.4997 22.7914 66.8941Z" fill="white"></path><path d="M74.5905 14.5898L76.5897 14.8023C76.4799 15.4533 76.2376 16.0158 75.8626 16.4899C75.4921 16.9644 75.0064 17.314 74.4055 17.5386C73.8091 17.7637 73.1119 17.8339 72.314 17.7491C71.69 17.6828 71.1419 17.5163 70.6699 17.2498C70.1983 16.9788 69.808 16.6217 69.499 16.1787C69.1944 15.7361 68.9813 15.2175 68.8596 14.6231C68.738 14.0286 68.7151 13.3748 68.7909 12.6616L68.8626 11.9863C68.9384 11.2731 69.1005 10.6389 69.3488 10.0838C69.6021 9.52464 69.9264 9.06098 70.3216 8.69277C70.7213 8.32503 71.1802 8.05825 71.6982 7.89241C72.2162 7.72658 72.7806 7.67611 73.3913 7.74102C74.2025 7.82725 74.8711 8.04707 75.3971 8.40049C75.9274 8.75438 76.319 9.20622 76.5716 9.75598C76.8286 10.3062 76.9533 10.9145 76.9456 11.5809L74.9397 11.3677C74.9591 10.973 74.9164 10.6327 74.8116 10.3465C74.7072 10.056 74.5264 9.82713 74.2692 9.66004C74.0169 9.48897 73.6679 9.37975 73.2221 9.33238C72.8878 9.29684 72.5892 9.32822 72.3263 9.4265C72.0634 9.52478 71.8338 9.69196 71.6374 9.92804C71.441 10.1641 71.2798 10.4716 71.1539 10.8504C71.0329 11.2252 70.945 11.6711 70.89 12.1882L70.8168 12.8769C70.7633 13.3806 70.754 13.8282 70.7891 14.2196C70.8246 14.6065 70.9064 14.9398 71.0344 15.2194C71.1674 15.495 71.3516 15.7129 71.587 15.8732C71.8274 16.0294 72.1259 16.1265 72.4825 16.1644C72.9015 16.209 73.254 16.1788 73.5402 16.074C73.8263 15.9692 74.0547 15.7928 74.2252 15.545C74.4003 15.2976 74.522 14.9792 74.5905 14.5898Z" fill="#286C5E"></path><path d="M79.6773 15.0996L79.7189 14.9647C79.8764 14.455 80.0941 14.0085 80.372 13.6252C80.6513 13.2376 80.9791 12.9283 81.3554 12.6974C81.7317 12.4665 82.1504 12.326 82.6115 12.2761C83.074 12.222 83.5686 12.2762 84.0954 12.439C84.6222 12.6017 85.0634 12.8365 85.419 13.1434C85.7759 13.4461 86.0446 13.7988 86.2251 14.2018C86.4099 14.6061 86.5082 15.047 86.5202 15.5245C86.5335 15.9978 86.4615 16.4893 86.304 16.999L86.2623 17.1339C86.1062 17.6393 85.8885 18.0858 85.6093 18.4734C85.3313 18.8567 85.0014 19.1653 84.6195 19.3992C84.2432 19.6301 83.8245 19.7705 83.3633 19.8204C82.9022 19.8703 82.4082 19.8139 81.8814 19.6512C81.3546 19.4884 80.9128 19.2557 80.5559 18.9531C80.2032 18.6518 79.9345 18.2991 79.7498 17.8948C79.5706 17.4876 79.4744 17.0473 79.4611 16.574C79.4491 16.0965 79.5211 15.605 79.6773 15.0996ZM81.5692 15.5363L81.5275 15.6712C81.4375 15.9624 81.3792 16.2423 81.3525 16.5109C81.3259 16.7795 81.3385 17.0273 81.3903 17.2545C81.4477 17.4786 81.5519 17.6727 81.703 17.8367C81.8541 18.0006 82.0624 18.1236 82.328 18.2057C82.585 18.2851 82.8221 18.2997 83.0393 18.2495C83.2566 18.1993 83.45 18.0972 83.6196 17.9431C83.7905 17.7848 83.9406 17.5872 84.0701 17.3504C84.2038 17.1149 84.3157 16.8516 84.4057 16.5603L84.4473 16.4254C84.5347 16.1427 84.5889 15.8686 84.6099 15.603C84.6366 15.3344 84.6219 15.0859 84.5658 14.8574C84.5153 14.626 84.4151 14.4262 84.2654 14.2579C84.1156 14.0897 83.9101 13.9652 83.6488 13.8845C83.3876 13.8038 83.1477 13.7906 82.9291 13.8451C82.7148 13.9009 82.5194 14.0094 82.3429 14.1707C82.172 14.3291 82.0218 14.5266 81.8924 14.7634C81.7642 14.996 81.6565 15.2536 81.5692 15.5363Z" fill="#286C5E"></path><path d="M91.4618 17.096L88.8528 22.1887L87.1293 21.3058L90.4465 14.8306L92.0623 15.6584L91.4618 17.096ZM90.3766 18.595L89.9098 18.3558C90.155 17.8771 90.4376 17.4779 90.7575 17.1583C91.0794 16.8346 91.4216 16.5944 91.784 16.4375C92.1485 16.2767 92.5211 16.2032 92.9018 16.2169C93.2887 16.2287 93.6736 16.3328 94.0566 16.529C94.3598 16.6843 94.6146 16.8702 94.821 17.0868C95.0273 17.3033 95.1712 17.5533 95.2527 17.8368C95.3381 18.1223 95.3479 18.4472 95.2822 18.8114C95.2205 19.1777 95.0731 19.5882 94.8401 20.0431L92.7247 24.1723L90.9892 23.2832L93.1077 19.148C93.2549 18.8607 93.3294 18.6169 93.3314 18.4164C93.3334 18.2159 93.2729 18.0439 93.15 17.9004C93.0331 17.7549 92.863 17.6249 92.6396 17.5105C92.4082 17.3919 92.1832 17.3346 91.9646 17.3385C91.7501 17.3444 91.545 17.4005 91.3495 17.5069C91.16 17.6113 90.9822 17.7569 90.816 17.9437C90.6498 18.1305 90.5033 18.3476 90.3766 18.595Z" fill="#286C5E"></path><path d="M101.657 21.4539L100.874 22.5803L97.3956 20.1626L98.1785 19.0362L101.657 21.4539ZM100.064 18.1607L101.655 19.2659L97.7287 24.9142C97.6085 25.0872 97.5384 25.2351 97.5187 25.3578C97.5025 25.4831 97.5277 25.5961 97.5942 25.6969C97.6631 25.794 97.7676 25.8911 97.9075 25.9884C98.0068 26.0574 98.0977 26.1152 98.1802 26.1615C98.2688 26.2068 98.3446 26.2431 98.4075 26.2704L97.5994 27.4448C97.4325 27.3943 97.261 27.3269 97.0848 27.2426C96.9086 27.1584 96.7248 27.0498 96.5334 26.9167C96.1837 26.6737 95.9179 26.4043 95.7358 26.1085C95.56 25.8116 95.4917 25.4858 95.531 25.1309C95.5702 24.776 95.7356 24.3887 96.0273 23.9691L100.064 18.1607Z" fill="#286C5E"></path><path d="M102.605 29.6305L104.783 27.2299C104.939 27.0572 105.045 26.8839 105.1 26.7098C105.158 26.5325 105.159 26.3547 105.103 26.1766C105.05 26.0014 104.93 25.8295 104.744 25.6609C104.585 25.5163 104.422 25.4196 104.254 25.3706C104.09 25.3183 103.929 25.315 103.773 25.3607C103.62 25.4031 103.481 25.4924 103.358 25.6285L101.923 24.3275C102.131 24.0984 102.381 23.9291 102.674 23.8196C102.967 23.7101 103.286 23.6692 103.63 23.6969C103.977 23.7212 104.331 23.815 104.691 23.9784C105.055 24.1447 105.411 24.386 105.759 24.7022C106.178 25.0817 106.486 25.4887 106.685 25.9233C106.884 26.3579 106.95 26.799 106.883 27.2465C106.819 27.6971 106.598 28.1316 106.218 28.5499L104.127 30.8559C103.859 31.1514 103.657 31.4103 103.522 31.6327C103.39 31.8518 103.295 32.0627 103.238 32.2653L103.162 32.35L101.712 31.0354C101.775 30.8261 101.888 30.5953 102.05 30.343C102.218 30.0904 102.404 29.8529 102.605 29.6305ZM104.669 27.7352L103.943 28.5561L103.141 27.8288C102.952 27.6571 102.768 27.5296 102.589 27.4463C102.411 27.363 102.241 27.3205 102.079 27.3189C101.92 27.3139 101.772 27.3433 101.635 27.4071C101.502 27.4739 101.38 27.5687 101.269 27.6916C101.157 27.8144 101.084 27.9513 101.051 28.1021C101.02 28.2495 101.032 28.3997 101.087 28.5525C101.145 28.702 101.245 28.8415 101.388 28.971C101.604 29.1668 101.831 29.2938 102.068 29.352C102.306 29.4102 102.525 29.4154 102.726 29.3675C102.93 29.3227 103.085 29.2453 103.191 29.1354L103.018 30.0864C102.841 30.1743 102.64 30.2492 102.415 30.311C102.193 30.3757 101.953 30.4096 101.696 30.4126C101.442 30.4123 101.18 30.3648 100.909 30.2701C100.64 30.1721 100.372 30.0012 100.103 29.7572C99.761 29.447 99.5123 29.0974 99.3568 28.7082C99.2077 28.3188 99.1618 27.9291 99.2189 27.5392C99.2824 27.1489 99.4557 26.7977 99.7388 26.4856C99.9948 26.2034 100.275 26.0009 100.58 25.8781C100.885 25.7554 101.209 25.7126 101.55 25.75C101.898 25.787 102.262 25.9088 102.644 26.1155C103.028 26.319 103.426 26.6074 103.838 26.9808L104.669 27.7352Z" fill="#286C5E"></path><path d="M107.467 35.2827C107.615 35.4689 107.781 35.6061 107.965 35.6944C108.153 35.7799 108.344 35.8115 108.538 35.7892C108.739 35.7676 108.93 35.6876 109.112 35.549L110.244 36.9767C109.841 37.2907 109.399 37.4663 108.92 37.5035C108.444 37.538 107.975 37.4488 107.515 37.2362C107.058 37.0207 106.655 36.6935 106.307 36.2545C105.956 35.812 105.723 35.3672 105.609 34.92C105.497 34.4764 105.485 34.0427 105.572 33.6188C105.663 33.1921 105.839 32.7864 106.101 32.4018C106.365 32.0143 106.698 31.6618 107.098 31.3443L107.251 31.2231C107.655 30.9028 108.074 30.6591 108.508 30.4922C108.946 30.3225 109.381 30.2435 109.813 30.2551C110.249 30.2639 110.671 30.3732 111.077 30.5828C111.484 30.7924 111.861 31.1167 112.209 31.5558C112.58 32.0229 112.815 32.5031 112.914 32.9963C113.017 33.4931 112.98 33.9739 112.805 34.4387C112.637 34.9043 112.327 35.3185 111.877 35.6814L110.745 34.2537C110.932 34.0998 111.072 33.9229 111.165 33.723C111.261 33.5267 111.298 33.3203 111.275 33.1039C111.258 32.8882 111.168 32.6768 111.003 32.4696C110.828 32.2483 110.637 32.105 110.431 32.0398C110.228 31.9717 110.015 31.9631 109.792 32.014C109.573 32.0621 109.349 32.1511 109.12 32.2811C108.898 32.4117 108.676 32.5648 108.455 32.7403L108.302 32.8615C108.081 33.037 107.879 33.2196 107.698 33.4092C107.516 33.5989 107.377 33.795 107.28 33.9977C107.187 34.2038 107.15 34.4133 107.17 34.6262C107.19 34.8391 107.289 35.058 107.467 35.2827Z" fill="#286C5E"></path><path d="M117.499 39.6533L116.323 40.359L114.144 36.7265L115.32 36.0208L117.499 39.6533ZM117.399 35.9966L118.395 37.6572L112.497 41.1961C112.316 41.3045 112.192 41.4106 112.123 41.5144C112.057 41.622 112.034 41.7354 112.053 41.8545C112.076 41.9714 112.131 42.1029 112.219 42.2489C112.281 42.3527 112.34 42.4427 112.396 42.5188C112.459 42.5964 112.513 42.6606 112.559 42.7114L111.34 43.4505C111.209 43.3359 111.08 43.2041 110.954 43.0549C110.828 42.9058 110.705 42.7313 110.585 42.5314C110.366 42.1662 110.234 41.8114 110.189 41.467C110.151 41.1241 110.222 40.799 110.404 40.4915C110.585 40.184 110.895 39.8987 111.333 39.6358L117.399 35.9966Z" fill="#286C5E"></path><path d="M125.477 53.0496L116.126 55.9487L115.528 54.022L120.632 48.3215L114.363 50.2649L113.766 48.3381L123.117 45.439L123.715 47.3657L118.607 53.0746L124.881 51.1292L125.477 53.0496Z" fill="#286C5E"></path><path d="M120.16 57.9877L120.3 57.9728C120.831 57.9163 121.327 57.9401 121.789 58.0442C122.255 58.1479 122.669 58.327 123.029 58.5816C123.39 58.8362 123.684 59.1655 123.912 59.5695C124.144 59.9731 124.29 60.449 124.348 60.9972C124.406 61.5455 124.365 62.0436 124.223 62.4914C124.086 62.9388 123.868 63.3249 123.569 63.6498C123.27 63.9791 122.904 64.2435 122.47 64.443C122.04 64.642 121.56 64.7697 121.03 64.8262L120.889 64.8411C120.364 64.8971 119.867 64.8733 119.401 64.7697C118.939 64.6656 118.525 64.4842 118.16 64.2256C117.799 63.971 117.505 63.6417 117.277 63.2377C117.049 62.8337 116.906 62.3576 116.848 61.8093C116.789 61.261 116.829 60.7632 116.966 60.3158C117.104 59.8729 117.322 59.4868 117.62 59.1575C117.924 58.8321 118.29 58.57 118.72 58.371C119.154 58.1715 119.634 58.0437 120.16 57.9877ZM120.505 59.8984L120.365 59.9134C120.062 59.9456 119.782 60.0025 119.524 60.084C119.267 60.1655 119.044 60.2749 118.856 60.4121C118.673 60.5534 118.535 60.7257 118.444 60.9293C118.353 61.1328 118.323 61.3728 118.352 61.6491C118.38 61.9166 118.461 62.1402 118.592 62.32C118.724 62.4998 118.894 62.6372 119.103 62.7322C119.316 62.8268 119.557 62.8868 119.825 62.9123C120.095 62.9422 120.381 62.9411 120.684 62.9088L120.824 62.8939C121.118 62.8625 121.392 62.8041 121.644 62.7187C121.901 62.6372 122.124 62.5256 122.312 62.3839C122.504 62.2462 122.648 62.0753 122.744 61.8713C122.839 61.6673 122.873 61.4293 122.844 61.1574C122.815 60.8855 122.732 60.6599 122.596 60.4805C122.46 60.3057 122.283 60.169 122.065 60.0704C121.852 59.9759 121.612 59.9159 121.343 59.8904C121.079 59.8644 120.799 59.8671 120.505 59.8984Z" fill="#286C5E"></path><path d="M119.182 69.5217L124.403 71.5496L124.284 72.7744L122.214 72.1744L117.228 70.1692L117.327 69.1453L119.182 69.5217ZM124.624 69.2809L119.158 69.8369L117.268 69.7543L117.385 68.5497L124.805 67.4204L124.624 69.2809ZM118.876 73.6399L124.047 75.2037L123.866 77.0709L116.803 74.5327L116.92 73.3347L118.876 73.6399ZM124.268 72.9417L118.795 73.9225L116.86 73.9437L116.961 72.9131L122.233 71.9061L124.385 71.7303L124.268 72.9417Z" fill="#286C5E"></path><path d="M118.135 88.1423L116.716 87.5994L118.073 84.0511L119.492 84.594L118.135 88.1423Z" fill="#286C5E"></path><path d="M109.762 99.3373L108.593 100.973C108.081 100.557 107.71 100.069 107.482 99.5094C107.252 98.9534 107.186 98.3585 107.287 97.7249C107.384 97.0949 107.666 96.4535 108.133 95.8007C108.498 95.2901 108.912 94.8949 109.377 94.6152C109.845 94.3381 110.348 94.1741 110.885 94.1232C111.421 94.0759 111.977 94.1456 112.554 94.3323C113.132 94.519 113.712 94.8209 114.295 95.238L114.848 95.6328C115.431 96.0499 115.904 96.5031 116.265 96.9925C116.627 97.4882 116.871 97.9987 116.997 98.524C117.12 99.0529 117.126 99.5836 117.016 100.116C116.905 100.649 116.671 101.165 116.314 101.664C115.84 102.328 115.319 102.802 114.753 103.086C114.184 103.373 113.598 103.492 112.995 103.441C112.389 103.394 111.799 103.203 111.222 102.868L112.395 101.227C112.729 101.438 113.047 101.569 113.347 101.618C113.651 101.671 113.94 101.626 114.212 101.484C114.485 101.349 114.752 101.099 115.012 100.734C115.208 100.46 115.327 100.185 115.371 99.9078C115.415 99.6306 115.383 99.3484 115.274 99.0613C115.165 98.7741 114.977 98.4825 114.709 98.1865C114.442 97.8967 114.097 97.6006 113.674 97.2982L113.111 96.8955C112.699 96.601 112.314 96.3727 111.956 96.2105C111.601 96.0509 111.271 95.9581 110.965 95.932C110.659 95.9121 110.379 95.9652 110.124 96.0912C109.869 96.2235 109.638 96.4355 109.429 96.7273C109.184 97.0701 109.037 97.3918 108.987 97.6925C108.938 97.9932 108.979 98.2787 109.111 98.5492C109.24 98.8234 109.457 99.086 109.762 99.3373Z" fill="#286C5E"></path><path d="M106.816 103.517L106.914 103.619C107.28 104.006 107.562 104.415 107.76 104.846C107.961 105.279 108.069 105.716 108.086 106.158C108.102 106.599 108.019 107.033 107.836 107.459C107.656 107.888 107.366 108.293 106.966 108.672C106.566 109.051 106.145 109.32 105.703 109.479C105.264 109.642 104.824 109.703 104.385 109.662C103.942 109.625 103.509 109.494 103.088 109.27C102.669 109.049 102.276 108.745 101.909 108.358L101.812 108.255C101.448 107.871 101.166 107.462 100.965 107.029C100.768 106.599 100.661 106.16 100.645 105.712C100.628 105.271 100.711 104.837 100.894 104.411C101.077 103.985 101.369 103.582 101.769 103.203C102.169 102.824 102.589 102.553 103.028 102.391C103.463 102.231 103.903 102.17 104.346 102.208C104.788 102.252 105.219 102.384 105.638 102.605C106.06 102.828 106.453 103.132 106.816 103.517ZM105.507 104.951L105.41 104.848C105.201 104.627 104.985 104.439 104.765 104.283C104.544 104.128 104.322 104.018 104.098 103.951C103.875 103.891 103.654 103.887 103.437 103.938C103.22 103.989 103.011 104.11 102.809 104.302C102.614 104.486 102.485 104.686 102.422 104.9C102.359 105.114 102.353 105.332 102.404 105.556C102.458 105.782 102.557 106.01 102.699 106.239C102.839 106.471 103.013 106.698 103.223 106.919L103.32 107.022C103.523 107.237 103.736 107.418 103.957 107.567C104.178 107.722 104.401 107.831 104.628 107.895C104.854 107.964 105.078 107.975 105.298 107.927C105.518 107.879 105.727 107.761 105.926 107.573C106.124 107.385 106.254 107.183 106.313 106.965C106.37 106.751 106.371 106.528 106.317 106.295C106.263 106.068 106.165 105.841 106.022 105.611C105.882 105.386 105.711 105.165 105.507 104.951Z" fill="#286C5E"></path><path d="M99.297 112.808L96.1329 108.041L97.7464 106.97L101.769 113.032L100.257 114.036L99.297 112.808ZM98.521 111.128L98.958 110.838C99.2554 111.287 99.4652 111.728 99.5874 112.164C99.712 112.603 99.7541 113.019 99.7135 113.412C99.6753 113.808 99.5571 114.169 99.3587 114.494C99.1591 114.826 98.88 115.111 98.5215 115.349C98.2376 115.537 97.9507 115.668 97.6609 115.742C97.3711 115.816 97.0826 115.819 96.7956 115.752C96.5048 115.686 96.2167 115.536 95.9312 115.3C95.642 115.067 95.3561 114.738 95.0735 114.312L92.508 110.446L94.1328 109.368L96.702 113.239C96.8805 113.508 97.0566 113.693 97.2305 113.792C97.4043 113.892 97.5839 113.924 97.7692 113.887C97.9533 113.856 98.1499 113.771 98.3591 113.633C98.5757 113.489 98.7358 113.321 98.8394 113.128C98.9393 112.938 98.9907 112.732 98.9936 112.509C98.9953 112.293 98.9554 112.067 98.8738 111.83C98.7923 111.594 98.6746 111.36 98.521 111.128Z" fill="#286C5E"></path><path d="M90.4988 119.569L89.9 118.335L93.7112 116.485L94.31 117.719L90.4988 119.569ZM94.15 119.792L92.4078 120.638L89.4048 114.449C89.3129 114.26 89.2182 114.126 89.1209 114.049C89.0195 113.974 88.9087 113.94 88.7883 113.949C88.6698 113.961 88.534 114.005 88.3807 114.079C88.2719 114.132 88.177 114.183 88.0962 114.232C88.0134 114.287 87.9446 114.336 87.89 114.377L87.2617 113.098C87.3874 112.977 87.5301 112.86 87.6898 112.748C87.8496 112.635 88.0343 112.528 88.244 112.427C88.6271 112.241 88.9922 112.141 89.3392 112.127C89.6841 112.119 90.0017 112.219 90.2919 112.427C90.5822 112.635 90.8389 112.969 91.0619 113.428L94.15 119.792Z" fill="#286C5E"></path><path d="M82.9163 116.387L83.94 119.462C84.0136 119.683 84.1128 119.86 84.2375 119.993C84.3636 120.131 84.518 120.219 84.7009 120.257C84.8795 120.297 85.0879 120.277 85.3261 120.198C85.5302 120.13 85.6947 120.035 85.8195 119.913C85.9457 119.796 86.0272 119.657 86.0642 119.499C86.1025 119.344 86.0926 119.18 86.0346 119.005L87.872 118.394C87.9696 118.687 87.9943 118.988 87.946 119.297C87.8977 119.606 87.7771 119.904 87.5842 120.19C87.3927 120.481 87.1375 120.743 86.8184 120.977C86.4951 121.212 86.1102 121.404 85.6636 121.553C85.1277 121.731 84.6216 121.8 84.1453 121.76C83.6691 121.72 83.2524 121.562 82.8952 121.284C82.5339 121.007 82.264 120.601 82.0856 120.065L81.1022 117.111C80.9762 116.733 80.8495 116.43 80.722 116.203C80.5959 115.98 80.4585 115.795 80.3097 115.646L80.2736 115.537L82.1301 114.919C82.2817 115.077 82.4276 115.288 82.5679 115.553C82.7053 115.824 82.8214 116.102 82.9163 116.387ZM83.5552 119.115L83.1963 118.079L84.2234 117.737C84.4659 117.657 84.6672 117.559 84.8274 117.444C84.9876 117.329 85.1082 117.202 85.189 117.062C85.2713 116.926 85.3181 116.782 85.3295 116.632C85.3367 116.483 85.3141 116.33 85.2617 116.173C85.2093 116.015 85.1257 115.885 85.0109 115.781C84.8976 115.682 84.7608 115.619 84.6006 115.592C84.4419 115.569 84.271 115.588 84.0881 115.649C83.8117 115.741 83.5898 115.877 83.4225 116.055C83.2551 116.234 83.1431 116.422 83.0863 116.621C83.0252 116.82 83.0167 116.993 83.0606 117.139L82.3166 116.523C82.3266 116.325 82.36 116.114 82.4168 115.887C82.4693 115.661 82.5573 115.436 82.6807 115.211C82.8055 114.99 82.9757 114.784 83.1912 114.594C83.4082 114.409 83.6889 114.259 84.0334 114.144C84.4715 113.998 84.8982 113.953 85.3135 114.008C85.726 114.069 86.0881 114.22 86.3999 114.462C86.7088 114.708 86.9299 115.032 87.063 115.431C87.1833 115.793 87.2222 116.137 87.1795 116.463C87.1369 116.789 87.0155 117.091 86.8156 117.371C86.6127 117.655 86.3277 117.913 85.9605 118.144C85.5947 118.379 85.1481 118.585 84.6207 118.76L83.5552 119.115Z" fill="#286C5E"></path><path d="M75.5941 117.844C75.3594 117.881 75.1583 117.958 74.9906 118.075C74.8236 118.196 74.7021 118.347 74.626 118.527C74.5461 118.712 74.5217 118.917 74.5528 119.144L72.7526 119.427C72.6778 118.921 72.7422 118.45 72.946 118.015C73.1505 117.583 73.4587 117.219 73.8705 116.923C74.283 116.632 74.766 116.442 75.3196 116.355C75.8775 116.268 76.3793 116.284 76.8248 116.405C77.2658 116.526 77.6493 116.729 77.9754 117.014C78.3021 117.303 78.5685 117.656 78.7746 118.073C78.9815 118.494 79.1245 118.957 79.2038 119.462L79.2341 119.654C79.314 120.164 79.3198 120.648 79.2514 121.108C79.1836 121.573 79.0382 121.99 78.8151 122.361C78.5927 122.736 78.2902 123.049 77.9076 123.3C77.525 123.551 77.0569 123.719 76.5033 123.806C75.9143 123.899 75.3807 123.867 74.9024 123.711C74.4196 123.555 74.019 123.287 73.7005 122.906C73.3783 122.53 73.1701 122.056 73.076 121.486L74.8761 121.203C74.9181 121.442 75.0031 121.651 75.1312 121.83C75.2548 122.01 75.4164 122.144 75.616 122.23C75.8119 122.322 76.0405 122.348 76.3018 122.307C76.5808 122.263 76.7995 122.167 76.9578 122.02C77.1169 121.877 77.2291 121.696 77.2946 121.477C77.3607 121.262 77.3935 121.023 77.393 120.76C77.3888 120.502 77.3648 120.234 77.321 119.955L77.2907 119.762C77.2469 119.483 77.1871 119.218 77.1114 118.967C77.0356 118.715 76.9334 118.498 76.8046 118.314C76.6715 118.131 76.5073 117.995 76.3121 117.908C76.1169 117.821 75.8776 117.799 75.5941 117.844Z" fill="#286C5E"></path><path d="M66.8363 124.424L66.8011 123.053L71.0358 122.944L71.071 124.315L66.8363 124.424ZM70.0686 126.137L68.1327 126.186L67.9559 119.31C67.9505 119.099 67.9195 118.939 67.8628 118.828C67.8017 118.718 67.7145 118.641 67.6013 118.599C67.4883 118.562 67.3466 118.545 67.1763 118.55C67.0553 118.553 66.9479 118.56 66.854 118.571C66.7558 118.587 66.6732 118.603 66.6063 118.618L66.563 117.193C66.7274 117.135 66.9055 117.088 67.0974 117.052C67.2893 117.016 67.5018 116.994 67.7348 116.988C68.1605 116.977 68.5342 117.037 68.856 117.168C69.1733 117.303 69.4212 117.526 69.5995 117.835C69.7779 118.144 69.8736 118.554 69.8868 119.065L70.0686 126.137Z" fill="#286C5E"></path><path d="M51.2187 124.797L53.2817 115.227L55.2536 115.652L57.716 122.896L59.0988 116.48L61.0707 116.905L59.0078 126.476L57.0359 126.051L54.5683 118.799L53.1841 125.221L51.2187 124.797Z" fill="#286C5E"></path><path d="M49.5095 117.732L49.4535 117.862C49.242 118.351 48.9774 118.772 48.6597 119.123C48.3403 119.478 47.981 119.75 47.582 119.939C47.183 120.128 46.7516 120.222 46.2877 120.222C45.8221 120.226 45.3363 120.119 44.8301 119.9C44.3239 119.682 43.9106 119.4 43.5902 119.057C43.2681 118.718 43.039 118.338 42.9031 117.918C42.763 117.496 42.7128 117.047 42.7524 116.571C42.7902 116.099 42.9149 115.618 43.1264 115.128L43.1824 114.999C43.3922 114.513 43.6568 114.093 43.9762 113.738C44.2939 113.387 44.6552 113.115 45.0601 112.924C45.4592 112.735 45.8906 112.641 46.3544 112.641C46.8182 112.641 47.3032 112.75 47.8094 112.969C48.3156 113.188 48.7297 113.467 49.0519 113.806C49.37 114.144 49.599 114.523 49.7391 114.945C49.8733 115.369 49.9214 115.817 49.8836 116.289C49.844 116.765 49.7193 117.246 49.5095 117.732ZM47.6758 117.094L47.7318 116.964C47.8526 116.684 47.9408 116.412 47.9963 116.148C48.0518 115.884 48.0661 115.636 48.0391 115.405C48.0062 115.176 47.9235 114.971 47.7909 114.792C47.6584 114.613 47.4646 114.468 47.2095 114.358C46.9626 114.251 46.7284 114.211 46.507 114.238C46.2856 114.264 46.0823 114.345 45.8971 114.48C45.7101 114.618 45.5395 114.799 45.3852 115.02C45.2269 115.24 45.0872 115.49 44.9664 115.769L44.9104 115.899C44.7931 116.171 44.7096 116.437 44.66 116.699C44.6045 116.963 44.5923 117.212 44.6234 117.445C44.6487 117.681 44.7266 117.89 44.8574 118.074C44.9881 118.257 45.179 118.403 45.43 118.511C45.681 118.62 45.9181 118.659 46.1413 118.628C46.3604 118.596 46.5663 118.509 46.7592 118.368C46.9462 118.229 47.1168 118.048 47.2711 117.827C47.4236 117.61 47.5585 117.365 47.6758 117.094Z" fill="#286C5E"></path><path d="M40.0242 111.256L35.6892 114.803L34.6818 114.096L36.2227 112.59L40.4225 109.236L41.2648 109.826L40.0242 111.256ZM37.5555 116.111L39.7616 111.08L40.7639 109.475L41.7548 110.17L39.0859 117.185L37.5555 116.111ZM36.5899 108.963L32.6834 112.695L31.1474 111.617L36.8331 106.719L37.8186 107.41L36.5899 108.963ZM34.5441 113.999L36.3841 108.753L37.3176 107.058L38.1654 107.653L36.4468 112.739L35.5406 114.698L34.5441 113.999Z" fill="#286C5E"></path><path d="M24.3148 101.181L25.4838 100.21L27.9112 103.133L26.7422 104.104L24.3148 101.181Z" fill="#286C5E"></path><path d="M18.6487 88.4013L17.795 86.5811C18.4087 86.3378 19.0154 86.2538 19.6151 86.329C20.2129 86.4002 20.7635 86.6346 21.2669 87.0323C21.7684 87.4259 22.1895 87.9859 22.5302 88.7124C22.7967 89.2806 22.9382 89.8356 22.9546 90.3774C22.9671 90.9212 22.8638 91.44 22.6448 91.9338C22.424 92.4236 22.0908 92.8745 21.6453 93.2864C21.1998 93.6983 20.6524 94.0566 20.003 94.3611L19.3881 94.6495C18.7388 94.9541 18.1124 95.1439 17.5089 95.219C16.8994 95.2919 16.3348 95.2547 15.8152 95.1073C15.2936 94.9558 14.8277 94.7014 14.4175 94.3442C14.0074 93.987 13.6719 93.5304 13.4112 92.9744C13.0647 92.2357 12.9065 91.5499 12.9364 90.917C12.9644 90.28 13.1482 89.7111 13.4876 89.2102C13.8252 88.7053 14.281 88.2836 14.855 87.9451L15.7115 89.7714C15.3639 89.9592 15.0948 90.172 14.9044 90.4099C14.7098 90.6497 14.6077 90.9229 14.598 91.2294C14.5824 91.5338 14.6697 91.889 14.86 92.2948C15.0028 92.5992 15.1843 92.8384 15.4045 93.0124C15.6248 93.1864 15.8867 93.2962 16.1904 93.3419C16.494 93.3877 16.8405 93.3663 17.2297 93.2778C17.613 93.1872 18.0401 93.0314 18.5109 92.8106L19.1379 92.5166C19.5965 92.3015 19.9841 92.0776 20.3008 91.8449C20.6134 91.6141 20.8562 91.3715 21.029 91.1172C21.1959 90.8607 21.2869 90.5902 21.302 90.3059C21.3112 90.0193 21.2397 89.7137 21.0874 89.389C20.9085 89.0075 20.7001 88.7216 20.4622 88.5311C20.2244 88.3406 19.9553 88.2366 19.6549 88.219C19.3526 88.1974 19.0172 88.2582 18.6487 88.4013Z" fill="#286C5E"></path><path d="M16.4431 83.7736L16.306 83.8077C15.7884 83.9366 15.2937 83.9813 14.8219 83.9418C14.3457 83.9033 13.9115 83.7828 13.5192 83.5802C13.1269 83.3776 12.7901 83.0919 12.5088 82.7231C12.2232 82.3554 12.0138 81.904 11.8805 81.369C11.7473 80.834 11.72 80.3349 11.7987 79.8718C11.873 79.4099 12.0359 78.9974 12.2874 78.6345C12.5377 78.2672 12.8642 77.9549 13.2667 77.6976C13.6648 77.4414 14.1227 77.2488 14.6403 77.1199L14.7773 77.0858C15.2906 76.9579 15.7853 76.9132 16.2615 76.9517C16.7333 76.9913 17.1681 77.114 17.5658 77.3198C17.9581 77.5224 18.2949 77.808 18.5762 78.1768C18.8574 78.5457 19.0647 78.9976 19.198 79.5326C19.3312 80.0676 19.3607 80.5661 19.2863 81.0281C19.2109 81.4858 19.048 81.8982 18.7976 82.2655C18.5418 82.6295 18.2149 82.9396 17.8167 83.1958C17.4142 83.4532 16.9563 83.6457 16.4431 83.7736ZM15.838 81.9286L15.975 81.8945C16.2708 81.8208 16.5405 81.7259 16.7842 81.6098C17.0278 81.4937 17.2334 81.3547 17.401 81.1928C17.5631 81.0277 17.6753 80.8381 17.7374 80.624C17.7996 80.4098 17.7971 80.1679 17.7299 79.8982C17.6649 79.6373 17.5547 79.4268 17.3994 79.2668C17.2441 79.1069 17.0566 78.9942 16.8371 78.9288C16.6132 78.8644 16.3664 78.8381 16.0967 78.8498C15.826 78.8572 15.5428 78.8977 15.247 78.9714L15.11 79.0055C14.8229 79.077 14.5602 79.1725 14.322 79.2919C14.0784 79.408 13.8733 79.5491 13.7068 79.7153C13.5349 79.8783 13.4157 80.0673 13.3492 80.2825C13.2827 80.4978 13.2825 80.738 13.3486 81.0034C13.4147 81.2687 13.5275 81.4808 13.6872 81.6397C13.8458 81.7942 14.0398 81.9053 14.2691 81.9729C14.493 82.0372 14.7398 82.0635 15.0095 82.0518C15.2747 82.0412 15.5509 82.0001 15.838 81.9286Z" fill="#286C5E"></path><path d="M12.061 72.6747L17.7686 72.2668L17.9067 74.1984L10.6498 74.717L10.5204 72.9061L12.061 72.6747ZM13.9054 72.826L13.9428 73.3491C13.4063 73.3875 12.9184 73.3527 12.4793 73.2448C12.0357 73.1371 11.6529 72.969 11.3309 72.7403C11.0045 72.512 10.7485 72.2314 10.563 71.8986C10.3726 71.5617 10.2621 71.1786 10.2314 70.7494C10.2071 70.4095 10.2341 70.0953 10.3124 69.8066C10.3906 69.5178 10.5298 69.2652 10.7301 69.0487C10.93 68.8276 11.2027 68.6509 11.5483 68.5183C11.8936 68.3813 12.321 68.2946 12.8308 68.2581L17.4585 67.9274L17.5975 69.8725L12.963 70.2036C12.6411 70.2266 12.3939 70.2892 12.2215 70.3914C12.049 70.4936 11.9332 70.6345 11.8741 70.814C11.8103 70.9893 11.7873 71.2022 11.8052 71.4526C11.8237 71.7119 11.8913 71.934 12.0078 72.119C12.1241 72.2994 12.2784 72.4457 12.4706 72.5578C12.6581 72.6657 12.8748 72.7424 13.1207 72.7877C13.3667 72.833 13.6282 72.8458 13.9054 72.826Z" fill="#286C5E"></path><path d="M10.5021 61.6003L11.8711 61.6861L11.6061 65.9139L10.2371 65.8281L10.5021 61.6003ZM8.51093 64.6689L8.63208 62.7362L15.4973 63.1665C15.7076 63.1797 15.8703 63.1629 15.9855 63.1163C16.101 63.0651 16.1846 62.985 16.2364 62.876C16.2836 62.7667 16.3126 62.627 16.3233 62.457C16.3308 62.3362 16.3331 62.2285 16.33 62.134C16.3228 62.0348 16.3146 61.9511 16.3053 61.8832L17.7285 61.9657C17.7718 62.1346 17.8031 62.3162 17.8223 62.5105C17.8416 62.7049 17.8439 62.9184 17.8293 63.151C17.8027 63.576 17.7101 63.943 17.5515 64.252C17.3887 64.5562 17.1454 64.7834 16.8215 64.9338C16.4977 65.0842 16.0808 65.1434 15.5707 65.1114L8.51093 64.6689Z" fill="#286C5E"></path><path d="M16.9939 56.5834L13.8123 55.9661C13.5834 55.9217 13.3803 55.9211 13.203 55.9643C13.0213 56.0066 12.8688 56.0981 12.7457 56.2386C12.6234 56.3747 12.5383 56.5659 12.4905 56.8124C12.4495 57.0236 12.4515 57.2135 12.4964 57.382C12.5369 57.5497 12.6173 57.6886 12.7375 57.7986C12.8533 57.9079 13.0014 57.98 13.1818 58.015L12.813 59.9161C12.5093 59.8571 12.2348 59.7308 11.9892 59.5371C11.7437 59.3433 11.5436 59.0921 11.3888 58.7836C11.2297 58.4741 11.1266 58.1231 11.0795 57.7304C11.0332 57.3333 11.055 56.9037 11.1446 56.4416C11.2522 55.8871 11.4402 55.4122 11.7087 55.0168C11.9772 54.6214 12.3202 54.3364 12.7377 54.1616C13.156 53.9825 13.6424 53.9468 14.1969 54.0543L17.2531 54.6473C17.6448 54.7233 17.9707 54.7615 18.2309 54.7617C18.4868 54.7611 18.716 54.7326 18.9188 54.676L19.031 54.6978L18.6583 56.6186C18.4468 56.6735 18.1911 56.6969 17.8912 56.689C17.5879 56.6758 17.2887 56.6406 16.9939 56.5834ZM14.3032 55.801L15.3817 55.9966L15.1755 57.0593C15.1268 57.3102 15.1132 57.5336 15.1345 57.7295C15.1559 57.9254 15.2078 58.093 15.2904 58.2323C15.3685 58.3708 15.4703 58.4818 15.5956 58.5655C15.7218 58.6448 15.8663 58.7002 16.0291 58.7318C16.1919 58.7634 16.3466 58.7546 16.4931 58.7054C16.6353 58.6554 16.7574 58.5672 16.8595 58.4409C16.9573 58.3137 17.0245 58.1555 17.0612 57.9663C17.1167 57.6803 17.1077 57.4205 17.0343 57.1871C16.9609 56.9537 16.8516 56.7635 16.7066 56.6167C16.5624 56.4654 16.416 56.3731 16.2672 56.3396L17.1699 55.9942C17.3366 56.0996 17.5049 56.2327 17.6746 56.3935C17.8452 56.5499 17.9983 56.7372 18.1341 56.9553C18.2655 57.1726 18.361 57.4217 18.4206 57.7027C18.4758 57.9828 18.4689 58.3011 18.3997 58.6575C18.3118 59.1108 18.1417 59.5048 17.8896 59.8394C17.6339 60.1688 17.3245 60.4101 16.9614 60.5634C16.5948 60.7115 16.2046 60.7454 15.791 60.6651C15.4169 60.5925 15.0983 60.4577 14.8352 60.2605C14.5721 60.0633 14.368 59.8091 14.2229 59.4978C14.0743 59.1813 13.9895 58.8064 13.9685 58.3731C13.9432 57.939 13.9834 57.4491 14.0893 56.9034L14.3032 55.801Z" fill="#286C5E"></path><path d="M19.3259 49.4719C19.4091 49.2494 19.4409 49.0363 19.4213 48.8328C19.3974 48.6277 19.3259 48.4478 19.2066 48.2931C19.0847 48.1327 18.9175 48.0104 18.7049 47.9262L19.3429 46.2193C19.82 46.4024 20.1983 46.6898 20.4779 47.0814C20.7532 47.4714 20.9187 47.9185 20.9743 48.4227C21.0258 48.9252 20.9534 49.439 20.7572 49.9638C20.5595 50.4929 20.2986 50.9218 19.9748 51.2506C19.6524 51.5752 19.2873 51.8096 18.8792 51.9538C18.467 52.0964 18.0287 52.1551 17.5644 52.1299C17.0958 52.1031 16.6222 52.0003 16.1435 51.8214L15.9609 51.7531C15.478 51.5726 15.053 51.3396 14.686 51.054C14.3147 50.7669 14.0224 50.4351 13.809 50.0586C13.5914 49.6806 13.4674 49.2634 13.437 48.8069C13.4066 48.3505 13.4895 47.8599 13.6857 47.335C13.8944 46.7766 14.1843 46.3274 14.5554 45.9875C14.9281 45.6435 15.3586 45.4263 15.847 45.3361C16.3327 45.2401 16.8472 45.2912 17.3904 45.4895L16.7524 47.1964C16.5241 47.1158 16.3003 47.0872 16.081 47.1105C15.8633 47.1296 15.6677 47.2049 15.4942 47.3362C15.318 47.4618 15.1836 47.6485 15.091 47.8962C14.9922 48.1607 14.968 48.3982 15.0186 48.6085C15.065 48.8173 15.1675 49.0039 15.3261 49.1685C15.4806 49.3315 15.6725 49.4774 15.9019 49.6062C16.1287 49.7293 16.3743 49.8403 16.6389 49.9391L16.8215 50.0074C17.0861 50.1063 17.3464 50.1844 17.6025 50.2419C17.8586 50.2993 18.0984 50.3172 18.3218 50.2954C18.5469 50.2695 18.7454 50.1929 18.9173 50.0658C19.0893 49.9386 19.2255 49.7407 19.3259 49.4719Z" fill="#286C5E"></path><path d="M17.9027 38.617L19.1137 39.2613L17.1241 43.0011L15.9131 42.3569L17.9027 38.617ZM14.8208 40.5876L15.7303 38.878L21.8031 42.1087C21.9891 42.2076 22.1442 42.2597 22.2684 42.2648C22.3947 42.266 22.504 42.2276 22.5962 42.1497C22.6844 42.0698 22.7686 41.9546 22.8486 41.8042C22.9054 41.6973 22.952 41.6002 22.9883 41.5129C23.0227 41.4195 23.0498 41.34 23.0695 41.2743L24.3311 41.9379C24.3007 42.1096 24.2541 42.2879 24.1913 42.4728C24.1285 42.6577 24.0423 42.8531 23.9328 43.0589C23.7328 43.4348 23.4967 43.7307 23.2246 43.9464C22.9506 44.156 22.635 44.2624 22.278 44.2654C21.921 44.2684 21.5169 44.1499 21.0657 43.9099L14.8208 40.5876Z" fill="#286C5E"></path><path d="M25.2491 24.8774L32.5638 31.3845L31.223 32.8917L23.7053 31.4686L28.6085 35.8306L27.2678 37.3377L19.9531 30.8306L21.2939 29.3234L28.8211 30.7459L23.9128 26.3795L25.2491 24.8774Z" fill="#286C5E"></path><path d="M32.2211 26.8747L32.1355 26.7623C31.8123 26.338 31.5755 25.9013 31.4251 25.4523C31.272 24.9998 31.2109 24.5533 31.2417 24.1129C31.2725 23.6724 31.4016 23.2501 31.629 22.8459C31.8537 22.4381 32.1854 22.0671 32.624 21.733C33.0627 21.3989 33.5102 21.1764 33.9666 21.0654C34.4203 20.9509 34.8636 20.9373 35.2964 21.0246C35.7327 21.1093 36.1487 21.2855 36.5443 21.5533C36.9371 21.8176 37.2952 22.1619 37.6184 22.5863L37.7039 22.6986C38.0244 23.1194 38.2612 23.5561 38.4143 24.0086C38.5647 24.4575 38.624 24.9054 38.5924 25.3521C38.5616 25.7925 38.4325 26.2149 38.2051 26.6191C37.9776 27.0234 37.6446 27.3925 37.206 27.7266C36.7674 28.0607 36.3212 28.285 35.8675 28.3995C35.4173 28.5114 34.9741 28.525 34.5377 28.4403C34.1022 28.3494 33.6881 28.1719 33.2952 27.9076C32.8996 27.6398 32.5416 27.2955 32.2211 26.8747ZM33.6761 25.5889L33.7616 25.7013C33.9463 25.9438 34.1402 26.1539 34.3432 26.3317C34.5463 26.5095 34.7553 26.6434 34.9702 26.7332C35.186 26.8168 35.4045 26.8448 35.6258 26.8171C35.847 26.7895 36.0682 26.6915 36.2893 26.5231C36.5033 26.3601 36.653 26.1756 36.7384 25.9697C36.8238 25.7637 36.8532 25.547 36.8264 25.3195C36.7969 25.0884 36.7234 24.8513 36.6059 24.6083C36.492 24.3626 36.3427 24.1185 36.158 23.876L36.0725 23.7637C35.8932 23.5283 35.7016 23.3249 35.4977 23.1534C35.2947 22.9756 35.0839 22.8431 34.8654 22.756C34.6477 22.6625 34.4269 22.6279 34.203 22.6519C33.979 22.676 33.7583 22.7709 33.5407 22.9366C33.3232 23.1023 33.1731 23.2899 33.0904 23.4994C33.0112 23.7062 32.9859 23.9283 33.0146 24.1656C33.0441 24.3967 33.1176 24.6338 33.2351 24.8768C33.3498 25.1162 33.4968 25.3536 33.6761 25.5889Z" fill="#286C5E"></path><path d="M42.5068 21.7809L41.537 16.2647L42.6463 15.7322L43.2053 17.8133L44.0732 23.1174L43.1458 23.5626L42.5068 21.7809ZM39.482 17.2511L42.7888 21.6381L43.6974 23.2978L42.6063 23.8216L37.7969 18.0601L39.482 17.2511ZM46.188 19.9094L44.8467 14.6759L46.5379 13.864L48.0255 21.2201L46.9405 21.741L46.188 19.9094ZM42.7978 15.6594L46.4719 19.8328L47.4921 21.4762L46.5586 21.9243L42.9657 17.9357L41.7007 16.1861L42.7978 15.6594Z" fill="#286C5E"></path><path d="M59.0123 13.0369L59.2818 14.5324L55.5429 15.206L55.2734 13.7104L59.0123 13.0369Z" fill="#286C5E"></path><defs><clipPath id="clip0_1140_163"><rect width="33.0237" height="33.0237" fill="white" transform="translate(50.4531 50.3823)"></rect></clipPath></defs></svg>