<svg xmlns="http://www.w3.org/2000/svg" width="36" height="37" viewBox="0 0 36 37" fill="none"><path d="M5.77642 9.28947H17.7055C18.0055 9.28947 18.2455 9.04947 18.2455 8.74947V4.69674C18.2455 4.39674 18.0055 4.15674 17.7055 4.15674H5.77642C5.47642 4.15674 5.23642 4.39674 5.23642 4.69674V8.74401C5.23096 9.04401 5.47642 9.28947 5.77642 9.28947ZM6.31642 5.24219H17.1655V8.20947H6.31642V5.24219Z" fill="white"></path><path d="M10.0418 11.8914H4.69088C4.39088 11.8914 4.15088 12.1314 4.15088 12.4314V17.0568C4.15088 17.3568 4.39088 17.5968 4.69088 17.5968H10.0418C10.3418 17.5968 10.5818 17.3568 10.5818 17.0568V12.4314C10.5818 12.1368 10.3418 11.8914 10.0418 11.8914ZM9.49633 16.5223H5.23088V12.9768H9.49633V16.5223Z" fill="white"></path><path d="M11.8363 13.4786C11.8363 13.7786 12.0763 14.0186 12.3763 14.0186H24.8836C25.1836 14.0186 25.4236 13.7786 25.4236 13.4786C25.4236 13.1786 25.1836 12.9386 24.8836 12.9386H12.3763C12.0763 12.9331 11.8363 13.1786 11.8363 13.4786Z" fill="white"></path><path d="M12.3763 16.5605H21.5345C21.8345 16.5605 22.0745 16.3205 22.0745 16.0205C22.0745 15.7205 21.8345 15.4805 21.5345 15.4805H12.3763C12.0763 15.4805 11.8363 15.7205 11.8363 16.0205C11.8363 16.3205 12.0763 16.5605 12.3763 16.5605Z" fill="white"></path><path d="M22.3254 20.2368H12.3763C12.0763 20.2368 11.8363 20.4768 11.8363 20.7768C11.8363 21.0768 12.0763 21.3168 12.3763 21.3168H22.3254C22.6254 21.3168 22.8654 21.0768 22.8654 20.7768C22.8654 20.4768 22.6254 20.2368 22.3254 20.2368Z" fill="white"></path><path d="M12.3763 22.7842C12.0763 22.7842 11.8363 23.0242 11.8363 23.3242C11.8363 23.6242 12.0763 23.8642 12.3763 23.8642H18.5563C18.8563 23.8642 19.0963 23.6242 19.0963 23.3242C19.0963 23.0242 18.8563 22.7842 18.5563 22.7842H12.3763Z" fill="white"></path><path d="M19.6254 27.5405H12.3763C12.0763 27.5405 11.8363 27.7805 11.8363 28.0805C11.8363 28.3805 12.0763 28.6205 12.3763 28.6205H19.6254C19.9254 28.6205 20.1654 28.3805 20.1654 28.0805C20.1654 27.7805 19.9254 27.5405 19.6254 27.5405Z" fill="white"></path><path d="M16.6908 30.0876H12.3763C12.0763 30.0876 11.8363 30.3276 11.8363 30.6276C11.8363 30.9276 12.0763 31.1676 12.3763 31.1676H16.6908C16.9908 31.1676 17.2308 30.9276 17.2308 30.6276C17.2308 30.3276 16.9908 30.0876 16.6908 30.0876Z" fill="white"></path><path d="M10.0418 19.1951H4.69088C4.39088 19.1951 4.15088 19.4351 4.15088 19.7351V24.3605C4.15088 24.6605 4.39088 24.9005 4.69088 24.9005H10.0418C10.3418 24.9005 10.5818 24.6605 10.5818 24.3605V19.7351C10.5818 19.4405 10.3418 19.1951 10.0418 19.1951ZM9.49633 23.826H5.23088V20.2805H9.49633V23.826Z" fill="white"></path><path d="M10.0418 26.4985H4.69088C4.39088 26.4985 4.15088 26.7385 4.15088 27.0385V31.664C4.15088 31.964 4.39088 32.204 4.69088 32.204H10.0418C10.3418 32.204 10.5818 31.964 10.5818 31.664V27.0385C10.5818 26.744 10.3418 26.4985 10.0418 26.4985ZM9.49633 31.1294H5.23088V27.584H9.49633V31.1294Z" fill="white"></path><path d="M6.61093 15.5023C6.71457 15.6059 6.85093 15.6605 6.99275 15.6605C7.13457 15.6605 7.27638 15.6059 7.37457 15.5023L8.47638 14.4005C8.68911 14.1877 8.68911 13.8441 8.47638 13.6368C8.26366 13.4241 7.92002 13.4241 7.71275 13.6368L6.99275 14.3568L6.92184 14.2859C6.70911 14.0732 6.36548 14.0732 6.1582 14.2859C5.94548 14.4987 5.94548 14.8423 6.1582 15.0496L6.61093 15.5023Z" fill="white"></path><path d="M6.61093 22.9859C6.71457 23.0896 6.85093 23.1441 6.99275 23.1441C7.13457 23.1441 7.27638 23.0896 7.37457 22.9859L8.47638 21.8841C8.68911 21.6714 8.68911 21.3278 8.47638 21.1205C8.26366 20.9078 7.92002 20.9078 7.71275 21.1205L6.99275 21.8405L6.92184 21.7696C6.70911 21.5568 6.36548 21.5568 6.1582 21.7696C5.94548 21.9823 5.94548 22.3259 6.1582 22.5332L6.61093 22.9859Z" fill="white"></path><path d="M33.9273 10.2386L31.0636 9.04407C30.7091 8.89679 30.3164 8.89679 29.9618 9.03861C29.6073 9.18589 29.3291 9.45861 29.1818 9.81316L28.3364 11.8313L27.9927 12.655V8.4277C27.9927 8.41679 27.9873 8.41134 27.9873 8.40589C27.9873 8.35134 27.9764 8.30225 27.9545 8.25316C27.9491 8.23679 27.9436 8.22043 27.9382 8.20407C27.9109 8.14952 27.8836 8.10043 27.84 8.05679C27.8345 8.05134 27.8345 8.04589 27.8291 8.04589L20.9564 1.1677C20.9509 1.16225 20.9345 1.15679 20.9291 1.15134C20.8909 1.11861 20.8473 1.08589 20.8036 1.06407C20.7818 1.05316 20.7654 1.0477 20.7436 1.04225C20.7 1.02589 20.6564 1.02043 20.6127 1.01498C20.6018 1.01498 20.5854 1.00952 20.5745 1.00952H3.81272C2.36727 1.00952 1.18909 2.1877 1.18909 3.63316V33.295C1.18909 34.7459 2.36727 35.9241 3.81818 35.9241H25.3636C26.8145 35.9241 27.9927 34.7459 27.9927 33.295V28.1895L33.8618 14.1441L34.7073 12.1259C35.0073 11.3895 34.6582 10.5441 33.9273 10.2386ZM30.18 10.2332C30.2182 10.1459 30.2836 10.075 30.3709 10.0422C30.4582 10.0095 30.5564 10.0041 30.6436 10.0422L33.5073 11.2368C33.6873 11.3132 33.7745 11.5204 33.6982 11.7059L33.0654 13.2277L29.5418 11.755L30.18 10.2332ZM29.1273 12.7532L30.3873 13.2822L24.3 27.8513L23.04 27.3223L29.1273 12.7532ZM24.3818 29.0623L25.8491 29.6732L23.1109 32.1004L22.9145 28.4513L24.3818 29.0623ZM26.5582 28.795L25.2982 28.2659L31.3854 13.6913L32.6454 14.2204L26.5582 28.795ZM26.1436 7.89316H21.9218C21.48 7.89316 21.12 7.53316 21.12 7.09134V2.85861L26.1436 7.89316ZM25.3636 34.8332H3.81272C2.96181 34.8332 2.26909 34.1404 2.26909 33.2895V3.63316C2.26909 2.7877 2.96181 2.09498 3.81272 2.09498H20.0291V7.09134C20.0291 8.13316 20.8745 8.97861 21.9164 8.97861H26.9018V15.2568L21.8291 27.4095C21.8236 27.415 21.8291 27.4259 21.8236 27.4313C21.8018 27.4859 21.7909 27.5404 21.7909 27.6004V27.6277V27.6495L22.0964 33.2841C22.1073 33.4913 22.2382 33.6768 22.4291 33.7532C22.4945 33.7804 22.5654 33.7968 22.6364 33.7968C22.7673 33.7968 22.8927 33.7477 22.9964 33.6604L26.9127 30.1859V33.295C26.9073 34.1459 26.2145 34.8332 25.3636 34.8332Z" fill="white"></path></svg>
