<svg xmlns="http://www.w3.org/2000/svg" width="26" height="26" viewBox="0 0 26 26" fill="none"><g clip-path="url(#clip0_202_204)"><path d="M25.4518 14.3369C25.2273 12.0792 24.2187 9.9507 22.6115 8.3435C21.2381 6.97009 19.557 6.0875 17.7881 5.69507V4.45442C18.5106 4.27468 19.0476 3.62072 19.0476 2.84341C19.0476 1.92797 18.3029 1.18323 17.3874 1.18323H13.8717C12.9563 1.18323 12.2116 1.92797 12.2116 2.84341C12.2116 3.62067 12.7486 4.27463 13.471 4.45442V5.69853C11.7075 6.09263 10.032 6.97399 8.66248 8.34354C8.36277 8.64326 8.0864 8.95766 7.83342 9.28443C7.82116 9.2835 7.8089 9.28257 7.7964 9.28257H4.31681C4.04717 9.28257 3.82852 9.50118 3.82852 9.77086C3.82852 10.0405 4.04717 10.2592 4.31681 10.2592H7.169C6.81099 10.8585 6.52231 11.488 6.30258 12.1359H0.988289C0.718656 12.1359 0.5 12.3545 0.5 12.6242C0.5 12.8939 0.718656 13.1125 0.988289 13.1125H6.02665C5.88592 13.7302 5.80516 14.3589 5.78431 14.9894H3.62505C3.35542 14.9894 3.13676 15.208 3.13676 15.4776C3.13676 15.7473 3.35542 15.9659 3.62505 15.9659H5.79989C5.8411 16.598 5.94271 17.2267 6.10477 17.8428H2.94144C2.67181 17.8428 2.45316 18.0614 2.45316 18.3311C2.45316 18.6007 2.67181 18.8193 2.94144 18.8193H6.4164C6.89541 20.0865 7.64401 21.2742 8.66248 22.2926C10.2712 23.9014 12.4019 24.9103 14.662 25.1336C14.9846 25.1654 15.3074 25.1812 15.6297 25.1812C17.5351 25.1812 19.4163 24.6297 21.0125 23.5903C21.2385 23.4431 21.3024 23.1406 21.1553 22.9146C21.0081 22.6886 20.7056 22.6247 20.4796 22.7719C16.9856 25.0472 12.3061 24.5552 9.35302 21.6021C5.88802 18.1371 5.88802 12.4992 9.35302 9.03413C12.818 5.56919 18.4559 5.56919 21.9209 9.03413C24.8702 11.9834 25.3648 16.6588 23.097 20.1511C22.9502 20.3773 23.0145 20.6798 23.2406 20.8266C23.4669 20.9735 23.7692 20.9092 23.916 20.683C25.1277 18.817 25.6731 16.5633 25.4518 14.3369ZM13.1881 2.84346C13.1881 2.4665 13.4948 2.15985 13.8717 2.15985H17.3874C17.7644 2.15985 18.071 2.4665 18.071 2.84346C18.071 3.22042 17.7644 3.52706 17.3874 3.52706H17.2998H13.9593H13.8717C13.4948 3.52706 13.1881 3.22037 13.1881 2.84346ZM14.4476 5.53066V4.50364H16.8115V5.5289C16.0266 5.43554 15.2324 5.43613 14.4476 5.53066Z" fill="white"></path><path d="M22.2665 21.4589C22.1376 21.4589 22.0121 21.5111 21.9213 21.6019C21.83 21.6927 21.7782 21.8187 21.7782 21.9471C21.7782 22.0756 21.83 22.2015 21.9213 22.2924C22.0121 22.3837 22.1376 22.4354 22.2665 22.4354C22.3949 22.4354 22.5204 22.3837 22.6117 22.2924C22.7025 22.2015 22.7548 22.0756 22.7548 21.9471C22.7548 21.8187 22.7026 21.6927 22.6117 21.6019C22.5204 21.5111 22.3948 21.4589 22.2665 21.4589Z" fill="white"></path><path d="M15.637 7.74329C11.4603 7.74329 8.06226 11.1413 8.06226 15.3181C8.06226 19.4948 11.4603 22.8928 15.637 22.8928C19.8138 22.8928 23.2118 19.4948 23.2118 15.3181C23.2118 11.1413 19.8138 7.74329 15.637 7.74329ZM15.637 21.9163C11.9987 21.9163 9.03883 18.9563 9.03883 15.3181C9.03883 11.6798 11.9987 8.71986 15.637 8.71986C19.2753 8.71986 22.2352 11.6798 22.2352 15.3181C22.2352 18.9563 19.2753 21.9163 15.637 21.9163Z" fill="white"></path><path d="M18.7257 11.5388L16.3072 13.9572C16.105 13.8572 15.8775 13.8007 15.637 13.8007C15.3965 13.8007 15.169 13.8572 14.9668 13.9572L13.8844 12.8748C13.6937 12.6841 13.3846 12.6841 13.1938 12.8748C13.0031 13.0655 13.0031 13.3747 13.1938 13.5654L14.2762 14.6477C14.1761 14.85 14.1197 15.0775 14.1197 15.318C14.1197 16.1546 14.8003 16.8353 15.637 16.8353C16.4737 16.8353 17.1543 16.1546 17.1543 15.318C17.1543 15.0775 17.0978 14.85 16.9978 14.6477L19.3453 12.3002L19.4162 12.2293C19.6069 12.0386 19.6069 11.7294 19.4162 11.5388C19.2256 11.3481 18.9165 11.3481 18.7257 11.5388ZM15.637 15.8587C15.3388 15.8587 15.0963 15.6162 15.0963 15.318C15.0963 15.0199 15.3388 14.7773 15.637 14.7773C15.9351 14.7773 16.1777 15.0199 16.1777 15.318C16.1777 15.6162 15.9351 15.8587 15.637 15.8587Z" fill="white"></path><path d="M20.8577 14.8357H20.4053C20.1356 14.8357 19.917 15.0543 19.917 15.324C19.917 15.5937 20.1356 15.8123 20.4053 15.8123H20.8577C21.1273 15.8123 21.3459 15.5937 21.3459 15.324C21.3459 15.0543 21.1273 14.8357 20.8577 14.8357Z" fill="white"></path><path d="M10.8686 14.8237H10.4163C10.1466 14.8237 9.92798 15.0423 9.92798 15.312C9.92798 15.5817 10.1466 15.8003 10.4163 15.8003H10.8686C11.1382 15.8003 11.3569 15.5817 11.3569 15.312C11.3569 15.0423 11.1382 14.8237 10.8686 14.8237Z" fill="white"></path><path d="M15.6429 11.0379C15.9126 11.0379 16.1312 10.8193 16.1312 10.5496V10.0973C16.1312 9.82761 15.9126 9.60901 15.6429 9.60901C15.3733 9.60901 15.1547 9.82761 15.1547 10.0973V10.5496C15.1547 10.8193 15.3733 11.0379 15.6429 11.0379Z" fill="white"></path><path d="M15.631 19.5981C15.3614 19.5981 15.1427 19.8167 15.1427 20.0864V20.5388C15.1427 20.8084 15.3614 21.0271 15.631 21.0271C15.9006 21.0271 16.1193 20.8084 16.1193 20.5388V20.0864C16.1193 19.8167 15.9006 19.5981 15.631 19.5981Z" fill="white"></path><path d="M0.988281 17.8425C0.859863 17.8425 0.733887 17.8948 0.643066 17.9856C0.552246 18.0764 0.5 18.2024 0.5 18.3308C0.5 18.4597 0.552197 18.5852 0.643066 18.676C0.733936 18.7668 0.859863 18.8191 0.988281 18.8191C1.1167 18.8191 1.24268 18.7668 1.33345 18.676C1.42427 18.5852 1.47656 18.4592 1.47656 18.3308C1.47656 18.2024 1.42432 18.0764 1.33345 17.9856C1.24268 17.8948 1.1167 17.8425 0.988281 17.8425Z" fill="white"></path></g><defs><clipPath id="clip0_202_204"><rect width="25" height="25" fill="white" transform="translate(0.5 0.682129)"></rect></clipPath></defs></svg>
