<svg xmlns="http://www.w3.org/2000/svg" width="37" height="38" viewBox="0 0 37 38" fill="none">
  <path d="M21.5663 8.15212H19.8657V6.45151C19.8657 6.30117 19.806 6.15698 19.6997 6.05068C19.5934 5.94437 19.4492 5.88464 19.2988 5.88464H17.0314C16.881 5.88464 16.7368 5.94437 16.6305 6.05068C16.5242 6.15698 16.4645 6.30117 16.4645 6.45151V8.15212H14.7639C14.6135 8.15212 14.4694 8.21184 14.3631 8.31815C14.2567 8.42446 14.197 8.56865 14.197 8.71899V10.9865C14.197 11.1368 14.2567 11.281 14.3631 11.3873C14.4694 11.4936 14.6135 11.5533 14.7639 11.5533H16.4645V13.2539C16.4645 13.4043 16.5242 13.5485 16.6305 13.6548C16.7368 13.7611 16.881 13.8208 17.0314 13.8208H19.2988C19.4492 13.8208 19.5934 13.7611 19.6997 13.6548C19.806 13.5485 19.8657 13.4043 19.8657 13.2539V11.5533H21.5663C21.7167 11.5533 21.8608 11.4936 21.9672 11.3873C22.0735 11.281 22.1332 11.1368 22.1332 10.9865V8.71899C22.1332 8.56865 22.0735 8.42446 21.9672 8.31815C21.8608 8.21184 21.7167 8.15212 21.5663 8.15212ZM20.9995 10.4196H19.2988C19.1485 10.4196 19.0043 10.4793 18.898 10.5856C18.7917 10.6919 18.732 10.8361 18.732 10.9865V12.6871H17.5982V10.9865C17.5982 10.8361 17.5385 10.6919 17.4322 10.5856C17.3259 10.4793 17.1817 10.4196 17.0314 10.4196H15.3308V9.28586H17.0314C17.1817 9.28586 17.3259 9.22613 17.4322 9.11983C17.5385 9.01352 17.5982 8.86933 17.5982 8.71899V7.01838H18.732V8.71899C18.732 8.86933 18.7917 9.01352 18.898 9.11983C19.0043 9.22613 19.1485 9.28586 19.2988 9.28586H20.9995V10.4196Z" fill="white"></path>
  <path d="M33.8843 11.1905C33.8958 11.0908 33.9015 10.9905 33.9013 10.8901C33.8986 10.3705 33.7184 9.86743 33.3905 9.46431C33.0626 9.06119 32.6069 8.78222 32.0987 8.67365C31.5239 8.56424 30.929 8.67724 30.4344 8.98981C29.9398 9.30237 29.5823 9.79115 29.4344 10.3572L26.9402 17.5338C26.9032 17.5485 26.8673 17.5655 26.8325 17.5848L21.8214 20.5212C21.0546 20.9716 20.4185 21.6143 19.9761 22.3858C19.5337 23.1573 19.3003 24.0308 19.2988 24.9201V30.26C19.1485 30.26 19.0043 30.3197 18.898 30.4261C18.7917 30.5324 18.7319 30.6765 18.7319 30.8269V35.3618C18.7319 35.5122 18.7917 35.6564 18.898 35.7627C19.0043 35.869 19.1485 35.9287 19.2988 35.9287H27.235C27.3853 35.9287 27.5295 35.869 27.6358 35.7627C27.7421 35.6564 27.8018 35.5122 27.8018 35.3618V30.8269C27.8018 30.6765 27.7421 30.5324 27.6358 30.4261C27.5295 30.3197 27.3853 30.26 27.235 30.26V29.0129C27.236 28.7735 27.287 28.5369 27.3846 28.3183C27.4822 28.0996 27.6243 27.9038 27.8018 27.7431L31.6339 24.3362C32.053 23.9695 32.3531 23.4859 32.4955 22.9474L34.9557 13.7471C35.0082 13.555 35.0349 13.3567 35.0351 13.1576C35.0329 12.7575 34.9253 12.3651 34.7233 12.0198C34.5213 11.6745 34.232 11.3885 33.8843 11.1905ZM30.5171 10.6917C30.5867 10.3985 30.7642 10.1424 31.0143 9.97428C31.2643 9.80618 31.5686 9.73849 31.8663 9.78471C32.1204 9.83793 32.3485 9.97673 32.5125 10.1779C32.6766 10.3791 32.7666 10.6305 32.7676 10.8901V10.9014C32.2613 10.9108 31.7718 11.0854 31.3738 11.3985C30.9757 11.7116 30.6909 12.1462 30.5625 12.6361L28.9809 17.5168C28.7415 17.4032 28.4847 17.3304 28.2213 17.3014L30.5171 10.6917ZM26.6681 34.795H19.8657V31.3938H26.6681V34.795ZM33.8617 13.4524L31.3958 22.6583C31.3105 22.9782 31.1331 23.266 30.8856 23.4859L27.0479 26.8928C26.7509 27.1606 26.5133 27.4876 26.3503 27.8527C26.1872 28.2178 26.1024 28.613 26.1012 29.0129V30.26H20.4325V24.9201C20.4354 24.2285 20.6176 23.5494 20.9613 22.9493C21.3051 22.3492 21.7987 21.8485 22.3939 21.4962L27.3994 18.5655C27.5284 18.4903 27.6711 18.4414 27.8191 18.4215C27.9671 18.4016 28.1177 18.4111 28.262 18.4496C28.4063 18.488 28.5416 18.5546 28.6601 18.6455C28.7787 18.7365 28.878 18.8499 28.9526 18.9793C29.0998 19.2413 29.1404 19.5499 29.066 19.841C29.0266 19.9847 28.9593 20.1193 28.8678 20.237C28.7764 20.3547 28.6626 20.4532 28.5331 20.5269L25.2849 22.4032C25.1616 22.4817 25.0732 22.6047 25.0385 22.7467C25.0037 22.8888 25.0251 23.0387 25.0983 23.1653C25.1714 23.2919 25.2907 23.3853 25.4311 23.426C25.5715 23.4668 25.7223 23.4517 25.8518 23.3839L29.1 21.5076C29.3596 21.3603 29.5871 21.1625 29.7692 20.9259C29.9512 20.6894 30.0841 20.4188 30.16 20.1301C30.3143 19.5501 30.2328 18.9326 29.9333 18.4125L29.8993 18.3614L31.6509 12.9592C31.7205 12.666 31.898 12.4099 32.148 12.2418C32.3981 12.0737 32.7023 12.006 33 12.0522C33.2541 12.1054 33.4822 12.2442 33.6463 12.4454C33.8103 12.6466 33.9004 12.898 33.9013 13.1576C33.9033 13.2573 33.8899 13.3567 33.8617 13.4524Z" fill="white"></path>
  <path d="M17.0313 30.26V24.9201C17.0299 24.0308 16.7964 23.1573 16.354 22.3858C15.9116 21.6143 15.2756 20.9716 14.5088 20.5212L9.49764 17.5792C9.46363 17.5622 9.42395 17.5508 9.38994 17.5338L6.91272 10.3969C6.76874 9.82258 6.41132 9.32466 5.9132 9.00452C5.41508 8.68437 4.8137 8.56606 4.23143 8.67365C3.72328 8.78222 3.2675 9.06119 2.93964 9.46431C2.61178 9.86744 2.43153 10.3705 2.42878 10.8901C2.42863 10.9905 2.43431 11.0908 2.44579 11.1906C2.09816 11.3885 1.8088 11.6745 1.60679 12.0198C1.40479 12.3651 1.29727 12.7575 1.29504 13.1576C1.29614 13.3563 1.32088 13.5542 1.36874 13.7471L3.83462 22.9417C3.97553 23.4825 4.27574 23.9683 4.69626 24.3362L8.52263 27.7431C8.70194 27.9027 8.84561 28.0982 8.94427 28.317C9.04292 28.5358 9.09434 28.7729 9.09516 29.0129V30.26C8.94482 30.26 8.80064 30.3197 8.69433 30.4261C8.58802 30.5324 8.52829 30.6766 8.52829 30.8269V35.3618C8.52829 35.5122 8.58802 35.6564 8.69433 35.7627C8.80064 35.869 8.94482 35.9287 9.09516 35.9287H17.0313C17.1817 35.9287 17.3259 35.869 17.4322 35.7627C17.5385 35.6564 17.5982 35.5122 17.5982 35.3618V30.8269C17.5982 30.6766 17.5385 30.5324 17.4322 30.4261C17.3259 30.3197 17.1817 30.26 17.0313 30.26ZM3.56252 10.8901C3.56322 10.6313 3.65245 10.3805 3.81538 10.1794C3.97831 9.97835 4.20514 9.83906 4.45817 9.78471C4.76409 9.74031 5.07548 9.8132 5.32991 9.98878C5.58433 10.1643 5.76297 10.4296 5.83 10.7314L8.10881 17.3014C7.84539 17.3304 7.58865 17.4032 7.34921 17.5168L5.77898 12.6644C5.65119 12.1697 5.36575 11.73 4.96585 11.4119C4.56594 11.0938 4.07333 10.9146 3.56252 10.9014V10.8901ZM9.27656 26.8928L5.44453 23.4859C5.1957 23.2648 5.01814 22.9748 4.93434 22.6526L2.46279 13.4524C2.43933 13.3559 2.4279 13.2569 2.42878 13.1576C2.42948 12.8988 2.51871 12.648 2.68164 12.4469C2.84457 12.2458 3.0714 12.1065 3.32444 12.0522C3.6282 12.0066 3.93796 12.0777 4.19141 12.2513C4.44487 12.4248 4.62322 12.6878 4.69059 12.9875L6.43088 18.3614L6.39687 18.4125C6.09733 18.9326 6.01581 19.5501 6.17012 20.1301C6.24602 20.4188 6.3789 20.6894 6.56095 20.9259C6.743 21.1625 6.97054 21.3603 7.23016 21.5076L10.4783 23.3839C10.6079 23.4517 10.7586 23.4668 10.899 23.426C11.0394 23.3853 11.1587 23.2919 11.2319 23.1653C11.305 23.0387 11.3265 22.8888 11.2917 22.7467C11.2569 22.6047 11.1686 22.4817 11.0452 22.4032L7.79703 20.5269C7.66749 20.4532 7.55375 20.3547 7.46231 20.237C7.37088 20.1193 7.30355 19.9847 7.26418 19.841C7.1897 19.5499 7.23031 19.2413 7.37755 18.9793C7.45162 18.8502 7.5504 18.7369 7.66826 18.6459C7.78611 18.5549 7.92074 18.488 8.06444 18.4491C8.20815 18.4101 8.35812 18.3998 8.50579 18.4189C8.65346 18.4379 8.79595 18.4858 8.9251 18.5598L13.9362 21.4962C14.5314 21.8485 15.025 22.3492 15.3688 22.9493C15.7126 23.5494 15.8948 24.2285 15.8976 24.9201V30.26H10.2289V29.0129C10.2279 28.6125 10.1426 28.2167 9.97855 27.8514C9.81446 27.4861 9.57527 27.1595 9.27656 26.8928ZM16.4645 34.795H9.66203V31.3938H16.4645V34.795Z" fill="white"></path>
  <path d="M26.1845 3.692C25.6583 3.16484 25.0332 2.74662 24.3452 2.46129C23.6571 2.17596 22.9195 2.02912 22.1747 2.02917C21.4298 2.02923 20.6922 2.17617 20.0042 2.4616C19.3162 2.74702 18.6912 3.16533 18.165 3.69257C17.6389 3.16532 17.014 2.74701 16.326 2.46159C15.638 2.17618 14.9004 2.02927 14.1556 2.02927C13.4107 2.02927 12.6732 2.17618 11.9852 2.46159C11.2972 2.74701 10.6722 3.16532 10.1461 3.69257C9.08512 4.75584 8.48926 6.19656 8.48926 7.69864C8.48926 9.20071 9.08512 10.6414 10.1461 11.7047L17.7648 19.3234C17.8711 19.4297 18.0153 19.4894 18.1656 19.4894C18.3159 19.4894 18.4601 19.4297 18.5664 19.3234L26.1851 11.7047C27.246 10.6413 27.8418 9.2004 27.8417 7.69823C27.8416 6.19607 27.2456 4.75529 26.1845 3.692ZM18.165 18.1211L10.9471 10.9031C10.3134 10.2686 9.88208 9.46042 9.70764 8.58077C9.5332 7.70112 9.62348 6.7895 9.96706 5.96116C10.3106 5.13281 10.8921 4.42492 11.6379 3.92699C12.3838 3.42905 13.2605 3.16342 14.1573 3.16368C14.753 3.16164 15.3431 3.27822 15.8933 3.50665C16.4435 3.73507 16.9427 4.07076 17.3618 4.49412L17.7643 4.8966C17.8706 5.00287 18.0147 5.06257 18.165 5.06257C18.3153 5.06257 18.4595 5.00287 18.5658 4.8966L18.9694 4.49299C19.3903 4.07138 19.8901 3.7369 20.4404 3.50869C20.9906 3.28047 21.5805 3.163 22.1762 3.163C22.7719 3.163 23.3618 3.28047 23.912 3.50869C24.4623 3.7369 24.9621 4.07138 25.383 4.49299C26.2321 5.34328 26.7091 6.49583 26.7091 7.6975C26.7091 8.89918 26.2321 10.0517 25.383 10.902L18.165 18.1211Z" fill="white"></path>
</svg>
