<svg xmlns="http://www.w3.org/2000/svg" width="36" height="37" viewBox="0 0 36 37" fill="none"><g clip-path="url(#clip0_205_464)"><path d="M17.9873 36.4642C17.6935 36.4642 17.4244 36.2737 17.3254 35.9976C17.2276 35.7253 17.3117 35.4121 17.5326 35.2252C17.7635 35.0298 18.1013 35.0056 18.3584 35.1644C18.6041 35.3162 18.7334 35.6152 18.6764 35.8982C18.611 36.2226 18.3191 36.4642 17.9873 36.4642Z" fill="white"></path><path d="M35.2656 31.3883H35.2116C35.1481 30.3585 34.7212 29.392 33.9895 28.6362C33.1766 27.7966 32.0917 27.325 30.9347 27.3081C29.7132 27.2921 28.5525 27.7851 27.7224 28.6554C27.2826 28.4493 26.8025 28.3422 26.306 28.3422C25.615 28.3422 24.9597 28.5514 24.4111 28.9399V24.3254L25.0266 24.929C25.1631 25.0629 25.341 25.1301 25.5189 25.1301C25.6906 25.1301 25.8625 25.0675 25.9976 24.9419L28.4282 22.6827C28.5694 22.5515 28.6505 22.368 28.6525 22.1752C28.6546 21.9825 28.5774 21.7973 28.439 21.663L28.0346 21.2708C30.0504 20.7585 31.8828 19.6549 33.2951 18.0822C35.0394 16.1402 36 13.6355 36 11.0295C36 5.20367 31.2604 0.464111 25.4346 0.464111C22.7726 0.464111 20.228 1.46114 18.2693 3.27141C16.6718 4.74783 15.5812 6.65386 15.1188 8.74137L14.8158 8.44746C14.5431 8.18281 14.1094 8.18281 13.8366 8.44746L8.36449 13.7559V12.1368C8.36449 11.7485 8.0497 11.4336 7.66137 11.4336H4.17619C3.78785 11.4336 3.47306 11.7485 3.47306 12.1368V18.5011L0.213517 21.6631C0.0751424 21.7973 -0.00206071 21.9825 -2.16447e-05 22.1753C0.00201742 22.3681 0.0831581 22.5516 0.224346 22.6828L2.65498 24.942C2.93011 25.1978 3.35775 25.1922 3.62592 24.929L4.24144 24.3254V31.3883H0.734463C0.346127 31.3883 0.0313377 31.7031 0.0313377 32.0914V35.761C0.0313377 35.9475 0.105447 36.1263 0.237283 36.2582C0.369119 36.39 0.547924 36.4641 0.734392 36.4641H14.8271C15.2155 36.4641 15.5303 36.1493 15.5303 35.761C15.5303 35.3727 15.2155 35.0579 14.8271 35.0579H1.43752V32.7945H34.5624V35.0579H21.1728C20.7844 35.0579 20.4696 35.3727 20.4696 35.761C20.4696 36.1493 20.7844 36.4641 21.1728 36.4641H35.2656C35.6539 36.4641 35.9687 36.1493 35.9687 35.761V32.0914C35.9687 31.703 35.6539 31.3883 35.2656 31.3883ZM26.306 29.7485C26.7265 29.7485 27.1264 29.8807 27.4626 30.1307C27.6149 30.2442 27.8068 30.2912 27.9942 30.2608C28.1817 30.2306 28.349 30.1258 28.458 29.9703C29.0194 29.1695 29.9353 28.7015 30.9143 28.7142C31.6949 28.7255 32.4282 29.0452 32.9792 29.6143C33.4545 30.1052 33.7401 30.7258 33.8012 31.3881L24.4327 31.3882C24.5697 30.4479 25.3434 29.7485 26.306 29.7485ZM19.7563 11.0295C19.7563 7.89846 22.3036 5.35118 25.4346 5.35118C28.5656 5.35118 31.1129 7.89846 31.1129 11.0295C31.1129 14.1605 28.5656 16.7078 25.4346 16.7078C24.3846 16.7078 23.362 16.4201 22.4724 15.8749L20.6819 14.138C20.0761 13.214 19.7563 12.1408 19.7563 11.0295ZM25.4346 1.87036C30.4849 1.87036 34.5937 5.97914 34.5937 11.0295C34.5937 15.576 31.2712 19.4126 26.8126 20.0853L24.7463 18.0808C24.9742 18.1029 25.2039 18.1141 25.4346 18.1141C29.341 18.1141 32.5192 14.936 32.5192 11.0295C32.5192 7.12306 29.341 3.94493 25.4346 3.94493C21.5282 3.94493 18.3501 7.12306 18.3501 11.0295C18.3501 11.3327 18.3692 11.6338 18.4069 11.9312L16.3415 9.92754C16.8907 5.38339 20.8225 1.87036 25.4346 1.87036ZM4.87931 12.8399H6.95831V15.1201L4.87931 17.137V12.8399ZM3.12073 23.455L1.72418 22.1569L14.3263 9.93183L26.9284 22.1569L25.5319 23.455L14.8185 12.9496C14.81 12.9413 14.8013 12.9331 14.7925 12.9253C14.5268 12.6896 14.1258 12.6896 13.8601 12.9253C13.8513 12.9332 13.8425 12.9413 13.834 12.9496L3.12073 23.455ZM5.64776 22.9465L14.3263 14.4365L23.0048 22.9465V31.3883H17.7716V24.6397C17.7716 24.2514 17.4568 23.9365 17.0685 23.9365H11.5841C11.1958 23.9365 10.881 24.2514 10.881 24.6397V31.3882H5.64776V22.9465ZM12.2872 31.3883V25.3428H16.3654V31.3882H12.2872V31.3883Z" fill="white"></path><path d="M26.2138 10.4394C26.1603 10.4205 26.1085 10.4021 26.0582 10.3841V8.98186C26.1276 9.02334 26.1785 9.06954 26.2098 9.11404C26.4329 9.43193 26.8713 9.50885 27.1892 9.28582C27.5071 9.06272 27.584 8.62425 27.3609 8.30637C27.1014 7.93645 26.6472 7.62293 26.058 7.49531C26.0499 7.11401 25.7383 6.80737 25.3551 6.80737C24.9668 6.80737 24.652 7.12223 24.652 7.5105V7.54284C24.6057 7.55487 24.559 7.56787 24.512 7.58208C23.7666 7.80651 23.2042 8.52855 23.1441 9.33771C23.0845 10.1417 23.5102 10.8391 24.2826 11.2032C24.3683 11.2437 24.4942 11.2969 24.6519 11.3595V13.1237C24.4801 13.0486 24.3307 12.9475 24.2272 12.819C23.9837 12.5167 23.541 12.4689 23.2386 12.7125C22.9362 12.9561 22.8885 13.3987 23.1321 13.7012C23.5258 14.19 24.0912 14.4667 24.6537 14.5985C24.6795 14.9633 24.9836 15.2514 25.355 15.2514C25.7091 15.2514 26.0018 14.9898 26.0509 14.6494C27.0558 14.4728 27.7612 13.8056 27.8767 12.8969C28.0105 11.8434 27.3267 10.8328 26.2138 10.4394ZM24.5466 9.44177C24.5545 9.33546 24.5935 9.2302 24.652 9.14196V9.76823C24.5718 9.67746 24.5372 9.56932 24.5466 9.44177ZM26.4816 12.7198C26.454 12.9375 26.3045 13.1027 26.0582 13.1979V11.9211C26.3883 12.1445 26.5137 12.4679 26.4816 12.7198Z" fill="white"></path></g><defs><clipPath id="clip0_205_464"><rect width="36" height="36" fill="white" transform="translate(0 0.464111)"></rect></clipPath></defs></svg>
