<svg width="169" height="170" viewBox="0 0 169 170" fill="none" xmlns="http://www.w3.org/2000/svg">
<path d="M131.025 78.9852C130.714 79.0697 130.446 79.2989 130.327 79.6257C130.132 80.1596 130.406 80.7509 130.94 80.9459C132.136 81.3838 132.785 81.6615 132.8 81.6671C133.322 81.8941 133.927 81.6514 134.154 81.1289C134.379 80.6068 134.138 80.0008 133.616 79.7756C133.616 79.7756 132.927 79.4787 131.649 79.0105C131.44 78.9365 131.224 78.9312 131.025 78.9852Z" fill="#009A5E"/>
<path d="M130.319 79.6324C130.138 80.1653 130.409 80.746 130.945 80.9421C131.468 81.1413 132.062 80.8662 132.258 80.3294C132.453 79.7925 132.182 79.2118 131.645 79.0162C131.437 78.9304 131.224 78.9314 131.024 78.9857C130.708 79.0714 130.443 79.2999 130.319 79.6324Z" fill="#009A5E"/>
<path d="M76.0957 75.7332C75.5657 75.8771 75.2339 76.4367 75.3646 76.9703C75.4366 77.2353 75.5963 77.4622 75.8371 77.6102C76.073 77.7453 76.3535 77.783 76.6208 77.7246C77.847 77.4201 79.1479 77.1238 80.457 76.8679C81.0243 76.7565 81.3729 76.2066 81.2652 75.6526L81.2544 75.6128C81.1237 75.0792 80.5906 74.7403 80.0534 74.8577C78.743 75.1139 77.4133 75.4039 76.1209 75.7264L76.0957 75.7332ZM72.2532 76.7766L72.24 76.7802C70.9258 77.1797 69.6321 77.6022 68.3985 78.0367C67.8842 78.2333 67.5909 78.7824 67.7481 79.3088C67.7517 79.3221 67.7589 79.3486 67.7625 79.3618C67.963 79.8907 68.5611 80.155 69.0853 79.9843C70.3453 79.5425 71.5993 79.1309 72.8194 78.7569C73.3458 78.5997 73.656 78.0602 73.524 77.527L73.5132 77.4872C73.3525 76.9476 72.7832 76.6327 72.2532 76.7766ZM83.9113 74.18C83.4064 74.3171 83.0881 74.8161 83.1586 75.3376C83.1658 75.3641 83.1766 75.4038 83.1838 75.4303C83.3095 75.951 83.8089 76.2707 84.3304 76.2002C85.6684 75.9934 86.9908 75.8335 88.2386 75.7081C88.8299 75.6329 89.2194 75.1287 89.1537 74.5775C89.1525 74.5209 89.1381 74.4679 89.1237 74.4149C89.0052 73.9207 88.5346 73.6075 88.0228 73.6611C86.6101 73.8028 85.3046 73.9724 84.0341 74.1609C83.9944 74.1717 83.951 74.1692 83.9113 74.18ZM64.7532 79.4392C64.7147 79.4496 64.6617 79.464 64.6242 79.4884C63.3822 79.9964 62.1377 80.5477 60.9401 81.1148C60.4714 81.3274 60.2457 81.8582 60.3885 82.3316C60.4029 82.3846 60.4172 82.4376 60.4462 82.4866C60.6815 82.9918 61.3004 83.2221 61.8184 82.9819C62.9895 82.422 64.1978 81.8947 65.4121 81.3943C65.8989 81.1909 66.1644 80.6493 66.0095 80.1366C66.0023 80.1101 65.9783 80.0739 65.9711 80.0474C65.7681 79.5619 65.2434 79.306 64.7532 79.4392ZM91.8416 73.3639C91.3646 73.4934 91.0438 73.9362 91.0734 74.4119C91.0817 74.495 91.0997 74.5612 91.1177 74.6275C91.2304 75.0948 91.6864 75.412 92.1621 75.3825C93.4362 75.3068 94.7622 75.2597 96.1059 75.2363C96.66 75.2281 97.1265 74.7457 97.1174 74.1934C97.1236 74.1063 97.0984 74.0136 97.0768 73.9341C96.9545 73.4836 96.5418 73.1688 96.0745 73.1819C94.8006 73.2006 93.4313 73.2452 92.0453 73.3228C91.9728 73.3283 91.9079 73.3459 91.8416 73.3639ZM57.5376 82.8354C57.4714 82.8534 57.3955 82.8882 57.3328 82.9195C56.1642 83.5356 54.9941 84.209 53.8193 84.9121C53.4144 85.1501 53.2199 85.6439 53.3568 86.0905C53.3784 86.17 53.4132 86.2459 53.46 86.3185C53.746 86.7957 54.3889 86.9626 54.8806 86.6726C55.9951 86.0143 57.1423 85.3613 58.299 84.7485C58.7207 84.5201 58.9343 84.0495 58.8084 83.5858C58.8001 83.5027 58.7652 83.4268 58.7135 83.3412C58.5021 82.9292 58.0001 82.7098 57.5376 82.8354ZM99.8158 73.233L99.8025 73.2366C99.3653 73.3554 99.0566 73.7379 99.0392 74.1979C99.0366 74.2982 99.0534 74.4075 99.0786 74.5002C99.1974 74.9374 99.5932 75.2425 100.036 75.2502C101.283 75.2817 102.535 75.3401 103.897 75.4255L103.983 75.4304C104.535 75.4656 105.041 75.0294 105.077 74.4791C105.084 74.3491 105.082 74.2359 105.036 74.1202C104.921 73.6962 104.542 73.4008 104.122 73.3726C102.819 73.2853 101.464 73.2264 100.105 73.1972C100.005 73.1959 99.9085 73.2078 99.8158 73.233ZM50.7091 86.9232C50.6031 86.952 50.5043 87.0073 50.4055 87.0626C49.2884 87.8212 48.1762 88.5927 47.1083 89.3806C46.7673 89.6439 46.6212 90.0962 46.7327 90.5069C46.7651 90.6262 46.8204 90.725 46.8925 90.8334C47.223 91.2701 47.8926 91.3728 48.3408 91.0377C49.4206 90.2465 50.5076 89.4819 51.556 88.7846C51.9271 88.5273 52.1011 88.0675 51.9691 87.6339C51.9439 87.5411 51.9019 87.4387 51.8369 87.3568C51.5929 86.982 51.1331 86.8081 50.7091 86.9232ZM107.753 73.7523C107.341 73.8642 107.04 74.2164 106.998 74.6402C106.987 74.757 106.99 74.8702 107.022 74.9894C107.123 75.4174 107.492 75.7297 107.916 75.7711C109.219 75.901 110.53 76.0714 111.832 76.2583L111.846 76.2547C112.38 76.3371 112.909 75.9231 112.992 75.3886C113.012 75.2549 113.003 75.1152 112.979 74.9795C112.867 74.5688 112.532 74.2758 112.118 74.2175C110.846 74.0363 109.503 73.8606 108.127 73.7218C107.995 73.7008 107.872 73.72 107.753 73.7523ZM44.3001 91.6654C44.1676 91.7014 44.0423 91.7639 43.9242 91.8529C42.8985 92.6862 41.8969 93.5557 40.9218 94.418C40.9072 94.422 40.8856 94.4421 40.8481 94.4665L40.7711 94.5443L40.7747 94.5576C40.5455 94.819 40.4596 95.1837 40.5532 95.5282C40.5927 95.674 40.6721 95.8089 40.7743 95.9235C41.1436 96.3353 41.8107 96.3818 42.2362 96.0102C43.1522 95.1924 44.1296 94.3437 45.1434 93.5135L45.2253 93.4486C45.5518 93.1892 45.6799 92.7703 45.5552 92.3632C45.5192 92.2307 45.4603 92.1186 45.3713 92.0005C45.1165 91.6856 44.6963 91.5578 44.3001 91.6654ZM115.643 74.8821C115.259 74.9865 114.974 75.3056 114.895 75.6969C114.865 75.8474 114.865 76.0039 114.922 76.159C115.023 76.53 115.327 76.8172 115.72 76.8956C116.99 77.1198 118.288 77.3933 119.588 77.6805C120.133 77.8027 120.702 77.4349 120.816 76.906C120.856 76.7387 120.849 76.5556 120.806 76.3966C120.705 76.0257 120.403 75.752 120.038 75.6661C118.798 75.391 117.473 75.125 116.096 74.873C115.945 74.8427 115.789 74.8426 115.643 74.8821ZM38.3553 96.9644C38.1963 97.0076 38.0348 97.0941 37.9107 97.2132C37.901 97.2301 37.8781 97.2505 37.8649 97.2541C37.4935 97.6679 37.5061 98.2905 37.8838 98.6859C38.2374 99.0451 38.8346 99.0963 39.2466 98.7853C39.2828 98.7612 39.3167 98.7236 39.3528 98.6995C39.6191 98.4281 39.7293 98.0425 39.6153 97.6751C39.5721 97.5161 39.4856 97.3546 39.3665 97.2305C39.1102 96.9729 38.725 96.8641 38.3553 96.9644ZM123.415 76.6271C123.07 76.7207 122.79 76.9961 122.687 77.3512C122.647 77.5186 122.65 77.6883 122.684 77.8642C122.781 78.2219 123.06 78.5161 123.428 78.6152C124.714 78.949 125.994 79.3128 127.22 79.6911C127.75 79.8603 128.346 79.5418 128.502 79.0158C128.586 78.7513 128.555 78.4752 128.433 78.2378C128.308 77.9872 128.088 77.8051 127.827 77.7338C126.614 77.3519 125.317 76.9784 123.954 76.6229C123.77 76.5733 123.6 76.5767 123.415 76.6271Z" fill="#009A5E"/>
<path d="M38.3442 96.976C38.1812 97.0203 38.0264 97.105 37.897 97.2312C37.4045 97.712 36.9114 98.2016 36.4222 98.7001C36.0244 99.1054 36.0296 99.7585 36.435 100.156C36.8407 100.555 37.4917 100.548 37.8912 100.144C38.3706 99.6563 38.8505 99.176 39.3337 98.7076C39.741 98.311 39.7488 97.6587 39.3522 97.2514C39.0832 96.9731 38.694 96.881 38.3442 96.976Z" fill="#009A5E"/>
<path d="M129.124 71.237C129.033 71.2618 128.941 71.301 128.856 71.3527C128.371 71.6492 128.219 72.2837 128.516 72.768L133.253 80.4987L125.073 83.8055C124.546 84.0183 124.29 84.6183 124.503 85.1452C124.716 85.6722 125.305 85.9347 125.844 85.7144L135.153 81.9518C135.433 81.8386 135.649 81.6078 135.745 81.3187C135.839 81.0314 135.803 80.7167 135.645 80.4581L130.271 71.6911C130.028 71.2934 129.555 71.1201 129.124 71.237Z" fill="#009A5E"/>
</svg>
