<svg width="169" height="170" viewBox="0 0 169 170" fill="none" xmlns="http://www.w3.org/2000/svg">
<path d="M131.025 91.2709C130.714 91.1864 130.446 90.9572 130.327 90.6304C130.132 90.0965 130.406 89.5052 130.94 89.3102C132.136 88.8723 132.785 88.5947 132.8 88.589C133.322 88.362 133.927 88.6047 134.154 89.1272C134.379 89.6493 134.138 90.2553 133.616 90.4805C133.616 90.4805 132.927 90.7774 131.649 91.2456C131.44 91.3196 131.224 91.3249 131.025 91.2709Z" fill="#009A5E"/>
<path d="M130.319 90.6237C130.138 90.0908 130.409 89.5101 130.945 89.314C131.468 89.1148 132.062 89.3899 132.258 89.9267C132.453 90.4636 132.182 91.0443 131.645 91.2399C131.437 91.3257 131.224 91.3247 131.024 91.2704C130.708 91.1847 130.443 90.9562 130.319 90.6237Z" fill="#009A5E"/>
<path d="M76.0957 94.5229C75.5657 94.379 75.2339 93.8194 75.3646 93.2858C75.4366 93.0208 75.5963 92.7939 75.8371 92.6459C76.073 92.5108 76.3535 92.4731 76.6208 92.5315C77.847 92.836 79.1479 93.1323 80.457 93.3882C81.0243 93.4996 81.3729 94.0495 81.2652 94.6035L81.2544 94.6433C81.1237 95.1769 80.5906 95.5158 80.0534 95.3984C78.743 95.1422 77.4133 94.8522 76.1209 94.5297L76.0957 94.5229ZM72.2532 93.4795L72.24 93.4759C70.9258 93.0764 69.6321 92.6539 68.3985 92.2194C67.8842 92.0228 67.5909 91.4737 67.7481 90.9473C67.7517 90.934 67.7589 90.9075 67.7625 90.8943C67.963 90.3654 68.5611 90.1011 69.0853 90.2718C70.3453 90.7136 71.5993 91.1252 72.8194 91.4992C73.3458 91.6564 73.656 92.1959 73.524 92.7291L73.5132 92.7689C73.3525 93.3085 72.7832 93.6234 72.2532 93.4795ZM83.9113 96.0761C83.4064 95.939 83.0881 95.44 83.1586 94.9185C83.1658 94.892 83.1766 94.8523 83.1838 94.8258C83.3095 94.3051 83.8089 93.9854 84.3304 94.0559C85.6684 94.2627 86.9908 94.4226 88.2386 94.548C88.8299 94.6232 89.2194 95.1274 89.1537 95.6786C89.1525 95.7352 89.1381 95.7882 89.1237 95.8412C89.0052 96.3354 88.5346 96.6486 88.0228 96.595C86.6101 96.4533 85.3046 96.2837 84.0341 96.0952C83.9944 96.0844 83.951 96.0869 83.9113 96.0761ZM64.7532 90.8169C64.7147 90.8065 64.6617 90.7921 64.6242 90.7677C63.3822 90.2597 62.1377 89.7084 60.9401 89.1413C60.4714 88.9287 60.2457 88.3979 60.3885 87.9245C60.4029 87.8715 60.4172 87.8185 60.4462 87.7695C60.6815 87.2643 61.3004 87.034 61.8184 87.2743C62.9895 87.8341 64.1978 88.3614 65.4121 88.8618C65.8989 89.0652 66.1644 89.6068 66.0095 90.1195C66.0023 90.146 65.9783 90.1822 65.9711 90.2087C65.7681 90.6942 65.2434 90.9501 64.7532 90.8169ZM91.8416 96.8922C91.3646 96.7627 91.0438 96.3199 91.0734 95.8442C91.0817 95.7611 91.0997 95.6949 91.1177 95.6286C91.2304 95.1613 91.6864 94.8441 92.1621 94.8737C93.4362 94.9493 94.7622 94.9964 96.1059 95.0198C96.66 95.028 97.1265 95.5104 97.1174 96.0627C97.1236 96.1498 97.0984 96.2425 97.0768 96.322C96.9545 96.7725 96.5418 97.0873 96.0745 97.0742C94.8006 97.0555 93.4313 97.0109 92.0453 96.9333C91.9728 96.9278 91.9079 96.9102 91.8416 96.8922ZM57.5376 87.4207C57.4714 87.4027 57.3955 87.3679 57.3328 87.3366C56.1642 86.7205 54.9941 86.0471 53.8193 85.344C53.4144 85.106 53.2199 84.6122 53.3568 84.1656C53.3784 84.0861 53.4132 84.0102 53.46 83.9376C53.746 83.4604 54.3889 83.2935 54.8806 83.5835C55.9951 84.2418 57.1423 84.8948 58.299 85.5076C58.7207 85.736 58.9343 86.2066 58.8084 86.6703C58.8001 86.7534 58.7652 86.8293 58.7135 86.9149C58.5021 87.3269 58.0001 87.5463 57.5376 87.4207ZM99.8158 97.0231L99.8025 97.0195C99.3653 96.9008 99.0566 96.5182 99.0392 96.0582C99.0366 95.9579 99.0534 95.8487 99.0786 95.7559C99.1974 95.3187 99.5932 95.0136 100.036 95.0059C101.283 94.9744 102.535 94.916 103.897 94.8306L103.983 94.8257C104.535 94.7905 105.041 95.2267 105.077 95.777C105.084 95.907 105.082 96.0202 105.036 96.1359C104.921 96.5599 104.542 96.8553 104.122 96.8835C102.819 96.9708 101.464 97.0297 100.105 97.0589C100.005 97.0602 99.9085 97.0483 99.8158 97.0231ZM50.7091 83.3329C50.6031 83.3041 50.5043 83.2488 50.4055 83.1935C49.2884 82.4349 48.1762 81.6634 47.1083 80.8755C46.7673 80.6122 46.6212 80.1599 46.7327 79.7492C46.7651 79.6299 46.8204 79.5311 46.8925 79.4227C47.223 78.986 47.8926 78.8833 48.3408 79.2184C49.4206 80.0096 50.5076 80.7742 51.556 81.4715C51.9271 81.7288 52.1011 82.1886 51.9691 82.6222C51.9439 82.715 51.9019 82.8174 51.8369 82.8993C51.5929 83.2741 51.1331 83.448 50.7091 83.3329ZM107.753 96.5038C107.341 96.3919 107.04 96.0397 106.998 95.6159C106.987 95.4991 106.99 95.3859 107.022 95.2667C107.123 94.8387 107.492 94.5264 107.916 94.485C109.219 94.3551 110.53 94.1847 111.832 93.9978L111.846 94.0014C112.38 93.919 112.909 94.333 112.992 94.8675C113.012 95.0012 113.003 95.1409 112.979 95.2766C112.867 95.6874 112.532 95.9803 112.118 96.0386C110.846 96.2198 109.503 96.3955 108.127 96.5343C107.995 96.5553 107.872 96.5361 107.753 96.5038ZM44.3001 78.5907C44.1676 78.5547 44.0423 78.4922 43.9242 78.4032C42.8985 77.5699 41.8969 76.7004 40.9218 75.8381C40.9072 75.8341 40.8856 75.814 40.8481 75.7896L40.7711 75.7118L40.7747 75.6985C40.5455 75.4371 40.4596 75.0724 40.5532 74.7279C40.5927 74.5821 40.6721 74.4472 40.7743 74.3327C41.1436 73.9208 41.8107 73.8743 42.2362 74.2459C43.1522 75.0637 44.1296 75.9124 45.1434 76.7426L45.2253 76.8075C45.5518 77.0669 45.6799 77.4858 45.5552 77.8929C45.5192 78.0254 45.4603 78.1375 45.3713 78.2556C45.1165 78.5705 44.6963 78.6983 44.3001 78.5907ZM115.643 95.374C115.259 95.2696 114.974 94.9505 114.895 94.5592C114.865 94.4087 114.865 94.2522 114.922 94.0971C115.023 93.7262 115.327 93.4389 115.72 93.3605C116.99 93.1363 118.288 92.8628 119.588 92.5756C120.133 92.4534 120.702 92.8212 120.816 93.3501C120.856 93.5174 120.849 93.7005 120.806 93.8595C120.705 94.2305 120.403 94.5041 120.038 94.59C118.798 94.8651 117.473 95.1311 116.096 95.3831C115.945 95.4134 115.789 95.4136 115.643 95.374ZM38.3553 73.2917C38.1963 73.2485 38.0348 73.162 37.9107 73.0429C37.901 73.026 37.8781 73.0056 37.8649 73.002C37.4935 72.5882 37.5061 71.9656 37.8838 71.5702C38.2374 71.211 38.8346 71.1598 39.2466 71.4708C39.2828 71.4949 39.3167 71.5325 39.3528 71.5566C39.6191 71.828 39.7293 72.2136 39.6153 72.581C39.5721 72.74 39.4856 72.9015 39.3665 73.0256C39.1102 73.2833 38.725 73.392 38.3553 73.2917ZM123.415 93.629C123.07 93.5354 122.79 93.26 122.687 92.9049C122.647 92.7375 122.65 92.5678 122.684 92.3919C122.781 92.0342 123.06 91.74 123.428 91.6409C124.714 91.3071 125.994 90.9433 127.22 90.565C127.75 90.3958 128.346 90.7143 128.502 91.2403C128.586 91.5048 128.555 91.7809 128.433 92.0183C128.308 92.2689 128.088 92.451 127.827 92.5223C126.614 92.9042 125.317 93.2777 123.954 93.6332C123.77 93.6828 123.6 93.6794 123.415 93.629Z" fill="#009A5E"/>
<path d="M38.3442 73.2801C38.1812 73.2358 38.0264 73.1511 37.897 73.025C37.4045 72.5441 36.9114 72.0545 36.4222 71.556C36.0244 71.1507 36.0296 70.4977 36.435 70.0998C36.8407 69.7007 37.4917 69.7082 37.8912 70.1126C38.3706 70.5998 38.8505 71.0801 39.3337 71.5485C39.741 71.9451 39.7488 72.5974 39.3522 73.0047C39.0832 73.283 38.694 73.3751 38.3442 73.2801Z" fill="#009A5E"/>
<path d="M129.124 99.0191C129.033 98.9943 128.941 98.9551 128.856 98.9034C128.371 98.6069 128.219 97.9724 128.516 97.4881L133.253 89.7574L125.073 86.4506C124.546 86.2378 124.29 85.6378 124.503 85.1109C124.716 84.5839 125.305 84.3214 125.844 84.5418L135.153 88.3043C135.433 88.4175 135.649 88.6484 135.745 88.9374C135.839 89.2247 135.803 89.5394 135.645 89.798L130.271 98.565C130.028 98.9627 129.555 99.136 129.124 99.0191Z" fill="#009A5E"/>
</svg>
