<svg xmlns="http://www.w3.org/2000/svg" width="37" height="37" viewBox="0 0 37 37" fill="none">
  <g clip-path="url(#clip0_202_133)">
    <path d="M27.4051 4.91266L18.4051 0.973065C18.252 0.906277 18.0781 0.906277 17.9251 0.973065L8.92506 4.91266C8.70651 5.00805 8.56519 5.2238 8.56506 5.46227V14.8823C8.56832 16.9993 9.58561 18.9865 11.3011 20.2271L17.5213 24.7133C17.9054 24.9913 18.4247 24.9913 18.8089 24.7133L25.0291 20.2277C26.7445 18.9871 27.7618 16.9999 27.7651 14.8829V5.46227C27.7649 5.2238 27.6236 5.00805 27.4051 4.91266ZM26.5651 14.8829C26.5623 16.6144 25.7302 18.2398 24.3271 19.2545L18.1651 23.6987L12.0031 19.2545C10.5999 18.2398 9.76781 16.6144 9.76506 14.8829V5.85466L18.1651 2.17786L26.5651 5.85466V14.8829Z" fill="white"></path>
    <path d="M17.9251 3.59269L11.3251 6.48229C11.1065 6.57768 10.9652 6.79343 10.9651 7.03189V14.8829C10.9669 16.2291 11.614 17.4928 12.7051 18.2813L17.8141 21.9665C18.0237 22.1177 18.3065 22.1177 18.5161 21.9665L23.6251 18.2813C24.7162 17.4928 25.3632 16.2291 25.3651 14.8829V7.03189C25.365 6.79343 25.2236 6.57768 25.0051 6.48229L18.4051 3.59269C18.2521 3.52591 18.0781 3.52591 17.9251 3.59269ZM24.1651 7.42369V14.8829C24.1633 15.8435 23.7015 16.7452 22.9231 17.3081L18.1651 20.7401L13.4071 17.3081C12.6287 16.7452 12.1669 15.8435 12.1651 14.8829V7.42369L18.1651 4.79749L24.1651 7.42369Z" fill="white"></path>
    <path d="M5.13608 20.8427L3.83828 17.8103C3.56229 17.1851 2.97374 16.7546 2.29432 16.6811C1.61491 16.6075 0.947849 16.902 0.544422 17.4536C0.140994 18.0052 0.0624884 18.7301 0.338476 19.3553L2.68988 24.5279C3.0071 25.2281 3.44841 25.8652 3.99248 26.4083L7.69028 30.1067C7.48202 30.3274 7.36573 30.6192 7.36508 30.9227V35.7227C7.36508 36.3854 7.90234 36.9227 8.56508 36.9227H15.1651C15.8278 36.9227 16.3651 36.3854 16.3651 35.7227V30.9227C16.3651 30.2599 15.8278 29.7227 15.1651 29.7227V28.6061C15.1835 27.1851 14.7199 25.7998 13.8499 24.6761C13.3398 24.0052 12.6447 23.4982 11.8501 23.2175C10.5864 22.6865 9.4242 21.9407 8.41508 21.0131C7.47838 20.2416 6.14769 20.1725 5.13608 20.8427ZM15.1651 35.7227H8.56508V30.9227H15.1651V35.7227ZM12.9133 25.4255C13.6126 26.3367 13.9833 27.4576 13.9651 28.6061V29.7227H9.00368L4.84088 25.5599C4.39876 25.1184 4.04 24.6007 3.78188 24.0317L1.43048 18.8591C1.33013 18.6383 1.3488 18.3817 1.48006 18.1778C1.61131 17.9738 1.83717 17.8506 2.07968 17.8505C2.36506 17.8502 2.62298 18.0205 2.73488 18.2831L4.07708 21.4133C4.43349 22.2484 4.94722 23.0072 5.59028 23.6483L8.33108 26.3897C8.48172 26.5456 8.7048 26.6082 8.91458 26.5533C9.12436 26.4984 9.28819 26.3346 9.3431 26.1248C9.39801 25.915 9.33545 25.6919 9.17948 25.5413L6.43868 22.7999C6.16307 22.5249 5.91527 22.2235 5.69888 21.8999C6.27508 21.4565 7.08118 21.4699 7.64228 21.9323C8.76388 22.9616 10.0602 23.7825 11.4703 24.3563C12.0448 24.5652 12.5461 24.9367 12.9133 25.4255Z" fill="white"></path>
    <path d="M13.365 32.7227H12.765C12.4337 32.7227 12.165 32.9913 12.165 33.3227C12.165 33.654 12.4337 33.9227 12.765 33.9227H13.365C13.6964 33.9227 13.965 33.654 13.965 33.3227C13.965 32.9913 13.6964 32.7227 13.365 32.7227Z" fill="white"></path>
    <path d="M33.6403 24.5278L35.9917 19.3552C36.2808 18.7279 36.2093 17.9935 35.8046 17.4338C35.3998 16.874 34.7248 16.576 34.0385 16.654C33.3522 16.732 32.7613 17.1739 32.4925 17.8102L31.1977 20.8312C30.1826 20.1643 28.8512 20.2373 27.9151 21.0112C26.906 21.9388 25.7438 22.6847 24.4801 23.2156C23.6855 23.4963 22.9903 24.0034 22.4803 24.6742C21.6099 25.7984 21.1463 27.1844 21.1651 28.606V29.7226C20.5023 29.7226 19.9651 30.2599 19.9651 30.9226V35.7226C19.9651 36.3854 20.5023 36.9226 21.1651 36.9226H27.7651C28.4278 36.9226 28.9651 36.3854 28.9651 35.7226V30.9226C28.9644 30.6191 28.8481 30.3273 28.6399 30.1066L32.3377 26.4082C32.8818 25.8651 33.3231 25.228 33.6403 24.5278ZM27.7651 35.7226H21.1651V30.9226H27.7651V35.7226ZM27.3265 29.7226H22.3651V28.606C22.347 27.4577 22.7176 26.337 23.4169 25.426C23.7832 24.9375 24.2834 24.5659 24.8569 24.3562C26.2672 23.7826 27.5638 22.9617 28.6855 21.9322C29.246 21.4663 30.0543 21.4507 30.6325 21.8944C30.4155 22.2204 30.1664 22.5239 29.8891 22.8004L27.1483 25.5418C26.9209 25.7772 26.9242 26.1515 27.1556 26.3829C27.387 26.6143 27.7613 26.6176 27.9967 26.3902L30.7375 23.6488C31.3805 23.0077 31.8943 22.249 32.2507 21.4138L33.5929 18.283C33.7051 18.0208 33.9629 17.8508 34.2481 17.851C34.4906 17.8511 34.7165 17.9744 34.8477 18.1783C34.979 18.3822 34.9976 18.6388 34.8973 18.8596L32.5459 24.0322C32.2878 24.6012 31.929 25.1189 31.4869 25.5604L27.3265 29.7226Z" fill="white"></path>
    <path d="M23.5651 32.7227H22.9651C22.6337 32.7227 22.3651 32.9913 22.3651 33.3227C22.3651 33.654 22.6337 33.9227 22.9651 33.9227H23.5651C23.8965 33.9227 24.1651 33.654 24.1651 33.3227C24.1651 32.9913 23.8965 32.7227 23.5651 32.7227Z" fill="white"></path>
    <path d="M14.9251 13.6426C14.66 13.4438 14.2839 13.4975 14.0851 13.7626C13.8863 14.0277 13.94 14.4038 14.2051 14.6026L16.6051 16.4026C16.709 16.4805 16.8353 16.5226 16.9651 16.5226C16.9991 16.5225 17.033 16.5197 17.0665 16.5142C17.229 16.4864 17.3729 16.3928 17.4643 16.2556L22.2643 9.05564C22.3833 8.87729 22.3981 8.64902 22.3031 8.45682C22.2081 8.26461 22.0178 8.13767 21.8039 8.12382C21.59 8.10996 21.3849 8.21129 21.2659 8.38964L16.8175 15.0622L14.9251 13.6426Z" fill="white"></path>
  </g>
  <defs>
    <clipPath id="clip0_202_133">
      <rect width="36" height="36" fill="white" transform="translate(0.165039 0.922607)"></rect>
    </clipPath>
  </defs>
</svg>
