<svg xmlns="http://www.w3.org/2000/svg" width="36" height="37" viewBox="0 0 36 37" fill="none"><g clip-path="url(#clip0_205_433)"><path d="M33.6063 18.9303C33.4614 18.6339 33.4614 18.294 33.6063 17.9977L34.9489 15.251C35.6965 13.7216 35.1042 11.8988 33.6005 11.101L30.8998 9.66799C30.6084 9.51345 30.4087 9.23839 30.3517 8.91361L29.8235 5.90222C29.5294 4.22556 27.9784 3.09887 26.2932 3.3373L23.2661 3.7655C22.9394 3.81163 22.6163 3.70658 22.3792 3.47729L20.1819 1.35162C18.9584 0.167985 17.0417 0.167915 15.8183 1.35162L13.6209 3.47751C13.3838 3.70686 13.0607 3.8117 12.734 3.76571L9.7069 3.33751C8.02116 3.09894 6.47078 4.22577 6.17667 5.90243L5.64848 8.91368C5.59146 9.23853 5.3917 9.51352 5.1004 9.66813L2.39971 11.1011C0.896018 11.8989 0.303709 13.7218 1.05127 15.2512L2.39388 17.9979C2.53872 18.2942 2.53872 18.6341 2.39388 18.9304L1.0512 21.6771C0.303639 23.2064 0.895948 25.0293 2.39964 25.8271L5.10033 27.2601C5.3917 27.4146 5.59146 27.6897 5.64848 28.0145L6.17667 31.0259C6.44442 32.5522 7.7532 33.6226 9.25739 33.6225C9.40554 33.6225 9.55587 33.6121 9.70697 33.5907L12.7341 33.1625C13.0606 33.1162 13.3839 33.2214 13.621 33.4507L15.8183 35.5764C16.4301 36.1683 17.215 36.4641 18.0001 36.4641C18.785 36.464 19.5703 36.1681 20.1819 35.5764L22.3792 33.4507C22.6163 33.2214 22.9395 33.1167 23.2661 33.1625L26.2932 33.5907C27.9792 33.8292 29.5294 32.7024 29.8235 31.0258L30.3517 28.0145C30.4087 27.6897 30.6085 27.4147 30.8998 27.2601L33.6005 25.8271C35.1042 25.0294 35.6965 23.2064 34.9489 21.677L33.6063 18.9303ZM32.6273 23.9929L29.9266 25.4258C29.0656 25.8828 28.475 26.6955 28.3066 27.6557L27.7784 30.667C27.6789 31.2343 27.1545 31.6153 26.584 31.5348L23.5569 31.1066C22.5915 30.9698 21.6363 31.2805 20.9356 31.9583L18.7382 34.0839C18.3243 34.4842 17.6759 34.4842 17.2619 34.0839L15.0645 31.9582C14.4724 31.3854 13.6982 31.0749 12.8901 31.0749C12.742 31.0749 12.5927 31.0853 12.4432 31.1065L9.41609 31.5347C8.84614 31.6153 8.32126 31.2342 8.22169 30.6669L7.69344 27.6555C7.52497 26.6953 6.93449 25.8826 6.07338 25.4258L3.37269 23.9928C2.86391 23.7229 2.66352 23.1062 2.91644 22.5888L4.25912 19.842C4.68718 18.9662 4.68718 17.9617 4.25912 17.0859L2.91644 14.3392C2.66352 13.8217 2.86391 13.205 3.37269 12.9351L6.07338 11.5022C6.93442 11.0452 7.52497 10.2325 7.69337 9.27235L8.22155 6.26102C8.32112 5.69374 8.8455 5.31265 9.41595 5.39323L12.4431 5.82143C13.4081 5.95805 14.3637 5.64748 15.0644 4.96974L17.2618 2.84406C17.6756 2.44371 18.3241 2.44371 18.7381 2.84406L20.9355 4.96974C21.6361 5.64755 22.5916 5.95805 23.5568 5.82143L26.5839 5.39323C27.1539 5.31258 27.6788 5.69374 27.7783 6.26102L28.3065 9.27242C28.475 10.2326 29.0654 11.0453 29.9265 11.5022L32.6272 12.9351C33.136 13.205 33.3364 13.8217 33.0835 14.3392L31.7408 17.0858C31.3127 17.9616 31.3127 18.9662 31.7408 19.8419L33.0835 22.5886C33.3365 23.1062 33.1361 23.723 32.6273 23.9929Z" fill="white"></path><path d="M25.5855 10.8785C25.1802 10.4731 24.5228 10.4731 24.1173 10.8785L10.4143 24.5817C10.0089 24.9871 10.0089 25.6444 10.4143 26.0498C10.617 26.2525 10.8827 26.3539 11.1484 26.3539C11.414 26.3539 11.6798 26.2526 11.8824 26.0498L25.5855 12.3468C25.991 11.9413 25.991 11.284 25.5855 10.8785Z" fill="white"></path><path d="M13.8473 9.12061C11.7483 9.12061 10.0406 10.8283 10.0406 12.9272C10.0406 15.0262 11.7483 16.7339 13.8473 16.7339C15.9462 16.7339 17.6539 15.0262 17.6539 12.9272C17.6539 10.8283 15.9462 9.12061 13.8473 9.12061ZM13.8473 14.6575C12.8932 14.6575 12.117 13.8813 12.117 12.9272C12.117 11.9731 12.8932 11.1969 13.8473 11.1969C14.8013 11.1969 15.5776 11.9731 15.5776 12.9272C15.5775 13.8813 14.8013 14.6575 13.8473 14.6575Z" fill="white"></path><path d="M22.1526 20.1943C20.0536 20.1943 18.3459 21.902 18.3459 24.001C18.3459 26.0999 20.0536 27.8076 22.1526 27.8076C24.2515 27.8076 25.9592 26.0999 25.9592 24.001C25.9592 21.902 24.2515 20.1943 22.1526 20.1943ZM22.1526 25.7312C21.1985 25.7312 20.4223 24.955 20.4223 24.001C20.4223 23.0469 21.1984 22.2707 22.1526 22.2707C23.1066 22.2707 23.8828 23.0469 23.8828 24.001C23.8828 24.955 23.1066 25.7312 22.1526 25.7312Z" fill="white"></path></g><defs><clipPath id="clip0_205_433"><rect width="36" height="36" fill="white" transform="translate(0 0.464111)"></rect></clipPath></defs></svg>
