<svg xmlns="http://www.w3.org/2000/svg" width="40" height="40" viewBox="0 0 40 40" fill="none"><path d="M33.5375 38.0687H6.59998C6.25623 38.0687 5.97498 37.7875 5.97498 37.4437C5.97498 29.7625 13.125 27.375 16.2 26.7062C16.65 26.6062 16.9625 26.2187 16.9625 25.7687V24.9687C14.1875 23.7625 12.3375 20.9875 12.3062 17.9312C12.2812 14.6312 14.3625 11.6687 17.4937 10.55C17.8187 10.4312 18.175 10.6 18.2937 10.925C18.4125 11.25 18.2437 11.6062 17.9187 11.725C15.3312 12.65 13.5375 15.2 13.5625 17.9187C13.5875 20.6062 15.3 23.0312 17.8125 23.9625C18.0562 24.05 18.2187 24.2875 18.2187 24.55V25.775C18.2187 26.8062 17.4812 27.7187 16.4687 27.9375C13.125 28.6562 7.59998 30.775 7.24373 36.8187H32.875C32.3125 30.2 26.2062 28.375 23.5437 27.8875C22.4812 27.6937 21.7125 26.775 21.7125 25.7125V24.625C21.7125 24.3562 21.8812 24.1187 22.1375 24.0312C24.8 23.1375 26.5875 20.6562 26.5875 17.8562C26.5875 17.175 26.4875 16.5125 26.2875 15.8937C26.1812 15.5625 26.3625 15.2125 26.6937 15.1062C27.025 15 27.375 15.1812 27.4812 15.5125C27.7187 16.2625 27.8437 17.05 27.8437 17.8625C27.8437 21.05 25.9062 23.8937 22.9687 25.0687V25.7187C22.9687 26.1812 23.3062 26.5812 23.775 26.6687C26.8187 27.2187 33.9312 29.3812 34.1687 37.4375C34.175 37.6062 34.1125 37.7687 33.9937 37.8937C33.8687 38 33.7062 38.0687 33.5375 38.0687Z" fill="#009A5E"></path><path d="M9.42505 31.3188C9.0813 31.3188 8.80005 31.0375 8.80005 30.6938V15.6875C8.80005 9.51255 13.825 4.48755 20 4.48755C26.175 4.48755 31.2 9.51255 31.2 15.6875V30.5125C31.2 30.8563 30.9188 31.1375 30.575 31.1375C30.2313 31.1375 29.95 30.8563 29.95 30.5125V15.6875C29.95 10.2 25.4875 5.73755 20 5.73755C14.5125 5.73755 10.05 10.2 10.05 15.6875V30.6938C10.05 31.0375 9.77505 31.3188 9.42505 31.3188Z" fill="#009A5E"></path><path d="M26.875 16.3251C26.8688 16.3251 26.8625 16.3251 26.85 16.3251C18.975 16.0376 17.1875 11.5376 17.1188 11.3501C16.9938 11.0251 17.1625 10.6689 17.4813 10.5439C17.8 10.4189 18.1625 10.5814 18.2875 10.9064C18.3563 11.0751 19.9188 14.8251 26.9 15.0814C27.2438 15.0939 27.5125 15.3814 27.5 15.7314C27.4875 16.0626 27.2125 16.3251 26.875 16.3251Z" fill="#009A5E"></path><path d="M17.7063 22.4688H13.2063C11.7625 22.4688 10.5813 21.2937 10.5813 19.8437V18.7188C10.5813 18.375 10.8625 18.0938 11.2063 18.0938C11.55 18.0938 11.8313 18.375 11.8313 18.7188V19.8437C11.8313 20.6 12.4438 21.2188 13.2063 21.2188H17.7063C18.05 21.2188 18.3313 21.5 18.3313 21.8438C18.3313 22.1875 18.05 22.4688 17.7063 22.4688Z" fill="#009A5E"></path><path d="M19.0938 23.3626H18.6813C17.8 23.3626 17.0813 22.6438 17.0813 21.7626C17.0813 20.8813 17.8 20.1626 18.6813 20.1626H19.0938C19.975 20.1626 20.6938 20.8813 20.6938 21.7626C20.6938 22.6438 19.975 23.3626 19.0938 23.3626ZM18.6813 21.4063C18.4875 21.4063 18.3313 21.5626 18.3313 21.7563C18.3313 21.9501 18.4875 22.1063 18.6813 22.1063H19.0938C19.2875 22.1063 19.4438 21.9501 19.4438 21.7563C19.4438 21.5626 19.2875 21.4063 19.0938 21.4063H18.6813Z" fill="#009A5E"></path><path d="M9.42502 22.3812H7.35627C5.88127 22.3812 4.68127 21.1812 4.68127 19.7062V15.9375C4.68127 14.4625 5.88127 13.2625 7.35627 13.2625H9.42502C9.76877 13.2625 10.05 13.5437 10.05 13.8875V21.75C10.05 22.1062 9.77502 22.3812 9.42502 22.3812ZM7.35627 14.5187C6.56877 14.5187 5.93127 15.1562 5.93127 15.9437V19.7125C5.93127 20.5 6.56877 21.1375 7.35627 21.1375H8.80002V14.5187H7.35627Z" fill="#009A5E"></path><path d="M32.6437 22.3813H30.5687C30.225 22.3813 29.9437 22.1 29.9437 21.7563V13.8938C29.9437 13.55 30.225 13.2688 30.5687 13.2688H32.6437C34.1187 13.2688 35.3187 14.4688 35.3187 15.9438V19.7125C35.3187 21.1875 34.1187 22.3813 32.6437 22.3813ZM31.2 21.1313H32.65C33.4375 21.1313 34.075 20.4938 34.075 19.7063V15.9375C34.075 15.15 33.4375 14.5125 32.65 14.5125H31.2V21.1313Z" fill="#009A5E"></path><path d="M32.55 14.5187C32.2188 14.5187 31.9438 14.2624 31.925 13.9249C31.9 13.4874 31.2 3.1749 20 3.1749C8.80002 3.1749 8.10002 13.4874 8.07502 13.9249C8.05627 14.2687 7.76252 14.5312 7.41877 14.5124C7.07502 14.4937 6.81252 14.1999 6.83127 13.8562C6.83127 13.7437 7.60002 1.93115 20 1.93115C32.4 1.93115 33.1688 13.7437 33.175 13.8624C33.1938 14.2062 32.9313 14.4999 32.5875 14.5187C32.575 14.5187 32.5625 14.5187 32.55 14.5187Z" fill="#009A5E"></path><path d="M19.9875 28.925C17.7688 28.925 16.2813 27.6938 16.2625 27.675C16 27.45 15.9688 27.0563 16.1875 26.7938C16.4125 26.5313 16.8 26.5 17.0688 26.7188C17.1813 26.8125 19.7188 28.8625 23.05 26.675C23.3375 26.4875 23.725 26.5625 23.9125 26.8563C24.1 27.1438 24.025 27.5313 23.7313 27.7188C22.3625 28.625 21.0875 28.925 19.9875 28.925Z" fill="#009A5E"></path></svg>
