<svg xmlns="http://www.w3.org/2000/svg" width="24" height="25" viewBox="0 0 24 25" fill="none"><g clip-path="url(#clip0_249_1976)"><path d="M21.9529 16.9159C21.6125 16.7289 21.185 16.8533 20.9981 17.1936C20.8111 17.534 20.9355 17.9615 21.2758 18.1484C22.1134 18.6085 22.5938 19.1186 22.5938 19.5479C22.5938 20.073 21.8498 20.8867 19.7619 21.5961C17.6992 22.2969 14.9426 22.6829 12 22.6829C9.05742 22.6829 6.30084 22.2969 4.23811 21.5961C2.15016 20.8868 1.40625 20.073 1.40625 19.5479C1.40625 19.1186 1.88663 18.6085 2.72419 18.1484C3.06455 17.9614 3.18886 17.5339 3.00187 17.1936C2.81489 16.8533 2.38753 16.7289 2.04708 16.9159C1.11323 17.4289 0 18.302 0 19.5479C0 20.5029 0.656813 21.8646 3.78572 22.9276C5.99034 23.6766 8.90756 24.0891 12 24.0891C15.0924 24.0891 18.0097 23.6766 20.2143 22.9276C23.3432 21.8646 24 20.5029 24 19.5479C24 18.302 22.8868 17.4289 21.9529 16.9159Z" fill="#009A5E"></path><path d="M6.69147 20.5796C8.11881 20.9828 10.0041 21.2049 12 21.2049C13.9959 21.2049 15.8811 20.9828 17.3085 20.5796C19.0547 20.0863 19.9401 19.3722 19.9401 18.4573C19.9401 17.5424 19.0547 16.8284 17.3085 16.3351C16.9208 16.2256 16.4992 16.1295 16.051 16.0476C15.8076 16.4682 15.5525 16.9011 15.2859 17.3464C15.782 17.4209 16.2478 17.5121 16.6708 17.6199C17.9559 17.9472 18.4254 18.3157 18.5219 18.4574C18.4254 18.5991 17.956 18.9675 16.6708 19.2948C15.4545 19.6046 13.8895 19.7813 12.2412 19.7971C12.1614 19.803 12.081 19.8064 12 19.8064C11.9189 19.8064 11.8385 19.803 11.7587 19.7971C10.1104 19.7813 8.54542 19.6047 7.32906 19.2948C6.04394 18.9675 5.57449 18.599 5.47797 18.4574C5.57449 18.3157 6.04399 17.9472 7.32911 17.6199C7.75211 17.5122 8.21791 17.4209 8.71408 17.3464C8.44741 16.9011 8.19236 16.4681 7.94894 16.0476C7.50072 16.1296 7.07908 16.2256 6.69147 16.3351C4.94524 16.8284 4.05981 17.5424 4.05981 18.4573C4.05981 19.3722 4.94524 20.0863 6.69147 20.5796Z" fill="#009A5E"></path><path d="M12.0001 18.4001C12.626 18.4001 13.1946 18.0811 13.5211 17.5469C15.8091 13.8036 18.5364 8.8702 18.5364 6.62531C18.5364 3.02124 15.6042 0.0891113 12.0001 0.0891113C8.39599 0.0891113 5.46387 3.02124 5.46387 6.62531C5.46387 8.8702 8.1912 13.8036 10.4791 17.5469C10.8056 18.0811 11.3742 18.4001 12.0001 18.4001ZM9.37291 6.17653C9.37291 4.72796 10.5515 3.54942 12.0001 3.54942C13.4487 3.54942 14.6273 4.72796 14.6273 6.17653C14.6273 7.62516 13.4487 8.80369 12.0001 8.80369C10.5515 8.80369 9.37291 7.62521 9.37291 6.17653Z" fill="#009A5E"></path></g><defs><clipPath id="clip0_249_1976"><rect width="24" height="24" fill="white" transform="translate(0 0.0891113)"></rect></clipPath></defs></svg>
