<svg xmlns="http://www.w3.org/2000/svg"  viewBox="0 0 25 25" fill="none">
                  <path d="M20.3579 4.66785C19.0173 4.5252 17.6979 4.22698 16.4263 3.77921C15.2593 3.36691 14.14 2.83064 13.0874 2.1796C12.8127 2.01289 12.4976 1.92473 12.1763 1.92473C11.855 1.92473 11.5398 2.01289 11.2651 2.1796L11.2641 2.1806C10.2118 2.83111 9.09277 3.36704 7.92627 3.77921C6.65495 4.22689 5.33586 4.52512 3.99561 4.66788C3.56509 4.71197 3.16624 4.91426 2.87632 5.23557C2.5864 5.55687 2.42603 5.97434 2.42627 6.40711V11.6024C2.42697 13.5193 2.93994 15.4011 3.91209 17.0532C4.88423 18.7052 6.28022 20.0675 7.95557 20.9989L11.3257 22.8719C11.5852 23.0179 11.878 23.0946 12.1758 23.0946C12.4736 23.0946 12.7663 23.0179 13.0259 22.8719L16.397 20.9989C18.0723 20.0675 19.4683 18.7052 20.4405 17.0532C21.4126 15.4011 21.9256 13.5193 21.9263 11.6024V6.40711C21.9266 5.97448 21.7663 5.55713 21.4766 5.23583C21.1869 4.91454 20.7883 4.71215 20.3579 4.66785ZM16.1558 10.6699L12.4058 14.6699C12.2277 14.8602 11.9823 14.9734 11.7219 14.9852C11.4615 14.9971 11.2068 14.9067 11.0122 14.7333L8.76221 12.7333C8.56407 12.5572 8.44402 12.3096 8.42845 12.045C8.41288 11.7803 8.50308 11.5203 8.6792 11.3222C8.85532 11.1241 9.10293 11.004 9.36757 10.9884C9.63221 10.9729 9.89219 11.0631 10.0903 11.2392L11.6128 12.5917L14.6968 9.30267C14.7904 9.20297 14.9034 9.12347 15.0288 9.06905C15.1543 9.01463 15.2895 8.98644 15.4263 8.98621C15.6212 8.98631 15.8119 9.04339 15.9748 9.15043C16.1378 9.25746 16.2659 9.40979 16.3434 9.58867C16.4209 9.76755 16.4444 9.96519 16.4111 10.1573C16.3778 10.3493 16.289 10.5275 16.1558 10.6699Z" fill="#ffffff"/>
                </svg>
