<svg xmlns="http://www.w3.org/2000/svg" width="40" height="40" viewBox="0 0 40 40" fill="none"><path d="M17.675 33.075H34.3125C34.6441 33.075 34.962 32.9433 35.1964 32.7088C35.4308 32.4744 35.5625 32.1565 35.5625 31.825V25.0468C35.5625 24.7153 35.4308 24.3974 35.1964 24.1629C34.962 23.9285 34.6441 23.7968 34.3125 23.7968H30.8188V17.2593C30.8188 17.2593 30.8188 17.2343 30.8188 17.2218C30.7407 13.1593 24.8813 9.84058 17.6938 9.84058C10.5063 9.84058 4.63128 13.1437 4.56878 17.2218V17.2593V25.625C4.53128 29.7281 10.4282 33.075 17.675 33.075ZM29.8813 23.7875H24.1844C26.75 22.9531 28.775 21.6437 29.8813 20.0718V23.7875ZM17.675 10.7812C24.4063 10.7812 29.8813 13.7093 29.8813 17.3062C29.8813 20.6468 25.1594 23.4062 19.0969 23.7843H17.675C10.9594 23.7843 5.48753 20.8687 5.46878 17.2812C5.45003 13.6937 10.9594 10.7812 17.675 10.7812ZM5.46878 20.0687C7.40628 22.8187 12.1469 24.7562 17.675 24.7562C18.1625 24.7562 18.6438 24.7406 19.1157 24.7093H34.3125C34.3954 24.7093 34.4749 24.7423 34.5335 24.8009C34.5921 24.8595 34.625 24.9389 34.625 25.0218V31.7875C34.625 31.8703 34.5921 31.9498 34.5335 32.0084C34.4749 32.067 34.3954 32.1 34.3125 32.1H31.0844V29.8812C31.0844 29.7569 31.035 29.6377 30.9471 29.5497C30.8592 29.4618 30.74 29.4125 30.6157 29.4125C30.4913 29.4125 30.3721 29.4618 30.2842 29.5497C30.1963 29.6377 30.1469 29.7569 30.1469 29.8812V32.1406H26.5938V27.8125C26.5938 27.6881 26.5444 27.5689 26.4565 27.481C26.3686 27.3931 26.2494 27.3437 26.125 27.3437C26.0007 27.3437 25.8815 27.3931 25.7936 27.481C25.7057 27.5689 25.6563 27.6881 25.6563 27.8125V32.1312H22.1063V29.8812C22.1063 29.7569 22.0569 29.6377 21.969 29.5497C21.8811 29.4618 21.7619 29.4125 21.6375 29.4125C21.5132 29.4125 21.394 29.4618 21.3061 29.5497C21.2182 29.6377 21.1688 29.7569 21.1688 29.8812V32.1406H17.6157V27.8125C17.6157 27.6881 17.5663 27.5689 17.4784 27.481C17.3905 27.3931 17.2712 27.3437 17.1469 27.3437C17.0226 27.3437 16.9034 27.3931 16.8155 27.481C16.7275 27.5689 16.6782 27.6881 16.6782 27.8125V32.1062C15.4835 32.0593 14.2949 31.912 13.125 31.6656V28.9281C13.125 28.8038 13.0756 28.6845 12.9877 28.5966C12.8998 28.5087 12.7806 28.4593 12.6563 28.4593C12.532 28.4593 12.4127 28.5087 12.3248 28.5966C12.2369 28.6845 12.1875 28.8038 12.1875 28.9281V31.4281C10.9462 31.1112 9.75245 30.631 8.63753 30V25.4437C8.63753 25.3194 8.58815 25.2002 8.50024 25.1122C8.41233 25.0243 8.2931 24.975 8.16878 24.975C8.04446 24.975 7.92523 25.0243 7.83733 25.1122C7.74942 25.2002 7.70003 25.3194 7.70003 25.4437V29.375C6.29691 28.3125 5.46878 27.0187 5.46878 25.625V20.0687Z" fill="#009A5E"></path><path d="M17.675 18.9063C19.4094 18.9063 21.2781 18.4063 21.2781 17.3063C21.2781 16.2063 19.4031 15.7063 17.675 15.7063C15.9469 15.7063 14.0625 16.2063 14.0625 17.3063C14.0625 18.4063 15.9375 18.9063 17.675 18.9063ZM17.675 16.6407C19.3313 16.6407 20.2438 17.1094 20.3344 17.3032C20.2406 17.4969 19.3313 17.9657 17.675 17.9657C16.0188 17.9657 15.0719 17.4813 15 17.3188C15.0719 17.1313 15.9844 16.6438 17.675 16.6438V16.6407Z" fill="#009A5E"></path></svg>
